<svg width="209" height="58" viewBox="0 0 209 58" fill="none" xmlns="http://www.w3.org/2000/svg">
<g clip-path="url(#clip0_2964_17139)">
<path d="M6.97932 49.8059V52.1461H3.9786V49.8059H3.20712V55.1755H3.97662V52.8383H6.97833V55.1755H7.75278V49.8059H6.97932ZM11.9112 49.8059V55.1755H15.0258V54.4823H12.6817V52.8126H14.8792V52.1243H12.6817V50.5031H14.9565V49.8069L11.9112 49.8059ZM20.7945 50.9587L21.6611 52.8997H19.9894L20.7945 50.9587ZM20.5351 49.7752L18.2296 55.1795H19.0149L19.6953 53.5969H21.974L22.69 55.1795H23.4754L21.0768 49.7752H20.5351ZM26.586 49.8049V50.5021H28.438V55.1755H29.2085V50.5021H31.0653V49.8059L26.586 49.8049ZM34.7672 49.8049H35.5407V55.1755H34.7672V49.8049ZM43.9437 49.8049V53.9643L40.3072 49.8049H39.6922V55.1755H40.4151V51.0438L44.0051 55.1755H44.6627V49.8059L43.9437 49.8049ZM53.5222 54.8081C52.8062 55.121 52.2219 55.2488 51.4752 55.2488C49.8313 55.2488 48.6201 54.1 48.6201 52.5254C48.6201 50.9507 49.862 49.7395 51.499 49.7395C52.1288 49.7395 52.5705 49.8406 53.4103 50.1961V50.9745C52.7795 50.6259 52.1288 50.4476 51.4831 50.4476C50.3185 50.4476 49.4173 51.338 49.4173 52.5026C49.4173 53.6662 50.3106 54.5407 51.5871 54.5407C52.005 54.5407 52.3804 54.4476 52.7518 54.3278V53.2255H51.7198V52.5323H53.5222V54.8081ZM69.0309 52.5056C68.8834 52.9393 68.5586 53.4662 68.1594 53.9178L69.2439 55.1795H68.2535L67.6375 54.4446C66.9691 55.0517 66.4273 55.2488 65.9401 55.2488C65.2043 55.2488 64.5853 54.6883 64.5853 53.9713C64.5853 53.3265 65.1042 52.8225 65.8549 52.3897C65.541 52.0569 65.2469 51.6004 65.2469 51.1438C65.2469 50.3981 65.7886 49.9099 66.6244 49.9099C67.3791 49.9099 67.9119 50.4209 67.9119 51.0745C67.9119 51.5935 67.6187 52.0223 66.9304 52.5056L67.6841 53.3721C67.902 53.1522 68.1406 52.7769 68.2565 52.5056H69.0309ZM66.2917 52.9007C65.6955 53.28 65.3598 53.5543 65.3598 53.9722C65.3825 54.2783 65.6727 54.5367 66.0213 54.5367C66.4115 54.5367 66.7987 54.2783 67.1701 53.9099L66.2956 52.8997L66.2917 52.9007ZM66.4967 51.9876C67.073 51.6281 67.1968 51.3885 67.1968 51.1131C67.1968 50.8002 66.9374 50.5605 66.5818 50.5605C66.253 50.5605 66.0015 50.7844 66.0015 51.0706C66.0015 51.4033 66.2689 51.7638 66.4967 51.9837M84.8447 55.1755H84.0593L83.3443 53.593H81.0616L80.3852 55.1755H79.5998L81.9053 49.7752H82.447L84.8447 55.1755ZM81.3587 52.9007H83.0264L82.1608 50.9587L81.3557 52.8997L81.3587 52.9007ZM88.4198 49.8059H89.1893V55.1755H88.4198V49.8059ZM94.7183 49.8059C95.8008 49.8059 96.4782 50.3823 96.4782 51.3112C96.4782 51.9331 96.1563 52.3976 95.5799 52.6264C96.0672 52.9473 96.3653 53.4424 96.7753 54.1119C97.008 54.4783 97.1397 54.6645 97.5111 55.1755H96.5901L95.882 54.0723C95.1739 52.97 94.852 52.8462 94.4579 52.8462H94.137V55.1755H93.3675V49.8059H94.7213H94.7183ZM94.137 52.15H94.6282C95.4561 52.15 95.6879 51.7281 95.6849 51.2795C95.677 50.7764 95.3789 50.4674 94.6282 50.4674H94.137V52.15ZM112.984 51.0052C112.324 50.619 111.758 50.4476 111.135 50.4476C109.909 50.4476 109 51.3221 109 52.5026C109 53.6821 109.881 54.5407 111.167 54.5407C111.774 54.5407 112.434 54.3278 113.039 53.9336V54.7764C112.443 55.0981 111.774 55.2608 111.098 55.2488C109.081 55.2488 108.199 53.6979 108.199 52.5719C108.199 50.9319 109.434 49.7366 111.143 49.7366C111.693 49.7366 112.249 49.8713 112.985 50.1773L112.984 51.0052ZM119.6 49.7366C121.372 49.7366 122.485 50.9973 122.485 52.4897C122.485 53.9881 121.399 55.2448 119.584 55.2448C117.766 55.2448 116.722 53.9485 116.722 52.4907C116.722 51.0359 117.859 49.7366 119.6 49.7366ZM119.6 54.5367C120.803 54.5367 121.692 53.6662 121.692 52.4907C121.692 51.3142 120.803 50.4437 119.6 50.4437C118.396 50.4437 117.515 51.3102 117.515 52.4907C117.515 53.6702 118.408 54.5367 119.6 54.5367ZM131.368 55.1755H130.706L127.12 51.0438V55.1755H126.397V49.8059H127.011L130.645 53.9653V49.8059H131.368V55.1755ZM135.527 49.8059H137.616C139.593 49.8059 140.467 51.226 140.467 52.4897C140.467 53.8673 139.391 55.1755 137.623 55.1755H135.53V49.8059H135.527ZM136.297 54.4833H137.523C139.268 54.4833 139.67 53.1523 139.67 52.4947C139.67 51.4152 138.988 50.5021 137.484 50.5021H136.296V54.4862L136.297 54.4833ZM144.405 49.8059H145.174V55.1755H144.405V49.8059ZM153.36 50.5021H151.503V55.1755H150.734V50.5021H148.877V49.8059H153.36V50.5021ZM157.062 49.8059H157.837V55.1755H157.062V49.8059ZM164.637 49.7366C166.409 49.7366 167.523 50.9973 167.523 52.4897C167.523 53.9881 166.436 55.2448 164.621 55.2448C162.803 55.2448 161.759 53.9485 161.759 52.4907C161.759 51.0359 162.896 49.7366 164.637 49.7366ZM164.637 54.5367C165.84 54.5367 166.73 53.6662 166.73 52.4907C166.73 51.3142 165.84 50.4437 164.637 50.4437C163.434 50.4437 162.552 51.3102 162.552 52.4907C162.552 53.6702 163.446 54.5367 164.637 54.5367ZM176.405 55.1755H175.744L172.158 51.0438V55.1755H171.434V49.8059H172.049L175.681 53.9653V49.8059H176.404L176.405 55.1755ZM180.568 49.8059H181.337V55.1755H180.568V49.8059ZM190.463 55.1755H189.802L186.212 51.0438V55.1755H185.492V49.8059H186.104L189.735 53.9653V49.8059H190.463V55.1755ZM199.314 54.8081C198.599 55.121 198.019 55.2488 197.272 55.2488C195.628 55.2488 194.417 54.1 194.417 52.5254C194.417 50.9507 195.659 49.7395 197.295 49.7395C197.925 49.7395 198.362 49.8406 199.206 50.1961V50.9745C198.579 50.6259 197.921 50.4476 197.28 50.4476C196.115 50.4476 195.21 51.338 195.21 52.5026C195.21 53.6662 196.107 54.5407 197.384 54.5407C197.798 54.5407 198.176 54.4476 198.544 54.3278V53.2255H197.515V52.5323H199.318V54.8081H199.314Z" fill="#231F20"/>
<path d="M204.874 40.6066C204.565 40.6068 204.26 40.546 203.974 40.4277C203.689 40.3095 203.431 40.1361 203.213 39.9176C202.995 39.6991 202.822 39.4397 202.705 39.1543C202.587 38.8689 202.527 38.5632 202.529 38.2546C202.528 37.9468 202.589 37.6419 202.706 37.3574C202.824 37.073 202.997 36.8147 203.215 36.5972C203.433 36.3798 203.691 36.2075 203.976 36.0903C204.261 35.9732 204.566 35.9134 204.874 35.9144C205.182 35.9135 205.487 35.9734 205.771 36.0906C206.056 36.2078 206.315 36.38 206.533 36.5974C206.751 36.8148 206.924 37.0731 207.042 37.3575C207.16 37.6418 207.221 37.9467 207.221 38.2546C207.221 38.5632 207.161 38.869 207.044 39.1543C206.926 39.4397 206.753 39.699 206.535 39.9175C206.317 40.1359 206.058 40.3093 205.773 40.4275C205.488 40.5458 205.182 40.6067 204.874 40.6066ZM204.874 36.3007C203.794 36.3007 202.92 37.1751 202.92 38.2586C202.92 38.7773 203.126 39.2748 203.493 39.6416C203.859 40.0084 204.357 40.2145 204.876 40.2145C205.394 40.2145 205.892 40.0084 206.259 39.6416C206.625 39.2748 206.832 38.7773 206.832 38.2586C206.832 38.0013 206.782 37.7466 206.683 37.5088C206.585 37.2711 206.441 37.0551 206.259 36.8732C206.077 36.6914 205.861 36.5472 205.623 36.4489C205.386 36.3506 205.131 36.3003 204.874 36.3007ZM203.848 37.0355H204.962C205.586 37.0355 205.798 37.4227 205.798 37.697C205.798 38.1031 205.504 38.3932 205.079 38.4249V38.4358C205.295 38.5141 205.454 38.73 205.663 39.0667L205.968 39.5579H205.473L205.249 39.1637C204.932 38.5953 204.807 38.4863 204.498 38.4863H204.255V39.5579H203.849L203.848 37.0355ZM204.842 38.1348C205.156 38.1348 205.365 38.0149 205.365 37.7515C205.365 37.5237 205.179 37.3801 204.916 37.3801H204.259V38.1348H204.842ZM40.423 38.2813C40.423 38.2813 40.3923 39.8986 41.8313 40.3046C41.8313 40.3046 44.426 40.4363 47.4673 37.1137L50.7949 33.7941C50.7949 33.7941 49.3589 36.5374 48.9419 38.7686C48.6201 40.4631 51.2663 40.6027 51.3712 39.7906C51.4673 39.0479 55.4405 29.8209 55.9129 30.3467C56.3615 30.8498 56.4229 32.2116 59.3098 30.8419C59.8347 30.5874 58.9651 32.3007 58.5967 33.5386C58.2264 34.7963 57.2162 38.0298 57.1895 38.9627C57.1429 40.5403 59.6574 40.8849 59.8782 38.8963C60.3457 34.622 63.4484 28.7493 64.2258 27.1598C64.7755 26.0338 62.5274 25.8635 62.5274 25.8635C62.5274 25.8635 61.9134 26.6726 59.2395 28.1809C59.0384 28.2928 56.5507 29.7753 56.8755 27.9917C57.0766 26.8459 55.5564 26.9469 55.3474 27.0281C54.8483 27.2292 53.8471 29.7317 53.9936 27.6322C54.0204 27.3024 52.7329 26.7885 51.9476 28.0571C47.197 35.7589 43.3911 37.1553 43.2475 37.2405C42.2532 37.8555 42.5245 36.5601 42.5245 36.5601C43.2703 36.0026 46.6711 32.9662 47.4713 31.755C48.5428 30.1269 49.135 27.8867 49.135 26.9043C49.135 27.7016 49.3361 21.8021 44.2527 27.1212C43.2703 28.1413 41.3589 31.3995 40.3339 36.1422C40.2022 36.2353 37.7462 38.2972 37.0727 37.3999C37.0727 37.3999 37.351 35.4886 37.7224 34.6072C38.0987 33.7248 39.402 31.3995 39.6337 29.7704C39.8694 28.1343 37.8511 28.1155 37.3055 28.885C36.4231 30.1427 34.0898 32.3274 34.0898 32.3274C34.0898 32.3274 34.1829 31.4926 34.6939 28.374C34.8405 27.4688 33.3273 26.2467 32.0359 27.7669C29.1847 31.1172 25.9275 34.417 25.9275 34.417C25.9275 34.417 29.5174 28.0452 30.4038 26.5092C31.4981 24.6097 28.8173 24.6523 28.2102 25.7209C27.6457 26.7221 22.6623 35.3489 22.384 37.1632C22.2216 38.2041 21.7185 39.9917 23.0377 40.1382C25.1342 40.3709 24.7559 39.8986 25.5095 38.6527C26.0443 37.7594 31.104 31.9065 31.0574 31.9531C31.0574 31.9531 29.4283 36.5136 29.054 37.3029C28.7747 37.8911 28.6747 38.4398 29.8462 38.6527C30.7088 38.8042 31.3595 38.3972 31.6189 37.9991C32.5548 36.5562 33.4362 36.37 34.787 34.7924C34.787 34.7924 33.9046 39.9996 35.9081 40.2313C37.5837 40.4244 40.0596 38.5992 40.4339 38.2774M80.5783 27.349C80.5783 27.349 79.7306 27.3955 79.1819 27.3024C76.2307 26.8033 71.4097 33.9377 70.7135 35.345C70.7135 35.345 68.2416 36.8968 66.57 37.5624C63.2127 38.9003 64.005 36.9929 65.1003 34.5557C65.8926 32.7879 68.8408 29.5812 68.8408 29.5812C68.6091 30.2745 67.9891 31.2598 68.5972 31.8134C68.721 31.9253 69.947 32.6879 70.1837 31.7669C70.7482 29.5545 72.3773 27.9066 72.3268 27.9521C73.027 27.2559 71.9475 24.5909 68.7834 27.1173C67.1503 28.4205 66.357 29.1177 63.7921 32.4671C63.8386 32.4057 60.11 37.1712 62.0213 39.2568C63.181 40.5245 65.1429 40.5145 67.3791 39.5341C68.0555 39.241 70.0401 37.91 70.5046 37.5346C70.973 37.1632 70.0401 39.3529 72.6011 39.5351C74.1411 39.644 77.2666 36.1878 77.2666 36.1878C75.897 40.9394 79.2671 39.7015 79.785 39.1637C80.7635 38.1387 84.8684 33.1633 84.8684 33.1633C84.8684 33.1633 84.1722 34.6795 84.5436 36.9315C85.0229 39.9065 87.7117 37.4811 87.9286 37.288C88.5941 36.68 93.0773 31.6273 93.0773 31.6273C93.0773 31.6273 91.1393 35.9214 90.8372 38.3744C90.5589 40.6492 91.3631 40.8849 92.191 40.8849C92.1454 40.8849 94.0172 35.6738 95.1739 32.982C96.1523 30.7033 96.4782 29.8635 96.4782 28.5136C96.4782 25.5188 94.4163 27.1212 94.242 27.1212L87.48 34.1001C87.48 34.1001 88.9229 30.6102 89.4834 28.374C90.041 26.1418 88.1296 26.0497 87.3869 26.8845C86.7372 27.6124 80.2069 34.6993 80.2069 34.6993C80.2069 34.6993 82.3956 29.7704 82.9066 28.1888C83.3631 26.7924 82.5817 26.6756 81.8816 26.6102C81.4141 26.5637 80.5783 27.353 80.5783 27.353M64.0169 22.7924C64.0169 23.558 64.6665 24.173 65.4717 24.173C66.2758 24.173 66.9225 23.558 66.9225 22.7924C66.9225 22.0299 66.2728 21.4109 65.4717 21.4109C64.6665 21.4109 64.0169 22.0299 64.0169 22.7924ZM15.3784 41.0741C15.7805 41.8713 18.597 42.6804 18.2256 40.2818C18.0711 39.3024 18.2296 37.5663 20.2756 31.446C20.3687 31.1677 22.3256 31.1212 22.6088 31.1677C26.2681 31.7709 25.46 28.7454 23.2159 28.7454L20.8371 28.7919C20.9292 27.5847 23.2625 19.2134 23.2625 19.2134C23.2625 19.2134 23.1238 15.6779 20.8361 18.328C16.8748 22.9192 10.7169 29.91 10.7169 29.91C9.03823 30.1417 7.59134 29.8169 6.38016 29.6783C5.44429 29.5693 3.88154 30.9429 6.38016 32.1888C6.56535 32.2819 8.75895 32.5136 8.75895 32.5136C8.75895 32.5136 4.28262 38.3705 3.81518 38.8419C3.34675 39.3073 2.13656 41.0008 3.20811 41.5811C3.87758 41.9446 5.11946 41.9575 5.21156 41.396C5.43637 40.0689 11.2665 32.8345 12.2529 32.1888L17.568 31.6312L16.0785 37.1177C14.5851 36.0491 13.1808 35.96 13.7453 36.9315C14.7713 38.7032 14.5386 37.3524 15.3784 41.0741ZM20.1369 22.3775C19.9121 23.3144 18.1285 29.0742 18.1285 29.0742L13.978 29.5396L20.133 22.3785L20.1369 22.3775ZM45.4134 28.9821C46.578 27.446 46.1759 29.0167 45.6916 29.91C44.5735 31.9877 44.2992 32.2274 43.5446 33.0276C43.498 33.0741 44.4537 30.2428 45.4134 28.9771M78.5204 30.5131C77.8083 32.3591 74.6511 35.9144 74.5551 36.0026C73.6192 36.885 73.6687 36.0026 73.6687 36.0026C75.0225 30.7964 78.2381 29.7704 78.2381 29.7704C78.9383 29.4931 78.7531 29.91 78.5154 30.5131M111.205 37.9763C110.319 38.208 107.163 38.0763 106.307 37.5109C106.025 37.3227 105.747 36.8117 106.211 36.162C106.837 35.2905 108.543 34.9508 108.543 34.9508C108.543 34.9508 107.101 34.0219 103.928 35.5549C101.232 36.8622 103.062 39.3578 104.022 39.7906C106.273 40.8008 112.261 41.3999 116.288 38.115C119.364 35.6045 120.071 32.6216 116.334 29.5545C115.41 28.7998 110.339 24.8078 114.981 22.6261C117.759 21.3188 120.575 21.7863 120.575 21.7863C120.575 21.7863 120.756 24.3205 122.907 23.4183C125.158 22.4706 124.865 20.6256 122.443 19.9294C120.397 19.3411 115.592 18.9816 112.462 21.508C112.462 21.508 108.269 24.1621 110.597 27.7441C112.969 31.3886 120.018 35.6629 111.205 37.9763ZM136.756 36.6067C136.756 35.1172 139.929 30.7924 140.254 30.0496C140.254 30.0496 141.762 28.1383 138.95 28.8385C138.645 28.9117 138.199 25.7664 134.428 27.5807L127.852 27.9066C127.852 27.9066 130.974 22.4666 131.534 21.7209C132.079 21.0009 131.441 20.8345 131.441 20.8345C130.509 20.8345 129.17 20.4939 128.691 20.792C127.851 21.303 125.101 27.8095 125.101 27.8095C125.101 27.8095 120.706 28.1769 120.11 28.274C119.875 28.2967 117.329 28.8583 118.899 30.831C120.896 33.3495 120.672 30.831 120.718 30.7845C120.767 30.7379 120.767 30.5983 121.279 30.6458C121.789 30.6914 123.607 30.5062 123.607 30.5062L120.815 37.1593C120.815 37.1593 120.393 35.9956 120.021 35.7629C119.65 35.5272 119.79 36.1343 119.928 37.3871C119.991 37.9525 119.461 42.0882 122.075 40.2274C122.274 40.0808 123.496 38.5438 123.983 36.6453C124.358 35.2024 126.877 30.4131 126.877 30.4131L130.56 29.9952C130.56 29.9952 124.358 36.4591 126.594 38.7805C129.31 41.6089 133.403 37.1563 133.403 37.1563C133.403 37.1563 132.799 39.5777 134.195 39.8055C137.125 40.2927 141.221 35.2757 143.244 32.4126C143.244 32.4126 141.859 38.4556 143.708 39.0162C145.326 39.5074 151.763 31.0588 151.589 31.4341C150.239 34.316 149.348 38.3665 149.348 39.3875C149.348 40.1996 149.766 40.877 150.373 41.1058C151.36 41.4881 152.049 37.3881 152.707 35.3876C153.356 33.3871 154.895 30.1804 155.081 28.3631C155.132 27.8877 153.925 25.0781 149.484 30.9697C149.345 31.1559 147.763 32.7345 146.459 33.8516C145.263 34.8696 145.244 34.6874 145.476 34.317C145.708 33.9446 146.923 30.5062 147.294 29.2019C148.242 25.8873 145.77 26.7181 144.173 28.3166C144.173 28.3166 143.012 29.4228 142.026 30.9657C139.322 35.1984 136.752 36.7344 136.752 36.5987M163.612 27.6778C161.817 24.994 157.035 30.0031 157.035 30.0031C153.945 33.5584 152.606 37.287 154.006 39.3063C156.106 42.3318 160.088 37.7594 160.258 37.2603C160.072 37.8139 160.246 43.2568 165.762 38.0882C165.762 38.0882 167.298 41.3375 170.559 38.9468C172.869 37.2563 172.8 36.3284 172.8 36.3284C172.8 36.3284 172.854 37.6396 172.908 38.4279C172.982 39.438 172.699 41.2523 176.107 38.7032C176.296 38.5596 180.262 34.6527 180.819 33.5386C180.819 33.5386 179.093 39.3529 179.33 39.8639C179.562 40.3789 181.12 40.0263 181.287 39.6361C183.337 34.6527 184.97 32.3274 184.97 32.3274C184.97 32.3274 187.101 28.4978 190.615 29.8635C190.615 29.8635 190.374 27.4688 187.535 28.0492C187.531 28.0492 186.583 28.2353 185.995 28.7493C185.623 29.0742 185.995 28.3314 185.995 27.45C185.995 26.5686 184.501 26.7994 183.991 26.9845C183.588 27.1281 181.333 30.0992 181.333 30.0992C180.386 31.3965 178.242 34.3933 176.15 36.0689C175.383 36.6829 174.932 37.3494 175.361 35.032C175.67 33.3534 177.638 29.5079 177.461 28.8919C177.368 28.5681 177.082 28.4483 176.431 28.7067C176.2 28.7998 175.732 29.1712 176.057 27.6352C176.386 26.1002 174.007 26.7073 173.496 26.8924C172.509 27.2519 171.069 28.2888 171.069 28.2888C169.047 29.6585 166.25 33.4386 165.755 34.7538C165.755 34.7538 165.345 36.1888 165.039 36.4175C161.217 39.2529 164.076 32.1967 164.076 32.1967C166.131 26.7073 170.324 21.5931 170.649 20.2889C170.977 18.9856 169.109 19.1747 168.737 19.1747C168.366 19.1747 163.612 27.6857 163.612 27.6857M197.605 37.0781C196.219 37.8327 195.848 38.312 196.854 35.0776C197.743 32.2393 200.401 26.0061 202.92 21.9645C202.92 21.9645 203.477 21.0316 204.32 20.1958C204.788 19.7283 205.531 19.5422 203.898 18.8459C202.154 18.0992 202.126 19.1708 200.262 22.3359C198.394 25.4961 197.933 26.7994 197.933 26.7994C197.933 26.7994 197.682 28.0175 196.799 26.7607C196.382 26.1695 194.904 26.115 193.187 27.446C193.187 27.446 190.471 29.0504 188.416 34.007C185.968 39.9213 190.707 42.2041 193.268 38.521C194.688 36.4829 194.339 38.521 194.339 38.521C194.339 38.521 194.425 41.6089 196.44 39.6817C196.44 39.6817 198.119 38.4329 199.005 37.7782L199.797 37.1286C199.797 37.1286 201.45 36.0531 199.705 36.3819C197.98 36.7067 197.609 37.0781 197.609 37.0781M129.341 35.0905C130.351 32.781 132.853 30.7726 134.564 29.8367C136.733 28.6414 134.737 31.8946 134.749 31.8788C134.049 33.0395 132.636 34.9429 131.205 35.8332C128.733 37.3682 128.687 36.576 129.341 35.0905ZM159.039 36.0115C157.48 38.1882 155.867 37.3603 156.289 35.8718C156.567 34.8924 158.505 31.6352 160.394 30.0576C161.839 28.8464 162.629 29.5 161.562 31.6817C161.562 31.6817 161.218 32.9702 159.039 36.0115ZM172.893 30.3359C172.8 30.6607 171.07 33.2177 171.07 33.2177C171.07 33.2177 171.825 33.5148 171.913 33.7288C172.343 34.7924 170.525 36.2501 170.03 36.6146C167.856 38.0803 167.728 35.9719 168.351 34.8389C169.426 32.885 171.063 31.0786 172.285 30.2933C173.078 29.7783 172.985 30.011 172.893 30.3398M195.275 31.1747C195.117 31.7986 194.525 34.4745 192.676 36.3205C189.605 39.3836 190.177 35.8451 190.177 35.8451C190.73 33.4812 192.3 31.2559 193.295 30.2467C195.395 28.1036 195.508 30.2467 195.271 31.1747" fill="#0067B0"/>
<path d="M24.9956 7.52347C24.9956 8.15333 24.7628 8.60591 24.2914 8.88519C23.9973 9.06345 23.5952 9.15258 23.0921 9.15258H21.0104V3.81268H22.9683C23.5219 3.81268 23.9547 3.93152 24.2756 4.17613C24.6361 4.44649 24.8104 4.84956 24.8104 5.38632C24.8104 5.77355 24.6816 6.09442 24.4311 6.342C24.8054 6.59355 24.9956 6.98473 24.9956 7.51852V7.52347ZM23.7418 5.39524C23.7418 5.17835 23.6685 5.02881 23.514 4.94661C23.409 4.88521 23.2318 4.85352 22.9872 4.85352H22.1097V5.9726H22.9881C23.2278 5.9726 23.4011 5.93695 23.513 5.87159C23.6685 5.78642 23.7418 5.62797 23.7418 5.39623V5.39524ZM23.9042 7.53041C23.9042 7.28678 23.823 7.11644 23.6606 7.02434C23.5368 6.96591 23.3476 6.93125 23.0921 6.93125H22.1097V8.11966H23.0921C23.3556 8.11966 23.5408 8.08797 23.6606 8.0226C23.823 7.93347 23.9042 7.77106 23.9042 7.53041ZM31.9081 6.95007C31.9081 8.45934 31.2317 9.21398 29.866 9.21398C28.5043 9.21398 27.819 8.45934 27.819 6.95007V3.81367H28.9104V6.88867C28.9104 7.29074 28.9688 7.58884 29.0807 7.77799C29.2273 8.02954 29.4867 8.15432 29.8621 8.15432C30.2374 8.15432 30.5157 8.02954 30.6544 7.78591C30.7633 7.60765 30.8178 7.30659 30.8178 6.88867V3.81268H31.9081V6.95007ZM36.1329 9.15555H35.0376V3.81367H36.1329V9.15555ZM42.6899 9.15555H39.3436V3.81367H40.431V8.09589H42.6939V9.15159L42.6899 9.15555ZM48.8251 4.89215H47.3247V9.15555H46.2334V4.89215H44.733V3.81268H48.8251V4.89215ZM59.9466 4.89215H58.4512V9.15555H57.3549V4.89215H55.8575V3.81268H59.9466V4.89215ZM66.8641 6.48659C66.8641 7.27193 66.6898 7.90277 66.3491 8.3821C65.9589 8.93867 65.3825 9.21398 64.6279 9.21398C63.8782 9.21398 63.3008 8.93471 62.9106 8.3821C62.566 7.90178 62.3957 7.26797 62.3957 6.48659C62.3957 5.70125 62.566 5.06644 62.9106 4.58712C63.3018 4.03352 63.8782 3.75524 64.6279 3.75524C65.3825 3.75524 65.9589 4.03352 66.3501 4.58712C66.6898 5.06644 66.8641 5.70125 66.8641 6.48659ZM65.7618 6.48659C65.7618 5.38335 65.3865 4.83074 64.6328 4.83074C63.8782 4.83074 63.5029 5.38335 63.5029 6.48659C63.5029 7.58587 63.8782 8.13847 64.6319 8.13847C65.3865 8.13847 65.7608 7.58487 65.7608 6.48659H65.7618ZM78.8056 9.15555H77.6211L77.1378 7.81661H75.4008L74.9215 9.15555H73.745L75.793 3.81367H76.7407L78.8066 9.15159L78.8056 9.15555ZM76.7853 6.85797L76.2673 5.42594L75.7573 6.85797H76.7853ZM90.0083 9.15555H88.9179V6.92729H87.0155V9.15555H85.9202V3.81367H87.0155V5.89437H88.9189V3.81268H90.0093L90.0083 9.15555ZM94.3143 9.15555H93.219V3.81367H94.3143V9.15555ZM101.455 9.15555H100.539V8.76536C100.426 8.91612 100.279 9.03796 100.11 9.12089C99.9622 9.18229 99.7572 9.21398 99.4898 9.21398C98.751 9.21398 98.1865 8.93471 97.7993 8.37417C97.4626 7.89089 97.2932 7.25608 97.2932 6.48263C97.2932 5.70521 97.4635 5.07041 97.8082 4.58316C98.2023 4.02956 98.7708 3.75128 99.5215 3.75128C99.9315 3.75128 100.287 3.84041 100.581 4.01074C100.837 4.15731 101.099 4.41282 101.37 4.76835L100.605 5.46456C100.476 5.28775 100.322 5.13034 100.148 4.99712C99.9586 4.88131 99.7397 4.8222 99.5175 4.82678C98.7629 4.82678 98.3885 5.38038 98.3885 6.48263C98.3885 7.58487 98.7668 8.13451 99.5254 8.13451C99.8116 8.13451 100.028 8.02954 100.175 7.82058C100.311 7.63142 100.376 7.3878 100.376 7.09367H99.4284V6.1578H101.456L101.455 9.15555ZM108.609 9.15555H107.513V6.92729H105.61V9.15555H104.52V3.81367H105.61V5.89437H107.513V3.81268H108.609V9.15555ZM115.479 9.15555H111.819V3.81367H115.479V4.89314H112.91V5.89437H115.15V6.92729H112.91V8.07608H115.479V9.15555ZM122.79 9.15555H121.522L120.45 7.36403C120.365 7.21746 120.287 7.11644 120.223 7.07386C120.156 7.0283 120.047 7.00454 119.893 7.00454H119.625V9.15951H118.535V3.81268H120.493C121.045 3.81268 121.479 3.94142 121.808 4.20386C122.168 4.49106 122.346 4.90007 122.346 5.43386C122.346 5.76661 122.253 6.06074 122.074 6.31526C121.896 6.57757 121.639 6.77579 121.34 6.88074L122.794 9.15555H122.79ZM121.247 5.44178C121.247 5.05852 120.999 4.86937 120.496 4.86937H119.61V6.03797H120.496C120.999 6.03797 121.247 5.8399 121.247 5.44178ZM133.835 7.51951C133.835 8.04142 133.627 8.46727 133.212 8.78715C132.83 9.08227 132.369 9.2328 131.827 9.2328C130.671 9.2328 129.951 8.69108 129.672 7.60864L130.705 7.39968C130.852 7.92456 131.223 8.18799 131.827 8.18799C132.059 8.18799 132.26 8.13451 132.431 8.02558C132.635 7.89881 132.736 7.72847 132.736 7.5106C132.736 7.26301 132.489 7.07089 131.99 6.93917C131.2 6.72625 130.732 6.57869 130.593 6.50144C130.09 6.24297 129.843 5.83297 129.843 5.28333C129.843 4.79608 130.036 4.40886 130.415 4.13058C130.764 3.87507 131.185 3.74731 131.688 3.74731C132.187 3.74731 132.582 3.84041 132.895 4.03451C133.212 4.2306 133.471 4.53958 133.68 4.96939L132.739 5.40712C132.613 5.17934 132.469 5.01198 132.311 4.91195C132.152 4.8149 131.947 4.76142 131.684 4.76142C131.505 4.76142 131.344 4.80004 131.204 4.87729C131.026 4.97335 130.937 5.10903 130.937 5.28333C130.937 5.48833 131.185 5.65471 131.684 5.78642C132.412 5.97558 132.879 6.13007 133.08 6.24693C133.583 6.52917 133.831 6.95007 133.831 7.50763L133.835 7.51951ZM140.334 4.89215H138.833V9.15555H137.743V4.89215H136.241V3.81268H140.334V4.89215ZM147.154 9.15555H145.966L145.487 7.81661H143.75L143.271 9.15555H142.09L144.14 3.81367H145.088L147.154 9.15555ZM145.134 6.85797L144.617 5.42594L144.102 6.85797H145.134ZM153.753 9.15555H152.876L150.922 6.11125V9.15555H149.832V3.81367H150.721L152.659 6.85797V3.81268H153.753V9.15555ZM161.019 6.48659C161.019 7.51555 160.852 8.21176 160.519 8.57125C160.168 8.96244 159.487 9.15555 158.473 9.15555H156.965V3.81367H158.473C159.487 3.81367 160.172 4.00183 160.519 4.38608C160.852 4.75251 161.019 5.44971 161.019 6.48263V6.48659ZM159.924 6.85004V6.11521C159.924 5.61608 159.851 5.28729 159.696 5.12884C159.545 4.97038 159.216 4.89215 158.717 4.89215H158.059V8.07608H158.717C159.212 8.07608 159.537 7.99487 159.692 7.83642C159.851 7.67797 159.924 7.35314 159.924 6.85004ZM168.365 9.15555H167.177L166.698 7.81661H164.961L164.482 9.15555H163.305L165.351 3.81367H166.299L168.365 9.15555ZM166.346 6.85797L165.828 5.42594L165.313 6.85797H166.346ZM175.301 9.15555H174.033L172.961 7.36403C172.872 7.21746 172.799 7.11644 172.733 7.07386C172.667 7.0283 172.555 7.00454 172.4 7.00454H172.133V9.15951H171.043V3.81268H173C173.549 3.81268 173.986 3.94142 174.315 4.20386C174.674 4.49106 174.85 4.90007 174.85 5.43386C174.855 5.74969 174.762 6.05937 174.582 6.31904C174.402 6.57872 174.145 6.77523 173.847 6.88074L175.301 9.15555ZM173.754 5.44178C173.754 5.05852 173.503 4.86937 173.008 4.86937H172.117V6.03797H173.008C173.507 6.03797 173.754 5.8399 173.754 5.44178ZM182.048 6.48659C182.048 7.51555 181.882 8.21176 181.549 8.57125C181.197 8.96244 180.516 9.15555 179.502 9.15555H177.994V3.81367H179.502C180.516 3.81367 181.201 4.00183 181.549 4.38608C181.882 4.75251 182.048 5.44971 182.048 6.48263V6.48659ZM180.953 6.85004V6.11521C180.953 5.61608 180.876 5.28729 180.725 5.12884C180.571 4.97038 180.245 4.89215 179.747 4.89215H179.088V8.07608H179.747C180.242 8.07608 180.567 7.99487 180.721 7.83642C180.876 7.67797 180.953 7.35314 180.953 6.85004ZM183.99 4.49007C183.991 4.56164 183.977 4.63255 183.949 4.69845C183.921 4.76435 183.88 4.82386 183.828 4.87333C183.778 4.92497 183.718 4.96571 183.651 4.99297C183.584 5.02024 183.513 5.03345 183.441 5.03178C183.369 5.03338 183.298 5.02012 183.232 4.99284C183.166 4.96556 183.107 4.92487 183.057 4.87333C183.005 4.82438 182.964 4.76497 182.936 4.69895C182.908 4.63293 182.894 4.56176 182.895 4.49007C182.895 4.33954 182.95 4.21178 183.057 4.10384C183.107 4.05296 183.167 4.0127 183.233 3.98547C183.299 3.95824 183.369 3.94461 183.441 3.94538C183.591 3.94538 183.719 3.99886 183.827 4.10384C183.932 4.21178 183.99 4.33954 183.99 4.49007ZM183.867 4.49007C183.867 4.4347 183.857 4.37974 183.836 4.32862C183.814 4.27751 183.783 4.23133 183.743 4.19297C183.704 4.15301 183.658 4.12134 183.607 4.09989C183.555 4.07843 183.5 4.06765 183.445 4.06818C183.389 4.06765 183.335 4.07835 183.283 4.09963C183.232 4.12091 183.186 4.15232 183.148 4.19198C183.108 4.23058 183.076 4.27693 183.055 4.32818C183.033 4.37943 183.022 4.43451 183.023 4.49007C183.023 4.54533 183.034 4.60007 183.055 4.65108C183.076 4.70209 183.107 4.74835 183.147 4.78717C183.185 4.827 183.231 4.8586 183.282 4.88005C183.333 4.9015 183.388 4.91236 183.444 4.91195C183.499 4.91275 183.555 4.90219 183.606 4.8809C183.657 4.85962 183.704 4.82806 183.743 4.78816C183.782 4.74934 183.813 4.70308 183.835 4.65207C183.856 4.60106 183.867 4.54533 183.867 4.49007ZM183.723 4.79608H183.572L183.441 4.58316C183.433 4.56731 183.418 4.55642 183.406 4.55642H183.366V4.79608H183.236V4.18108H183.461C183.508 4.17965 183.556 4.18984 183.599 4.21079C183.65 4.24248 183.676 4.29695 183.676 4.37024C183.676 4.45541 183.642 4.50888 183.568 4.54058L183.723 4.79608ZM183.545 4.37024C183.545 4.34746 183.542 4.33062 183.526 4.32369C183.514 4.31577 183.495 4.31181 183.461 4.31181H183.367V4.42867H183.461C183.49 4.42867 183.514 4.42471 183.526 4.41678C183.542 4.40886 183.545 4.39301 183.545 4.37024Z" fill="#C0BDBD"/>
</g>
<defs>
<clipPath id="clip0_2964_17139">
<rect width="205" height="52" fill="white" transform="translate(2.5 3.5)"/>
</clipPath>
</defs>
</svg>
