<svg width="74" height="57" viewBox="0 0 74 57" fill="none" xmlns="http://www.w3.org/2000/svg">
<g clip-path="url(#clip0_2848_35819)">
<path d="M28.0864 6.13867H7.65991V16.3519H17.8732L17.2348 19.5436H28.0864V6.13867Z" fill="white"/>
<mask id="mask0_2848_35819" style="mask-type:luminance" maskUnits="userSpaceOnUse" x="0" y="5" width="74" height="47">
<path d="M73.7968 5.5H0V51.5H73.7968V5.5Z" fill="white"/>
</mask>
<g mask="url(#mask0_2848_35819)">
<path d="M26.6352 30.4199C26.3756 31.479 25.9519 32.4766 25.4463 33.4401C24.5853 35.0936 23.4237 36.5218 22.0913 37.8132C21.3533 38.5238 20.588 39.1866 19.7544 39.7743C18.1281 40.9222 16.3515 41.749 14.3973 42.1727C13.6525 42.3298 12.9077 42.446 12.1424 42.4802C11.664 42.5007 11.1789 42.5075 10.6938 42.5075C7.63255 42.5075 4.57819 42.5075 1.51699 42.5075H1.27783V33.563C1.312 33.563 1.35983 33.563 1.40766 33.563C4.19554 33.563 6.98342 33.563 9.7713 33.563C10.1539 33.563 10.5434 33.5767 10.9261 33.563C12.4088 33.4947 13.7823 33.0916 14.9781 32.1691C15.675 31.6293 16.29 31.0143 16.7957 30.29C16.8025 30.2764 16.8093 30.2695 16.8162 30.2559H26.5806H26.6626C26.6557 30.3037 26.6489 30.3652 26.6352 30.4199Z" fill="white"/>
<path d="M8.979 8.04883V14.5334H19.3106V18.722H25.8088V14.5334V12.8456V8.04883H8.979Z" fill="#CE202F"/>
<path d="M29.1635 42.4595H72.0681C72.0545 42.4048 72.0408 42.357 72.034 42.3091C71.7128 41.1202 71.337 39.9517 70.9339 38.7901C70.1686 36.624 69.2734 34.5126 68.1938 32.4764C67.244 30.6861 66.0961 29.0394 64.668 27.5976C63.438 26.354 62.1124 25.2334 60.6706 24.2358C60.6228 24.2016 60.5818 24.1674 60.5272 24.1333C60.5682 24.0991 60.5955 24.0786 60.616 24.0581C61.6478 23.2586 62.5976 22.3703 63.4927 21.4205C65.0643 19.7601 66.3626 17.9152 67.3875 15.8721C68.8225 13.0022 69.9089 9.9957 70.763 6.90717C70.7767 6.86617 70.7767 6.82518 70.7904 6.77734H29.1704V20.0129H18.1077V28.9984H29.1704V42.4526L29.1635 42.4595ZM58.1493 33.556C58.1493 33.556 58.1424 33.5833 58.1356 33.5902C51.9859 33.6038 45.8361 33.6175 39.6796 33.6243H39.0373C38.8254 33.6243 38.6136 33.6243 38.4018 33.6243V29.0394H39.6796C42.1258 29.0394 44.572 29.0394 47.0251 29.0394C48.5898 29.0394 50.1341 29.2444 51.651 29.6475C52.8468 29.9687 53.9606 30.488 55.0129 31.1166C56.0788 31.7589 57.0696 32.5106 57.9716 33.3647C58.0331 33.4193 58.0878 33.4809 58.1424 33.5423M38.3813 15.797H39.5771C40.9573 15.797 42.3376 15.7901 43.7247 15.7901C47.9885 15.7901 52.2523 15.7833 56.5162 15.7765H56.728C56.728 15.7765 56.7348 15.797 56.7416 15.8106C56.7007 15.8584 56.6597 15.9063 56.6118 15.9473C55.7304 16.8151 54.7259 17.5189 53.6463 18.1202C52.3002 18.865 50.8584 19.3638 49.3483 19.6713C48.583 19.8284 47.804 19.9378 47.0251 19.9924C46.9157 19.9993 46.8064 19.9993 46.6971 19.9993C44.3397 19.9993 41.9823 19.9993 39.6317 19.9993H38.3881V15.797H38.3813Z" fill="white"/>
<path d="M18.2235 30.1465C18.2235 30.1465 18.203 30.3173 18.1894 30.3446C17.1781 31.9982 15.8251 33.276 14.0554 34.0891C13.2901 34.4445 12.4701 34.6221 11.6365 34.7314C11.124 34.7998 10.6115 34.8134 10.099 34.8134C9.14241 34.8134 8.17896 34.8134 7.22233 34.8134C5.69856 34.8134 4.16796 34.8271 2.6442 34.8339H2.43237V41.2433H2.63053C4.44129 41.2433 6.25204 41.2433 8.06279 41.2502C8.95792 41.2502 9.84622 41.2638 10.7413 41.257C13.1466 41.257 15.422 40.7035 17.5607 39.6034C18.6062 39.0636 19.5423 38.3666 20.4238 37.5877C21.2984 36.8155 22.1115 35.9819 22.8222 35.0526C23.8813 33.6587 24.6466 32.1144 25.1795 30.454C25.2 30.3993 25.2274 30.2216 25.2479 30.1396H18.2235V30.1465Z" fill="#CE202F"/>
<path d="M70.4827 41.2575C70.4622 41.1824 70.4485 41.1209 70.428 41.0594C70.1957 40.3351 69.977 39.6108 69.7242 38.8933C68.9384 36.6589 67.9886 34.4997 66.7997 32.4497C66.1095 31.2608 65.3442 30.1333 64.4218 29.1084C62.7135 27.2088 60.7388 25.6372 58.5454 24.3321C58.4975 24.3048 58.4497 24.2706 58.395 24.2364C58.436 24.2023 58.4634 24.1749 58.4975 24.1544C59.5908 23.3755 60.6226 22.5282 61.6134 21.6262C63.3353 20.0615 64.7566 18.2712 65.8704 16.2213C67.2028 13.7751 68.2414 11.2127 69.0409 8.54779C69.0887 8.37696 69.1366 8.1993 69.1844 8.02848C68.9042 7.98748 30.6051 7.98065 30.4479 8.02848V21.2436H19.3306V27.7418H30.4547V41.2644H70.4827V41.2575ZM60.3766 34.4587C60.4381 34.5475 60.4928 34.6432 60.5543 34.732C60.5611 34.7456 60.5679 34.7661 60.5884 34.814C52.7099 34.8003 44.8588 34.7935 37.0008 34.7866V27.7281C37.0828 27.7281 37.1443 27.7213 37.2126 27.7213L45.7539 27.7076C46.2391 27.7076 46.7174 27.7076 47.2025 27.7076C47.92 27.7145 48.6375 27.7896 49.3481 27.8921C50.4482 28.0493 51.5278 28.3089 52.5733 28.6711C54.4387 29.3202 56.1128 30.311 57.6366 31.5546C58.682 32.4019 59.6113 33.3654 60.3834 34.4723M36.994 14.5199C44.4146 14.5199 51.8148 14.554 59.2628 14.554C59.2082 14.636 59.174 14.6975 59.133 14.7522C58.6342 15.4423 58.0739 16.0778 57.4657 16.6791C55.532 18.606 53.2156 19.877 50.6054 20.6354C49.7034 20.8951 48.7946 21.0796 47.8585 21.1684C47.469 21.2026 47.0727 21.2162 46.6832 21.2162C43.5332 21.2162 40.3831 21.2162 37.24 21.2162H36.994V14.513V14.5199Z" fill="#CE202F"/>
<path d="M56.7212 15.7705H56.5094C52.2456 15.7705 47.9818 15.7773 43.7111 15.7842C42.3308 15.7842 40.9506 15.7842 39.5703 15.791H38.3745V19.9933H39.6181C41.9755 19.9933 44.3329 19.9933 46.6835 19.9933C46.7928 19.9933 46.9021 19.9933 47.0115 19.9865C47.7904 19.9318 48.5694 19.8225 49.3347 19.6653C50.8448 19.3579 52.2797 18.859 53.6327 18.1142C54.7123 17.5198 55.7168 16.816 56.5982 15.9413C56.646 15.8935 56.687 15.8525 56.728 15.8047C56.728 15.791 56.7212 15.7773 56.7144 15.7705M51.7263 17.6291C50.6261 18.0732 49.485 18.4081 48.3166 18.6199C47.6059 18.7429 46.8953 18.7975 46.1778 18.7839C45.5765 18.7702 44.9752 18.777 44.3671 18.7702C42.8433 18.7702 41.3127 18.7702 39.7889 18.7702H39.625V17.0346H52.9904L53.004 17.0825C52.5804 17.2669 52.1567 17.4583 51.7263 17.6291Z" fill="black"/>
<path d="M58.1493 33.5568C58.0947 33.5021 58.0332 33.4406 57.9785 33.386C57.0765 32.525 56.0858 31.7802 55.0198 31.1379C53.9607 30.5024 52.8469 29.9899 51.6579 29.6688C50.141 29.2588 48.5968 29.0607 47.032 29.0538C44.5858 29.047 42.1395 29.0538 39.6865 29.0538H38.4087V33.6388C38.6205 33.6388 38.8323 33.6388 39.051 33.6388H39.6933C45.843 33.6251 51.9996 33.6115 58.1493 33.5978C58.1493 33.5841 58.1562 33.5705 58.163 33.5568M39.6796 32.3747V30.2838H39.8983C39.8983 30.2838 44.4491 30.2838 46.7245 30.2838C47.073 30.2838 47.4215 30.2701 47.77 30.2838C48.1936 30.3043 48.6241 30.3453 49.0477 30.3931C49.6422 30.4683 50.2367 30.5639 50.8243 30.7142C52.0816 31.0422 53.2637 31.541 54.3638 32.2312C54.4253 32.2653 54.48 32.3063 54.5278 32.3747H39.6796Z" fill="black"/>
<path d="M73.7695 43.5805C73.585 42.9245 73.4073 42.2686 73.2092 41.6194C72.2935 38.6061 71.1797 35.6679 69.7653 32.8458C69.2597 31.8414 68.7267 30.8437 68.0844 29.9144C66.6973 27.8987 65.0163 26.1494 63.1509 24.571C62.9596 24.407 62.7614 24.2499 62.5633 24.0859C62.6043 24.0517 62.6248 24.0244 62.6521 24.0039C63.6976 23.0882 64.661 22.0906 65.563 21.0315C66.3761 20.0749 67.1209 19.0636 67.7564 17.9771C68.4124 16.8497 68.9658 15.6744 69.4783 14.4786C70.5989 11.8889 71.5009 9.21717 72.2662 6.50446C72.355 6.19014 72.437 5.87582 72.5122 5.57517L72.4507 5.50684C71.8289 5.50684 29.1566 5.53417 29.1566 5.53417H6.57339V17.082H16.8298V26.9967C16.7136 27.8714 16.4266 28.6845 15.9141 29.4088C15.5657 29.9076 15.1557 30.3449 14.7115 30.7549C14.2332 31.1922 13.6797 31.5065 13.0989 31.773C12.2858 32.142 11.4385 32.3402 10.5434 32.3402C7.45485 32.3402 4.36632 32.3402 1.27778 32.3402H0.0136719H0.0205049V43.7445H1.28462C4.78996 43.7445 8.28848 43.7445 11.7938 43.7445C12.607 43.7445 13.4064 43.6693 14.1991 43.5122C15.716 43.2184 17.1578 42.6991 18.5244 41.9816C20.0276 41.1958 21.3737 40.205 22.6174 39.0502C24.0865 37.6904 25.3301 36.153 26.314 34.4174C26.601 33.9118 26.8675 33.3925 27.0998 32.8595C27.4415 32.06 27.7011 31.2401 27.8993 30.4064V43.7308H73.7968C73.7831 43.6762 73.7763 43.6283 73.7695 43.5805ZM7.8375 15.7701V6.79145H27.093V18.7151H18.0939V15.7632H7.8375V15.7701ZM26.6352 30.4201C26.3755 31.4792 25.9519 32.4768 25.4462 33.4403C24.5853 35.0939 23.4237 36.522 22.0912 37.8134C21.3601 38.5241 20.5879 39.1869 19.7543 39.7745C18.128 40.9225 16.3515 41.7493 14.3972 42.1729C13.6524 42.3301 12.9076 42.4462 12.1423 42.4804C11.6572 42.5009 11.1789 42.5077 10.6937 42.5077C7.63251 42.5077 4.57814 42.5077 1.51694 42.5077H1.27778V33.5769C1.31195 33.5769 1.35978 33.5633 1.40761 33.5633C4.19549 33.5633 6.98337 33.5633 9.77125 33.5633C10.1539 33.5633 10.5434 33.5769 10.926 33.5633C12.4088 33.495 13.7822 33.0918 14.978 32.1693C15.675 31.6295 16.29 31.0146 16.7956 30.2903C16.8024 30.2766 16.8093 30.2698 16.8161 30.2561H26.5805H26.6625C26.6557 30.3039 26.6488 30.3654 26.6352 30.4201ZM29.1634 42.4599V29.0056H18.1007V20.0202H29.1634V6.79145H70.7834C70.7766 6.83928 70.7698 6.88028 70.7561 6.92127C69.902 10.0098 68.8155 13.0163 67.3806 15.8862C66.3556 17.9293 65.0573 19.7742 63.4857 21.4346C62.5906 22.3844 61.6408 23.2727 60.609 24.0722C60.5885 24.0927 60.5612 24.1064 60.5202 24.1405C60.5749 24.1815 60.6159 24.2157 60.6637 24.243C62.1055 25.2338 63.4311 26.3613 64.661 27.6049C66.0891 29.0466 67.2371 30.6934 68.1869 32.4837C69.2665 34.5131 70.1616 36.6313 70.9269 38.7974C71.3369 39.959 71.7127 41.1275 72.027 42.3164C72.0407 42.3642 72.0544 42.4121 72.0612 42.4667H29.1566L29.1634 42.4599Z" fill="black"/>
<path d="M8.57546 46.2793L6.56655 51.4929H5.74658L4.31165 47.8851L2.85621 51.4929H2.01575L0 46.2793H1.25728L2.58289 49.7778L3.96316 46.2793H4.81729L6.23173 49.7778L7.49584 46.2793H8.57546Z" fill="black"/>
<path d="M16.1469 51.4929H14.7803L14.1516 50.3518H10.8444L10.2363 51.4929H9.02002L11.9719 46.2725H13.1472L16.14 51.4929H16.1469ZM13.646 49.4157L12.5254 47.2906L11.3638 49.4157H13.6528H13.646Z" fill="black"/>
<path d="M24.0115 51.4929H22.2759L20.1714 49.5182H19.0166V51.4929H17.8208V46.2725H22.2896C23.0754 46.2725 23.4649 46.6073 23.4649 47.2838V48.5069C23.4649 49.0125 23.2599 49.3268 22.8567 49.4498C22.6996 49.4977 22.2828 49.5182 21.6063 49.5182L24.0115 51.4929ZM22.2964 48.2199V47.5912C22.2964 47.4136 22.2486 47.2974 22.1461 47.2496C22.0709 47.2018 21.9411 47.1813 21.7498 47.1813H19.0166V48.6367H21.7498C21.9411 48.6367 22.0709 48.6162 22.1461 48.5684C22.2486 48.5137 22.2964 48.3975 22.2964 48.2267" fill="black"/>
<path d="M32.129 51.4929H30.3865L28.282 49.5182H27.1272V51.4929H25.9314V46.2725H30.4002C31.186 46.2725 31.5755 46.6073 31.5755 47.2838V48.5069C31.5755 49.0125 31.3705 49.3268 30.9673 49.4498C30.8102 49.4977 30.3934 49.5182 29.7101 49.5182L32.1153 51.4929H32.129ZM30.407 48.2199V47.5912C30.407 47.4136 30.3592 47.2974 30.2567 47.2496C30.1815 47.2018 30.0517 47.1813 29.8604 47.1813H27.1272V48.6367H29.8604C30.0517 48.6367 30.1815 48.6162 30.2567 48.5684C30.3592 48.5137 30.407 48.3975 30.407 48.2267" fill="black"/>
<path d="M39.7882 51.4929H38.4216L37.793 50.3518H34.4858L33.8777 51.4929H32.6614L35.6132 46.2725H36.7885L39.7814 51.4929H39.7882ZM37.2942 49.4157L36.1736 47.2906L35.0119 49.4157H37.301H37.2942Z" fill="black"/>
<path d="M47.5987 51.4929H46.7719L42.9386 48.2677C42.7746 48.131 42.6311 47.9876 42.5013 47.8441C42.5354 48.1789 42.5491 48.4454 42.5491 48.6435V51.4929H41.4558V46.2725H42.2826L45.9519 49.3473C46.2116 49.5728 46.4166 49.7573 46.5464 49.9145C46.5123 49.4293 46.4986 49.1287 46.4986 49.0125V46.2725H47.5919V51.4929H47.5987Z" fill="black"/>
<path d="M55.0946 47.2086H52.6894V51.4929H51.4731V47.2086H49.0747V46.2793H55.0946V47.2086Z" fill="black"/>
<path d="M57.8005 46.2793H56.5842V51.4997H57.8005V46.2793Z" fill="black"/>
<path d="M65.8573 51.4929H60.4661V46.2793H65.8095V47.1676H61.6823V48.3292H64.0876V49.2175H61.6823V50.5158H65.8573V51.4929Z" fill="black"/>
<path d="M73.7695 50.263C73.7695 50.7481 73.6738 51.0761 73.4893 51.2469C73.298 51.4177 72.9564 51.4997 72.4712 51.4997H69.246C68.713 51.4997 68.3646 51.4041 68.1937 51.2196C68.0229 51.0283 67.9409 50.6661 67.9409 50.1263L69.0137 49.9008V50.5158H72.7035V49.32H69.4442C68.9522 49.32 68.6106 49.238 68.4261 49.0672C68.2416 48.8963 68.1459 48.5752 68.1459 48.0832V47.5092C68.1459 47.0241 68.2416 46.6961 68.4261 46.5321C68.6106 46.3613 68.9522 46.2793 69.4442 46.2793H72.4097C72.9085 46.2793 73.2502 46.3681 73.4347 46.539C73.6192 46.7098 73.708 47.0446 73.708 47.5366L72.6352 47.7894V47.1949H69.2187V48.3155H72.4781C72.97 48.3155 73.3117 48.3975 73.4962 48.5684C73.6875 48.7392 73.7763 49.0672 73.7763 49.5523V50.2698L73.7695 50.263Z" fill="black"/>
</g>
</g>
<defs>
<clipPath id="clip0_2848_35819">
<rect width="73.7968" height="57" fill="white"/>
</clipPath>
</defs>
</svg>
