<svg width="40" height="40" viewBox="0 0 40 40" fill="none" xmlns="http://www.w3.org/2000/svg">
<path d="M37.6796 15.9999C37.4363 14.361 36.8282 13.4217 35.7741 13.1618C33.5847 12.6222 32.2468 14.7408 31.8009 15.4403C30.9697 16.7794 30.1994 18.6182 29.3682 20.5569C28.8817 21.7161 28.3344 23.0352 27.7465 24.2544C27.1992 23.2351 26.6519 22.1158 26.0843 20.9366L26.064 20.9166C23.3071 15.2804 20.4691 9.44434 15.7255 9.44434H15.5837C14.2863 9.48431 13.151 10.1239 12.097 11.423C10.9212 10.0839 9.68465 9.44434 8.34672 9.44434C6.74527 9.44434 5.34654 10.8434 4.19106 13.6215C3.29912 15.7201 2.8126 17.9986 2.65043 18.858C2.28554 20.7368 2.14364 22.5156 2.26527 23.8547C2.42744 25.7534 3.05586 26.8326 4.25188 27.1525C4.49514 27.2124 4.73839 27.2524 4.96138 27.2524C6.74527 27.2524 7.81965 25.4536 8.2048 24.794C9.03596 23.415 9.78601 21.5162 10.5766 19.5375C10.7388 19.1378 10.8806 18.7581 11.0226 18.3583C11.2658 17.7388 11.4685 17.1591 11.7321 16.5795C11.7321 16.5596 11.7523 16.5396 11.7523 16.5196L11.7929 16.4197L11.7523 16.3397C11.3064 15.5003 10.9212 14.8807 10.5563 14.421L10.3536 14.1612L10.1914 14.441C10.1914 14.461 10.1712 14.481 10.1712 14.5009C9.66439 15.5602 9.21838 16.7194 8.73187 17.9386C8.61026 18.2584 8.48864 18.5782 8.34672 18.898V18.918C7.57642 20.8367 6.84663 22.6555 6.09658 23.9146C5.52898 24.874 5.10328 25.1937 4.94111 25.2537C4.75867 25.0139 4.39378 23.9946 4.61676 21.5162C4.83975 19.2777 5.46817 16.6395 6.27903 14.6009C7.27233 12.1225 8.1643 11.463 8.34672 11.423C9.01566 11.423 9.78601 11.9626 10.4549 12.922C10.8806 13.5216 11.6713 14.7008 11.9753 15.3004C12.5227 16.3797 13.2727 17.8587 13.7389 18.798C14.1241 19.5775 14.5903 20.5569 15.0363 21.4363C18.3406 27.812 21.0772 30.6501 23.9152 30.6501C23.9558 30.6501 23.9963 30.6501 24.0369 30.6501C25.1924 30.6101 26.1654 30.1704 27.0979 29.271L27.2195 29.1511L25.9424 27.2724L25.7599 27.4922C25.1112 28.2917 24.5639 28.6514 23.9558 28.6714H23.9355H23.9152C23.4693 28.6714 22.6989 28.4316 21.584 27.3124C20.2664 25.9732 18.7865 23.7147 17.1851 20.6368C16.7594 19.7974 16.3134 18.858 15.908 18.0385L15.8877 18.0186C15.0768 16.3197 14.3065 14.7008 13.4551 13.3217C14.5093 11.6828 15.2796 11.423 15.6445 11.423C18.8473 11.3431 21.6448 17.0792 23.8949 21.6761C24.0369 21.9759 24.1788 22.2757 24.3206 22.5755C25.0504 24.0945 25.7397 25.5335 26.51 26.7127C26.7735 27.1324 27.3208 27.9319 27.5844 28.3117C28.6588 29.7907 29.9156 30.5502 31.2738 30.5502C31.3346 30.5502 31.4157 30.5502 31.4968 30.5502C36.1187 30.2504 37.4363 21.3364 37.5782 20.3171C37.8012 18.6981 37.8417 17.1591 37.6796 15.9999ZM35.024 15.0806C35.1862 15.3404 35.4294 16.0999 35.4294 17.6388C35.4294 17.9386 35.4294 18.2984 35.3889 18.6581C35.247 20.8567 34.7199 23.315 33.9496 25.2337C32.9766 27.6521 31.9225 28.5515 31.3346 28.5915C31.0913 28.6115 30.3616 28.4516 29.1453 26.6528L29.1047 26.5928C30.0169 24.9939 30.8075 23.0952 31.5778 21.2564V21.2364C32.3684 19.3776 33.0982 17.6188 33.8483 16.3997C34.4362 15.4603 34.8416 15.1605 35.024 15.0806Z" fill="#03C2F3"/>
</svg>
