<?xml version="1.0" encoding="utf-8"?>
<!-- Generator: Adobe Illustrator 19.0.0, SVG Export Plug-In . SVG Version: 6.00 Build 0)  -->
<svg version="1.1" id="Layer_1" xmlns="http://www.w3.org/2000/svg" xmlns:xlink="http://www.w3.org/1999/xlink" x="0px" y="0px"
	 viewBox="-201 65 72 72" style="enable-background:new -201 65 72 72;" xml:space="preserve">
<style type="text/css">
	.st0{fill:#003358;}
	.st1{fill:#012135;}
</style>
<path class="st0" d="M-155.6,71h-6.5h-6.6l-4.5,28c-0.1,0-0.2,0-0.3,0c-9.9,1.3-17.6,9.7-17.5,19c0,3.9,1.4,7,3.8,9.5
	c2.2,2.3,5.1,3.5,8.1,3.5c1.2,0,2.3-0.2,3.5-0.6c5.4-1.8,7.1-6.3,8-10.4c0,0,0,0,0,0c0.2-4.6-2.2-9.1-6.9-11.8l-1.5,9.3
	c-0.5,2.6-1.1,4.2-2.4,4.7c-0.8,0.3-1.8,0-2.4-0.7c-0.8-0.9-1.3-1.9-1.4-3.6c0-4.7,3.6-8.3,7.7-9.8c1.3-0.5,2.6-0.7,4.1-0.7
	c1.5,0,3.1,0.3,4.5,0.8c5.5,1.3,8.8,7.1,9.6,13.4l0.5,3.5h9.1L-155.6,71z M-165,99.6l2.6-20h0.1h0.2l2.9,22.4
	C-161,100.9-162.9,100.1-165,99.6z"/>
<path class="st1" d="M-167.8,120c0.5-2,1.5-9.5,1.7-11.7c-1.4-0.5-3-0.8-4.5-0.8c-1.5,0-2.8,0.2-4.1,0.7
	C-170,110.9-167.6,115.4-167.8,120z"/>
</svg>
