<svg width="222" height="37" viewBox="0 0 222 37" fill="none" xmlns="http://www.w3.org/2000/svg">
<path d="M27.4606 0H9.31534C4.17061 0 0 4.17061 0 9.31534V27.4606C0 32.6054 4.17061 36.7759 9.31534 36.7759H27.4606C32.6054 36.7759 36.7759 32.6054 36.7759 27.4606V9.31534C36.7759 4.17061 32.6054 0 27.4606 0Z" fill="white"/>
<path d="M12.2526 27.1535H8.15208C7.93001 27.1529 7.7172 27.0645 7.56035 26.9072C7.4035 26.75 7.31543 26.5371 7.31543 26.315V20.0005C7.31493 19.8277 7.24596 19.6622 7.12358 19.5401C7.00121 19.4182 6.83546 19.3496 6.66265 19.3496C6.49016 19.3502 6.32488 19.4187 6.2029 19.5408C6.08093 19.6628 6.0122 19.8281 6.01172 20.0005V26.315C6.0122 26.8824 6.23785 27.4265 6.63915 27.8279C7.04043 28.2292 7.58457 28.4548 8.15208 28.4553H12.2526V27.1535Z" fill="black"/>
<path d="M30.1082 16.2366H29.3726V17.5403H29.4664V26.3151C29.4659 26.5374 29.3774 26.7503 29.2202 26.9075C29.0632 27.0646 28.8502 27.153 28.6279 27.1536H24.5127V28.4554H28.6279C29.1954 28.4549 29.7395 28.2293 30.1409 27.828C30.5421 27.4266 30.7677 26.8825 30.7683 26.3151V16.8876C30.7683 16.8013 30.7512 16.7159 30.7179 16.6363C30.6846 16.5568 30.6359 16.4846 30.5745 16.424C30.5131 16.3634 30.4401 16.3157 30.3601 16.2835C30.2801 16.2514 30.1944 16.2354 30.1082 16.2366Z" fill="black"/>
<path d="M18.3397 22.1171C17.8511 22.1179 17.3673 22.0224 16.9157 21.8358C16.4642 21.6494 16.0539 21.3757 15.7083 21.0304C15.0115 20.332 14.6201 19.3856 14.6201 18.3991C14.6201 17.4125 15.0115 16.4662 15.7083 15.7678C16.4067 15.0709 17.353 14.6796 18.3397 14.6796C19.3262 14.6796 20.2726 15.0709 20.971 15.7678C21.0921 15.89 21.1604 16.0553 21.1604 16.2275C21.1604 16.3997 21.0921 16.5649 20.971 16.6872C20.8487 16.8084 20.6834 16.8765 20.5113 16.8765C20.339 16.8765 20.1739 16.8084 20.0516 16.6872C19.5978 16.234 18.9829 15.9794 18.3415 15.9794C17.7002 15.9794 17.0851 16.234 16.6314 16.6872C16.1782 17.1409 15.9237 17.756 15.9237 18.3973C15.9237 19.0386 16.1782 19.6535 16.6314 20.1073C17.0856 20.5597 17.7005 20.8136 18.3415 20.8136C18.9825 20.8136 19.5974 20.5597 20.0516 20.1073C20.1119 20.0468 20.1836 19.9989 20.2625 19.9661C20.3414 19.9334 20.4258 19.9165 20.5113 19.9165C20.5966 19.9165 20.6812 19.9334 20.7601 19.9661C20.8389 19.9989 20.9107 20.0468 20.971 20.1073C21.0921 20.2296 21.1604 20.3947 21.1604 20.567C21.1604 20.7393 21.0921 20.9045 20.971 21.0267C20.6256 21.3726 20.2156 21.6471 19.764 21.8342C19.3124 22.0213 18.8284 22.1175 18.3397 22.1171Z" fill="black"/>
<path d="M18.3837 30.1232C18.278 30.123 18.1739 30.0971 18.0803 30.0478C17.9868 29.9985 17.9067 29.9272 17.8468 29.84L12.7662 22.4333C11.9029 21.1761 11.4871 19.6652 11.5855 18.1433C11.6838 16.6214 12.2907 15.1767 13.3086 14.0411C13.9475 13.327 14.7296 12.7555 15.604 12.364C16.4785 11.9724 17.4256 11.7694 18.3837 11.7683C19.3414 11.7679 20.2882 11.9697 21.1623 12.3604C22.0367 12.7511 22.8185 13.3219 23.457 14.0355C24.4762 15.1701 25.0848 16.6143 25.1849 18.1362C25.2849 19.6582 24.8706 21.1695 24.0086 22.4278L18.928 29.84C18.8675 29.9283 18.786 30.0002 18.6912 30.0494C18.5963 30.0989 18.4907 30.1243 18.3837 30.1232ZM18.3837 13.0702C17.6088 13.0712 16.8429 13.2355 16.1357 13.5523C15.4286 13.8692 14.7961 14.3314 14.2795 14.909C13.4547 15.8269 12.9629 16.9958 12.8832 18.2273C12.8035 19.4587 13.1405 20.6811 13.84 21.6978L18.3837 28.3175L22.9255 21.6978C23.6252 20.6817 23.9624 19.4596 23.883 18.2284C23.8038 16.9973 23.3122 15.8287 22.4879 14.9108C21.9716 14.3329 21.339 13.8703 20.632 13.5532C19.9248 13.236 19.1588 13.0714 18.3837 13.0702Z" fill="black"/>
<path d="M28.6186 9.94791H24.6137C24.4527 9.94752 24.2951 9.90087 24.1599 9.81351C24.0246 9.72615 23.9172 9.60174 23.8506 9.45511L23.1537 7.90868C22.9836 7.53368 22.7093 7.21553 22.3634 6.99219C22.0174 6.76885 21.6145 6.64975 21.2028 6.64911H15.5374C15.1319 6.65007 14.7348 6.76573 14.3922 6.98276C14.0496 7.19977 13.7753 7.5093 13.6012 7.87559L12.851 9.46798C12.7829 9.61135 12.6756 9.73251 12.5415 9.81745C12.4075 9.90238 12.2521 9.94761 12.0934 9.94791H8.14915C7.58179 9.94888 7.03795 10.1747 6.63676 10.5759C6.23557 10.9771 6.00977 11.5209 6.00879 12.0883V16.8875C6.00855 16.9732 6.02521 17.058 6.05781 17.1372C6.09042 17.2164 6.13832 17.2884 6.19879 17.349C6.25925 17.4096 6.3311 17.4577 6.4102 17.4906C6.48929 17.5234 6.57409 17.5403 6.65973 17.5403H7.49454V16.2366H7.31066V12.0883C7.31114 11.8662 7.39969 11.6534 7.55689 11.4966C7.71409 11.3397 7.92708 11.2516 8.14915 11.2516H12.0934C12.4989 11.2506 12.8959 11.1347 13.2383 10.9173C13.5806 10.6999 13.8544 10.3899 14.0278 10.0233L14.7799 8.43274C14.8475 8.28889 14.9546 8.16722 15.0887 8.08192C15.2229 7.99662 15.3785 7.95122 15.5374 7.95098H21.2028C21.3637 7.9518 21.5211 7.99864 21.6562 8.08596C21.7916 8.17327 21.8989 8.29742 21.9659 8.44377L22.6628 9.99204C22.8329 10.367 23.1072 10.6852 23.4531 10.9086C23.7991 11.1319 24.202 11.251 24.6137 11.2516H28.6186C28.8408 11.2516 29.0537 11.3397 29.2109 11.4966C29.3681 11.6534 29.4566 11.8662 29.4571 12.0883V14.133C29.4569 14.2186 29.4735 14.3035 29.5062 14.3827C29.5388 14.4619 29.5866 14.5338 29.6471 14.5945C29.7076 14.6551 29.7795 14.7032 29.8585 14.7361C29.9376 14.7689 30.0224 14.7858 30.1081 14.7858C30.1937 14.7858 30.2785 14.7689 30.3576 14.7361C30.4367 14.7032 30.5086 14.6551 30.569 14.5945C30.6295 14.5338 30.6773 14.4619 30.7099 14.3827C30.7426 14.3035 30.7592 14.2186 30.759 14.133V12.0883C30.7581 11.5209 30.5323 10.9771 30.131 10.5759C29.7298 10.1747 29.1859 9.94888 28.6186 9.94791Z" fill="black"/>
<path d="M12.7252 16.8876C12.7252 16.7149 12.6566 16.5494 12.5345 16.4273C12.4124 16.3052 12.2469 16.2366 12.0742 16.2366H7.31543V17.5404H12.0742C12.1599 17.5404 12.2447 17.5235 12.3238 17.4906C12.4028 17.4578 12.4747 17.4097 12.5352 17.3491C12.5956 17.2884 12.6435 17.2165 12.6761 17.1373C12.7087 17.0581 12.7254 16.9732 12.7252 16.8876Z" fill="black"/>
<path d="M23.9912 16.8875C23.9912 16.7149 24.0598 16.5493 24.1819 16.4272C24.304 16.3051 24.4697 16.2366 24.6421 16.2366H29.401V17.5403H24.6421C24.5566 17.5403 24.4719 17.5234 24.3926 17.4905C24.3136 17.4577 24.2418 17.4096 24.1813 17.349C24.1208 17.2883 24.0729 17.2164 24.0403 17.1372C24.0078 17.058 23.991 16.9731 23.9912 16.8875Z" fill="black"/>
<path d="M19.1494 27.8026C19.1494 27.6299 19.218 27.4645 19.3401 27.3424C19.4622 27.2203 19.6277 27.1517 19.8003 27.1517H24.561V28.4535H19.7948C19.6233 28.4515 19.4594 28.3822 19.3386 28.2605C19.2178 28.1386 19.15 27.9742 19.1494 27.8026Z" fill="black"/>
<path d="M17.6049 27.8063C17.6049 27.6337 17.5364 27.4682 17.4143 27.3461C17.2922 27.224 17.1266 27.1554 16.954 27.1554H12.1934V28.4573H16.9595C17.131 28.4552 17.2949 28.3859 17.4157 28.2642C17.5365 28.1423 17.6045 27.9779 17.6049 27.8063Z" fill="black"/>
<path d="M99.2986 27.3154C99.2407 27.3154 99.1835 27.304 99.13 27.2817C99.0765 27.2595 99.0281 27.2269 98.9871 27.1859C98.9463 27.1449 98.9141 27.0964 98.892 27.0429C98.87 26.9894 98.8589 26.932 98.8591 26.8741V20.4677C98.8541 20.1481 98.8277 19.8293 98.78 19.5134C98.74 19.2173 98.6425 18.9317 98.4932 18.673C98.3457 18.4263 98.1341 18.2242 97.8809 18.0883C97.5519 17.9295 97.1886 17.855 96.8236 17.8713C96.4457 17.8607 96.0709 17.9441 95.7332 18.114C95.4435 18.2648 95.1944 18.4831 95.0068 18.7503C94.82 19.0202 94.6836 19.3218 94.6041 19.6402C94.5179 19.9688 94.4703 20.3064 94.4625 20.6461V26.8741C94.4627 26.932 94.4515 26.9894 94.4296 27.0429C94.4076 27.0964 94.3754 27.1449 94.3344 27.1859C94.2936 27.2269 94.2452 27.2595 94.1917 27.2817C94.1382 27.304 94.081 27.3154 94.0231 27.3154H91.4065C91.2899 27.3154 91.1781 27.269 91.0957 27.1867C91.0133 27.1043 90.967 26.9925 90.967 26.8759V20.6461C90.9584 19.7303 90.7592 19.0347 90.3694 18.559C90.1759 18.3242 89.9305 18.1378 89.6526 18.0143C89.3746 17.8908 89.0718 17.8336 88.7678 17.8474C88.0052 17.8474 87.4144 18.0803 86.9952 18.5462C86.5759 19.0119 86.3639 19.7119 86.359 20.6461L86.3682 26.8741C86.3684 26.932 86.3571 26.9894 86.3353 27.0429C86.3132 27.0964 86.281 27.1449 86.2402 27.1859C86.1992 27.2269 86.1508 27.2595 86.0973 27.2817C86.0438 27.304 85.9866 27.3154 85.9287 27.3154H83.211C83.0944 27.3154 82.9826 27.269 82.9002 27.1867C82.8178 27.1043 82.7715 26.9925 82.7715 26.8759V15.1205C82.7715 15.0039 82.8178 14.8921 82.9002 14.8097C82.9826 14.7273 83.0944 14.681 83.211 14.681H85.7062C85.8026 14.6813 85.8963 14.7134 85.9726 14.7722C86.0491 14.831 86.1041 14.9133 86.1291 15.0065L86.3994 16.0307C86.7168 15.4913 87.1953 15.0649 87.7675 14.8116C88.3971 14.5507 89.0765 14.4319 89.7574 14.4637C90.4382 14.4955 91.1036 14.677 91.7062 14.9954C92.322 15.3751 92.7823 15.9619 93.0044 16.6504C93.4439 15.9739 94.0457 15.4183 94.7549 15.0341C95.5099 14.6666 96.3427 14.4875 97.1821 14.5118C98.0331 14.4871 98.8812 14.6212 99.6829 14.9072C100.306 15.1394 100.855 15.5351 101.272 16.0527C101.684 16.595 101.969 17.2236 102.105 17.8915C102.274 18.7078 102.353 19.5404 102.338 20.3739V26.8814C102.339 26.9393 102.328 26.9969 102.306 27.0504C102.284 27.1041 102.252 27.1528 102.211 27.1938C102.17 27.235 102.121 27.2676 102.067 27.2896C102.014 27.3117 101.957 27.3229 101.899 27.3227L99.2986 27.3154Z" fill="white"/>
<path d="M218.844 27.3153C218.787 27.3153 218.729 27.3039 218.675 27.2817C218.622 27.2594 218.574 27.2269 218.534 27.1858C218.491 27.1448 218.46 27.0963 218.438 27.0428C218.416 26.9893 218.405 26.9319 218.405 26.874V20.4676C218.399 20.148 218.374 19.8292 218.326 19.5133C218.291 19.2185 218.201 18.9331 218.057 18.673C217.91 18.4262 217.699 18.2241 217.445 18.0882C217.116 17.9299 216.752 17.8554 216.388 17.8712C216.009 17.8606 215.636 17.944 215.297 18.114C215.005 18.2635 214.751 18.4817 214.562 18.7502C214.374 19.0201 214.238 19.3217 214.159 19.6402C214.073 19.9688 214.025 20.3064 214.018 20.646V26.874C214.018 26.9319 214.007 26.9893 213.985 27.0428C213.962 27.0963 213.931 27.1448 213.889 27.1858C213.848 27.2269 213.801 27.2594 213.747 27.2817C213.694 27.3039 213.635 27.3153 213.578 27.3153H210.945C210.829 27.3153 210.717 27.269 210.634 27.1866C210.552 27.1042 210.506 26.9924 210.506 26.8758V20.646C210.496 19.7303 210.296 19.0346 209.908 18.559C209.715 18.3241 209.468 18.1377 209.191 18.0142C208.913 17.8907 208.61 17.8335 208.306 17.8473C207.543 17.8473 206.951 18.0803 206.534 18.5461C206.116 19.0118 205.903 19.7119 205.898 20.646L205.907 26.874C205.907 26.9321 205.896 26.9895 205.874 27.0432C205.852 27.0969 205.818 27.1456 205.778 27.1866C205.738 27.2276 205.688 27.2601 205.635 27.2822C205.581 27.3043 205.524 27.3155 205.465 27.3153H202.757C202.7 27.3153 202.643 27.3039 202.59 27.2818C202.536 27.2598 202.487 27.2274 202.446 27.1866C202.406 27.1458 202.373 27.0974 202.35 27.0441C202.328 26.9908 202.317 26.9336 202.317 26.8758V15.1204C202.317 15.0627 202.328 15.0056 202.35 14.9522C202.373 14.8989 202.406 14.8504 202.446 14.8096C202.487 14.7688 202.536 14.7365 202.59 14.7144C202.643 14.6923 202.7 14.6809 202.757 14.6809H205.252C205.348 14.6813 205.442 14.7133 205.519 14.7721C205.596 14.8309 205.649 14.9133 205.675 15.0064L205.953 16.0306C206.269 15.4907 206.745 15.0631 207.315 14.8078C207.946 14.5475 208.624 14.4293 209.305 14.4617C209.987 14.4941 210.651 14.6764 211.254 14.9954C211.866 15.3763 212.322 15.9631 212.541 16.6503C212.982 15.9742 213.584 15.4187 214.293 15.034C215.049 14.6666 215.882 14.4874 216.721 14.5118C217.572 14.487 218.42 14.6211 219.221 14.9071C219.845 15.1359 220.396 15.5284 220.816 16.0435C221.229 16.5857 221.513 17.2143 221.649 17.8823C221.818 18.6985 221.897 19.5311 221.882 20.3646V26.8722C221.882 26.9301 221.871 26.9874 221.849 27.041C221.827 27.0945 221.796 27.143 221.753 27.184C221.713 27.225 221.665 27.2576 221.612 27.2798C221.559 27.3021 221.5 27.3135 221.443 27.3135L218.844 27.3153Z" fill="white"/>
<path d="M108.307 15.0414L108.491 16.54C109.014 15.9414 109.641 15.4429 110.343 15.069C111.124 14.6759 111.991 14.4832 112.865 14.5081C114.495 14.5081 115.83 14.9623 116.872 15.8707C117.914 16.779 118.58 18.0558 118.871 19.7009C119.083 20.7843 119.095 21.8975 118.904 22.985C118.741 23.9034 118.356 24.7682 117.782 25.5041C117.198 26.2205 116.438 26.7729 115.576 27.1075C114.547 27.4994 113.452 27.6868 112.352 27.6592C111.67 27.6551 110.994 27.5389 110.35 27.3153C109.6 27.0419 108.93 26.587 108.399 25.9914V32.6019C108.399 32.7185 108.353 32.8303 108.27 32.9126C108.188 32.995 108.076 33.0413 107.959 33.0413H105.424C105.307 33.0413 105.195 32.9952 105.112 32.9128C105.03 32.8304 104.983 32.7186 104.982 32.6019V15.0947C104.982 15.0368 104.994 14.9795 105.016 14.9261C105.038 14.8727 105.071 14.8241 105.112 14.7833C105.153 14.7425 105.201 14.7101 105.255 14.6882C105.308 14.6662 105.366 14.655 105.424 14.6552H107.869C107.977 14.6549 108.081 14.694 108.162 14.7652C108.242 14.8363 108.294 14.9346 108.307 15.0414ZM112.029 24.4799C112.552 24.4902 113.072 24.3905 113.555 24.1875C113.975 24.0081 114.345 23.7284 114.632 23.373C114.921 23.0037 115.12 22.5725 115.213 22.1134C115.32 21.5755 115.32 21.0221 115.213 20.4842C115.117 19.7557 114.759 19.0867 114.208 18.6013C113.682 18.1588 112.994 17.9375 112.143 17.9375C111.6 17.9216 111.061 18.0397 110.574 18.2813C110.159 18.4926 109.799 18.7973 109.522 19.1713C109.257 19.5348 109.074 19.9522 108.987 20.3941C108.896 20.8338 108.889 21.2868 108.967 21.7291C109.031 22.0779 109.142 22.4164 109.298 22.7349C109.453 23.0591 109.66 23.3559 109.91 23.6138C110.169 23.8749 110.474 24.0864 110.81 24.2372C111.193 24.4062 111.609 24.4889 112.029 24.4799Z" fill="white"/>
<path d="M131.65 26.9274L131.503 25.8811C131.144 26.2373 130.754 26.5611 130.337 26.8483C129.683 27.2929 128.921 27.5522 128.131 27.5985C127.745 27.6243 127.323 27.6372 126.866 27.6372C126.134 27.6434 125.408 27.5138 124.724 27.2547C124.069 27.0061 123.468 26.6346 122.953 26.1606C122.423 25.6687 121.984 25.0873 121.656 24.4432C120.865 22.8568 120.61 21.0565 120.93 19.3129C121.101 18.4242 121.471 17.5857 122.012 16.8604C122.554 16.1352 123.252 15.5422 124.056 15.126C124.968 14.658 125.974 14.4016 126.998 14.3758C127.82 14.3691 128.641 14.463 129.44 14.6553C130.24 14.8777 130.952 15.3397 131.481 15.9792L131.61 14.8759C131.616 14.8223 131.642 14.7728 131.682 14.7369C131.723 14.701 131.775 14.6811 131.829 14.681H134.372C134.488 14.681 134.6 14.7273 134.682 14.8097C134.765 14.8921 134.811 15.0039 134.811 15.1205V26.8667C134.814 26.9816 134.772 27.0929 134.693 27.1769C134.615 27.2608 134.507 27.3106 134.392 27.3154H132.093C131.985 27.3174 131.879 27.2788 131.797 27.2071C131.715 27.1353 131.663 27.0357 131.65 26.9274ZM127.945 17.6856C127.395 17.6764 126.85 17.7894 126.349 18.0166C125.898 18.2229 125.495 18.5217 125.167 18.8937C124.847 19.2646 124.62 19.7055 124.503 20.1808C124.377 20.6891 124.362 21.2183 124.459 21.7328C124.578 22.5018 124.949 23.2095 125.514 23.7444C126.073 24.2703 126.809 24.5333 127.721 24.5333C128.239 24.5404 128.754 24.4546 129.241 24.2795C129.673 24.1228 130.067 23.8801 130.402 23.5661C130.727 23.2533 130.986 22.8776 131.162 22.462C131.338 22.0465 131.428 21.5995 131.426 21.148C131.465 20.2373 131.143 19.3479 130.53 18.673C129.927 18.0147 129.065 17.6856 127.945 17.6856Z" fill="white"/>
<path d="M196.502 26.9274L196.355 25.8811C195.996 26.2378 195.606 26.5614 195.189 26.8483C194.856 27.0739 194.494 27.2534 194.113 27.3815C193.751 27.5013 193.374 27.5741 192.993 27.5985C192.607 27.6243 192.186 27.6371 191.728 27.6371C190.996 27.6434 190.27 27.5138 189.586 27.2547C188.932 27.0064 188.33 26.635 187.815 26.1606C187.289 25.6678 186.854 25.0865 186.528 24.4431C185.734 22.8577 185.476 21.0576 185.793 19.3129C185.962 18.4238 186.331 17.5849 186.874 16.8596C187.414 16.1343 188.115 15.5415 188.919 15.126C189.831 14.658 190.836 14.4016 191.861 14.3757C192.683 14.3693 193.503 14.4631 194.303 14.6552C195.103 14.877 195.814 15.3392 196.342 15.9792L196.472 14.8759C196.478 14.8223 196.504 14.7728 196.544 14.7369C196.585 14.7009 196.638 14.6811 196.691 14.681H199.234C199.291 14.681 199.348 14.6923 199.402 14.7144C199.455 14.7365 199.505 14.7689 199.545 14.8097C199.585 14.8505 199.619 14.8989 199.641 14.9523C199.663 15.0056 199.674 15.0628 199.674 15.1205V26.8667C199.674 26.9244 199.663 26.9816 199.641 27.0349C199.619 27.0883 199.585 27.1366 199.545 27.1774C199.505 27.2183 199.455 27.2506 199.402 27.2727C199.348 27.2948 199.291 27.3062 199.234 27.3062H196.934C196.829 27.3051 196.726 27.2663 196.647 27.1967C196.568 27.1272 196.517 27.0316 196.502 26.9274ZM192.798 17.6856C192.249 17.676 191.703 17.7891 191.202 18.0166C190.752 18.2229 190.349 18.5217 190.02 18.8937C189.7 19.264 189.472 19.7053 189.356 20.1808C189.231 20.6891 189.217 21.2183 189.312 21.7328C189.432 22.5014 189.801 23.209 190.366 23.7444C190.925 24.2703 191.66 24.5333 192.572 24.5333C193.091 24.5404 193.606 24.4545 194.093 24.2795C194.523 24.1228 194.919 23.8801 195.253 23.566C195.579 23.2533 195.838 22.8776 196.013 22.462C196.189 22.0465 196.279 21.5995 196.278 21.148C196.318 20.2347 195.996 19.3423 195.382 18.6657C194.779 18.0123 193.918 17.6856 192.798 17.6856Z" fill="white"/>
<path d="M146.721 27.3153C146.604 27.3153 146.493 27.269 146.41 27.1866C146.328 27.1042 146.281 26.9924 146.281 26.8759V20.6718C146.281 20.3334 146.245 19.9932 146.202 19.6531C146.165 19.3274 146.058 19.0137 145.888 18.7337C145.708 18.4499 145.453 18.221 145.152 18.0717C144.735 17.8839 144.279 17.797 143.821 17.8179C142.953 17.802 142.258 18.0692 141.736 18.6197C141.214 19.17 140.953 19.9294 140.954 20.8979L140.943 26.8722C140.944 26.9308 140.933 26.9889 140.91 27.0432C140.888 27.0974 140.855 27.1467 140.813 27.1879C140.772 27.2293 140.722 27.2618 140.668 27.2837C140.614 27.3056 140.555 27.3162 140.497 27.3153H137.913C137.797 27.3153 137.685 27.269 137.602 27.1866C137.52 27.1042 137.474 26.9924 137.474 26.8759V15.1076C137.473 15.0497 137.485 14.9923 137.507 14.9388C137.529 14.8853 137.561 14.8366 137.602 14.7956C137.643 14.7546 137.691 14.7221 137.744 14.6999C137.798 14.6777 137.855 14.6662 137.913 14.6662H140.258C140.36 14.666 140.459 14.7013 140.537 14.7661C140.616 14.8309 140.67 14.921 140.69 15.0211L140.874 15.9644C141.382 15.4224 142.021 15.0197 142.729 14.795C143.282 14.6221 143.857 14.5274 144.437 14.5136C145.216 14.5008 145.991 14.6125 146.734 14.8446C147.376 15.0498 147.957 15.4134 148.422 15.9019C148.914 16.4437 149.273 17.0928 149.47 17.7977C149.728 18.725 149.845 19.6858 149.819 20.6479V26.8759C149.82 26.9338 149.808 26.9911 149.786 27.0447C149.764 27.0982 149.732 27.1467 149.691 27.1877C149.651 27.2287 149.602 27.2613 149.548 27.2835C149.495 27.3058 149.438 27.3172 149.38 27.3172L146.721 27.3153Z" fill="white"/>
<path d="M164.659 14.6553C164.717 14.655 164.775 14.6662 164.828 14.6882C164.882 14.7102 164.93 14.7425 164.971 14.7833C165.012 14.8242 165.045 14.8727 165.067 14.9262C165.089 14.9796 165.101 15.0369 165.101 15.0947V27.2547C165.101 28.4806 164.938 29.5072 164.613 30.3347C164.35 31.0851 163.907 31.7601 163.324 32.3013C162.741 32.8424 162.035 33.2334 161.267 33.4404C160.453 33.6664 159.611 33.7777 158.766 33.7714C157.951 33.7767 157.138 33.678 156.348 33.4772C155.642 33.3007 154.978 32.9884 154.392 32.5578C153.822 32.1277 153.363 31.5696 153.049 30.9286C152.753 30.3185 152.574 29.6578 152.523 28.9813C152.517 28.9203 152.524 28.8585 152.544 28.8004C152.563 28.7421 152.594 28.6884 152.635 28.643C152.677 28.5974 152.727 28.561 152.783 28.536C152.839 28.511 152.9 28.4979 152.961 28.4977H155.59C155.694 28.499 155.794 28.5365 155.873 28.6037C155.953 28.6708 156.006 28.7633 156.024 28.8655C156.062 29.1001 156.147 29.3245 156.276 29.5242C156.404 29.7238 156.573 29.8947 156.771 30.0258C157.34 30.3724 157.999 30.5421 158.665 30.5131C159.471 30.5333 160.254 30.2444 160.853 29.7058C161.454 29.1628 161.755 28.3659 161.756 27.3154V25.9142C161.34 26.4558 160.784 26.8739 160.149 27.1242C159.457 27.3531 158.731 27.4608 158.003 27.4423C157.285 27.4437 156.57 27.3391 155.883 27.1315C155.222 26.9344 154.618 26.5804 154.123 26.0999C153.581 25.5509 153.172 24.8847 152.928 24.1527C152.604 23.1764 152.449 22.1524 152.47 21.1242L152.459 15.1003C152.459 14.9835 152.505 14.8716 152.588 14.7889C152.67 14.7062 152.782 14.6594 152.898 14.659H155.522C155.639 14.6594 155.751 14.7062 155.833 14.7889C155.916 14.8716 155.962 14.9835 155.962 15.1003V21.1242C155.962 21.5072 155.987 21.89 156.037 22.2697C156.079 22.6254 156.205 22.9659 156.405 23.2627C156.628 23.574 156.93 23.8198 157.28 23.9743C157.787 24.1841 158.334 24.2801 158.882 24.2556C159.811 24.2212 160.488 23.8989 160.914 23.2884C161.36 22.6094 161.588 21.8097 161.567 20.9973V15.0984C161.567 14.9817 161.614 14.8699 161.696 14.7876C161.779 14.7052 161.891 14.659 162.008 14.659L164.659 14.6553Z" fill="white"/>
<path d="M49.1982 18.3438C49.1982 13.2393 53.1369 9.10754 58.6828 9.10754C60.9757 9.10754 63.0517 9.82467 64.6257 11.0824C64.6723 11.1201 64.7105 11.1669 64.7381 11.22C64.7657 11.273 64.782 11.3312 64.7863 11.3909C64.7903 11.4506 64.7822 11.5105 64.7622 11.5669C64.7421 11.6233 64.7107 11.6749 64.6699 11.7186L62.8734 13.6843C62.7991 13.7649 62.6976 13.8149 62.5885 13.8248C62.4795 13.8346 62.3706 13.8036 62.2831 13.7376C61.3165 12.9945 60.1242 12.6051 58.9053 12.6344C55.6322 12.6344 53.2473 15.1866 53.2473 18.3493C53.2473 21.5654 55.577 24.1452 58.7637 24.1452C60.2386 24.1651 61.6644 23.6158 62.7447 22.6117C62.7873 22.571 62.8377 22.5396 62.8929 22.5188C62.9478 22.498 63.0067 22.4887 63.0655 22.491C63.1244 22.4934 63.1821 22.5076 63.2352 22.5328C63.2886 22.558 63.3362 22.5935 63.3754 22.6374L65.1903 24.6821C65.2677 24.7689 65.3074 24.8831 65.3009 24.9992C65.2943 25.1154 65.2419 25.2242 65.1553 25.3018C63.471 26.7876 61.2607 27.6684 58.6809 27.6684C53.1369 27.6628 49.1982 23.5292 49.1982 18.3438Z" fill="white"/>
<path d="M167.955 18.3439C167.955 13.2394 171.903 9.11127 177.44 9.11127C179.733 9.11127 181.809 9.8284 183.383 11.0861C183.429 11.1238 183.467 11.1706 183.495 11.2237C183.523 11.2768 183.539 11.335 183.543 11.3946C183.547 11.4543 183.539 11.5142 183.519 11.5706C183.499 11.627 183.468 11.6787 183.427 11.7224L181.63 13.6844C181.556 13.7649 181.454 13.815 181.345 13.8248C181.236 13.8347 181.127 13.8036 181.04 13.7377C180.073 12.9945 178.881 12.6052 177.662 12.6344C174.389 12.6344 172.004 15.1867 172.004 18.3494C172.004 21.5654 174.334 24.1453 177.52 24.1453C178.995 24.1649 180.42 23.6157 181.5 22.6117C181.542 22.5711 181.593 22.5396 181.648 22.5189C181.703 22.4981 181.762 22.4887 181.821 22.4911C181.879 22.4935 181.937 22.5076 181.99 22.5328C182.044 22.558 182.091 22.5935 182.13 22.6375L183.945 24.6822C184.022 24.769 184.063 24.8832 184.056 24.9992C184.05 25.1154 183.997 25.2243 183.91 25.3019C182.228 26.7876 180.016 27.6684 177.436 27.6684C171.903 27.6629 167.955 23.5293 167.955 18.3439Z" fill="white"/>
<path d="M66.8877 20.9918C66.8877 17.2884 69.9033 14.35 73.7096 14.35C77.5159 14.35 80.5555 17.2921 80.5555 20.9918C80.5555 24.6914 77.5417 27.6353 73.7115 27.6353C69.8813 27.6353 66.8877 24.6969 66.8877 20.9918ZM77.0562 20.9918C77.0562 19.0004 75.6257 17.5183 73.7096 17.5183C71.7936 17.5183 70.363 19.0004 70.363 20.9918C70.363 23.0144 71.7936 24.4671 73.7096 24.4671C75.6257 24.4671 77.0562 23.0108 77.0562 20.9918Z" fill="white"/>
</svg>
