<svg width="147" height="40" viewBox="0 0 147 40" fill="none" xmlns="http://www.w3.org/2000/svg">
<g clip-path="url(#clip0_97_5331)">
<path d="M27.8324 18.5642C28.119 18.5297 28.3939 18.5289 28.6461 18.5642C28.7921 18.2287 28.8173 17.6512 28.6861 17.0227C28.4905 16.0876 28.2266 15.5219 27.6808 15.6099C27.1349 15.6979 27.1145 16.3752 27.3101 17.3102C27.42 17.8359 27.6156 18.2861 27.8332 18.5642H27.8324Z" fill="white"/>
<path d="M23.1446 19.3045C23.5357 19.4758 23.7752 19.5897 23.8695 19.4907C23.93 19.4286 23.9119 19.3108 23.8184 19.1583C23.626 18.8433 23.2286 18.5243 22.8084 18.3443C21.9476 17.9735 20.921 18.0968 20.1293 18.6665C19.8678 18.8582 19.6204 19.1238 19.6557 19.2848C19.6675 19.3367 19.706 19.376 19.7979 19.3893C20.0131 19.4137 20.7663 19.0334 21.6342 18.98C22.2468 18.9423 22.7542 19.134 23.1446 19.3053V19.3045" fill="white"/>
<path d="M22.3588 19.7531C21.8499 19.8333 21.5695 20.0014 21.3888 20.1578C21.2349 20.2921 21.1398 20.4406 21.1406 20.5451L21.1799 20.6379L21.2639 20.6701C21.3786 20.6701 21.6362 20.5671 21.6362 20.5671C22.3447 20.3134 22.812 20.344 23.2746 20.3966C23.5307 20.4257 23.6516 20.4414 23.7074 20.3534C23.7239 20.3283 23.7443 20.2741 23.6932 20.1908C23.5739 19.9975 23.0602 19.6706 22.3596 19.7539L22.3588 19.7531" fill="white"/>
<path d="M26.2502 21.4C26.5958 21.5697 26.9759 21.5029 27.1 21.2507C27.2241 20.9985 27.0442 20.6567 26.6987 20.487C26.3531 20.3173 25.9729 20.384 25.8488 20.6363C25.7247 20.8885 25.9046 21.2303 26.2502 21.4Z" fill="white"/>
<path d="M28.4712 19.4584C28.1909 19.4537 27.9576 19.7617 27.9513 20.1475C27.945 20.5325 28.1673 20.8484 28.4477 20.8531C28.7281 20.8578 28.9613 20.5498 28.9676 20.1648C28.9739 19.7798 28.7516 19.4639 28.4712 19.4584" fill="white"/>
<path d="M9.61623 26.4027C9.54633 26.3155 9.43166 26.3422 9.32092 26.3673C9.24316 26.3854 9.15519 26.4058 9.05937 26.4043C8.85281 26.4003 8.67766 26.3123 8.57948 26.1615C8.45146 25.965 8.45931 25.672 8.5999 25.3365L8.66588 25.1864C8.89129 24.6812 9.26751 23.8349 8.84495 23.0296C8.52686 22.423 8.00691 22.0451 7.38251 21.9657C6.78323 21.8895 6.16589 22.1118 5.7724 22.5464C5.15113 23.2315 5.05453 24.1642 5.1747 24.4942C5.21868 24.6152 5.2878 24.6482 5.33728 24.6552C5.44331 24.6694 5.59882 24.5924 5.697 24.3292L5.72527 24.2435C5.76926 24.1044 5.85016 23.8452 5.98289 23.6369C6.14312 23.3863 6.39288 23.2134 6.68663 23.1506C6.98508 23.0869 7.29061 23.1435 7.54587 23.3109C7.98099 23.5961 8.14829 24.1288 7.96293 24.6379C7.86711 24.9012 7.71081 25.404 7.74537 25.8173C7.81527 26.6541 8.32972 26.9904 8.79155 27.0258C9.2408 27.0431 9.55497 26.79 9.6343 26.6054C9.68142 26.4962 9.64137 26.4302 9.61623 26.4011V26.4027" fill="white"/>
<path d="M35.5549 24.8721C35.5376 24.8116 35.4261 24.4038 35.2729 23.9127L34.9611 23.0759C35.5753 22.1558 35.5863 21.3332 35.5046 20.8673C35.4175 20.2898 35.1771 19.7971 34.6925 19.2887C34.2079 18.7796 33.2175 18.2587 31.825 17.8681L31.0945 17.6654C31.0906 17.6356 31.056 15.9423 31.0246 15.2155C31.0018 14.6899 30.9563 13.8704 30.7018 13.0619C30.3986 11.9681 29.8708 11.0119 29.2111 10.3998C31.0309 8.51332 32.1666 6.43429 32.1635 4.65148C32.158 1.22258 27.9489 0.184643 22.7612 2.3336L21.6624 2.80032C21.6577 2.7956 19.6753 0.850151 19.6455 0.824223C13.7313 -4.33641 -4.76138 16.226 1.15125 21.22L2.44326 22.3153C2.10789 23.1836 1.97672 24.1791 2.08432 25.2492C2.22256 26.6235 2.93101 27.9411 4.08007 28.9594C5.17023 29.9259 6.6044 30.5379 7.99538 30.5364C10.2959 35.8408 15.5527 39.0945 21.7166 39.2776C28.3283 39.474 33.8788 36.3704 36.2044 30.7949C36.3568 30.4036 37.0024 28.6404 37.0024 27.0839C37.0024 25.5195 36.1188 24.8713 35.5557 24.8713L35.5549 24.8721V24.8721ZM8.50354 29.0466C8.30248 29.0812 8.09748 29.0946 7.89092 29.0899C5.8936 29.0364 3.73684 27.2379 3.52242 25.1047C3.28523 22.7475 4.48927 20.9325 6.62168 20.5027C6.87616 20.4516 7.18483 20.4218 7.51706 20.439C8.71168 20.5043 10.4718 21.422 10.8739 24.0251C11.2297 26.3304 10.6642 28.6781 8.50354 29.0466ZM6.27374 19.0923C4.94639 19.3508 3.7769 20.1027 3.06138 21.1423C2.63412 20.7855 1.83692 20.0949 1.69633 19.8262C0.554331 17.6568 2.94279 13.439 4.61101 11.0575C8.73446 5.17085 15.1922 0.715793 18.1822 1.52352C18.6684 1.66102 20.2777 3.5279 20.2777 3.5279C20.2777 3.5279 17.2892 5.18656 14.5183 7.49895C10.7844 10.3755 7.96318 14.5555 6.27374 19.0923V19.0923ZM27.235 28.1651C27.2782 28.147 27.308 28.0967 27.3033 28.048C27.297 27.9875 27.2428 27.9435 27.1824 27.9498C27.1824 27.9498 24.054 28.4134 21.0985 27.3306C21.4205 26.284 22.2766 26.662 23.5702 26.7665C25.9021 26.9055 27.9921 26.5645 29.5362 26.1214C30.8746 25.7372 32.6324 24.9797 33.9982 23.9017C34.4585 24.9137 34.621 26.0271 34.621 26.0271C34.621 26.0271 34.9776 25.9635 35.2753 26.1465C35.5565 26.3202 35.763 26.68 35.6224 27.6119C35.335 29.3523 34.5959 30.7642 33.3534 32.0638C32.597 32.8786 31.6789 33.5866 30.628 34.1012C30.0703 34.3943 29.4758 34.6481 28.8482 34.8531C24.164 36.3837 19.3682 34.7007 17.8225 31.0872C17.6992 30.8153 17.5948 30.5309 17.5123 30.2339C16.8533 27.8523 17.4125 24.9955 19.1609 23.1969V23.1961C19.2685 23.0814 19.3784 22.9471 19.3784 22.7774C19.3784 22.6351 19.2881 22.4859 19.2104 22.3798C18.5985 21.4927 16.4802 19.9802 16.9059 17.0534C17.2115 14.9508 19.0494 13.4705 20.7631 13.5585L21.1975 13.5836C21.9397 13.6276 22.5877 13.7227 23.1995 13.7486C24.2229 13.7926 25.1426 13.6441 26.232 12.7358C26.5996 12.4294 26.8941 12.1638 27.3928 12.0789C27.4455 12.0703 27.5758 12.0231 27.8358 12.0357C28.1021 12.0499 28.355 12.1229 28.5827 12.2746C29.4561 12.856 29.5802 14.2648 29.6258 15.2949C29.6517 15.8834 29.7224 17.3064 29.7467 17.7141C29.8025 18.6484 30.0476 18.7796 30.5439 18.9438C30.8235 19.0357 31.0827 19.1041 31.4644 19.2117C32.6206 19.5362 33.3063 19.8662 33.739 20.289C33.9966 20.5538 34.1168 20.8343 34.1537 21.103C34.2904 22.0985 33.3817 23.3274 30.9759 24.4447C28.3463 25.6657 25.1568 25.9745 22.9529 25.7293L22.1808 25.6421C20.4175 25.4048 19.4122 27.6842 20.4702 29.2454C21.1519 30.2519 23.0094 30.9065 24.8677 30.9072C29.1286 30.908 32.4038 29.0875 33.622 27.5153L33.7194 27.3762C33.7791 27.2858 33.7296 27.2363 33.655 27.2874C32.6599 27.9686 28.2387 30.6739 23.5097 29.8599C23.5097 29.8599 22.9348 29.7656 22.4109 29.5613C21.9939 29.3994 21.1221 28.9979 21.016 28.1022C24.8324 29.2831 27.235 28.1666 27.235 28.1666V28.1651V28.1651ZM21.1896 27.4508L21.1904 27.4516L21.1912 27.4532L21.1896 27.4501V27.4508V27.4508ZM13.8892 11.0324C15.3547 9.33754 17.1596 7.86431 18.776 7.03694C18.8318 7.00866 18.8915 7.06916 18.8608 7.12416C18.7328 7.35673 18.4854 7.85488 18.4069 8.23203C18.3943 8.29096 18.4587 8.33496 18.5082 8.30117C19.5135 7.61524 21.2634 6.88058 22.7981 6.7863C22.8641 6.78237 22.8955 6.86644 22.8437 6.9073C22.6104 7.08644 22.3552 7.33395 22.169 7.58459C22.1376 7.62702 22.1675 7.68831 22.2201 7.68909C23.2977 7.69695 24.8167 8.0741 25.8063 8.62961C25.8731 8.66732 25.8259 8.79696 25.7505 8.77968C24.2527 8.43632 21.8007 8.17546 19.2536 8.79696C16.9798 9.35169 15.244 10.2081 13.9779 11.1298C13.9143 11.1761 13.8373 11.0921 13.8892 11.0316V11.0324" fill="white"/>
<path d="M141.361 15.0167C139.17 15.0167 138.166 16.6604 137.73 17.5962C137.441 18.2146 137.456 18.3961 137.245 18.3961C136.94 18.3961 137.193 17.8995 137.33 17.315C137.6 16.1647 137.394 15.2862 137.394 15.2862H134.271V30.277H138.534V25.5242C139.038 26.3799 139.973 27.2944 141.413 27.2944C144.495 27.2944 146.046 24.685 146.046 21.1603C146.046 17.1649 144.19 15.0151 141.361 15.0151L141.361 15.0167ZM140.191 24.5122C139.213 24.5122 138.495 23.2723 138.495 21.5437C138.495 19.8654 139.234 18.576 140.157 18.576C141.343 18.576 141.849 19.6643 141.849 21.5437C141.849 23.4986 141.383 24.5122 140.191 24.5122Z" fill="white"/>
<path d="M56.6356 15.0167C54.7608 15.0167 53.8333 16.4931 53.4076 17.4446C53.1696 17.9766 53.1036 18.3969 52.9104 18.3969C52.6386 18.3969 52.8334 18.0316 52.6111 17.2215C52.3182 16.1552 51.4369 15.0167 49.5629 15.0167C47.5931 15.0167 46.7496 16.6817 46.3498 17.5963C46.0765 18.2217 46.0757 18.3961 45.8652 18.3961C45.5605 18.3961 45.8134 17.8996 45.95 17.315C46.2202 16.1647 46.0144 15.2862 46.0144 15.2862H42.8916V27.0328H47.1541V21.1886C47.1541 20.0359 47.6363 18.5729 48.4626 18.5729C49.4169 18.5729 49.6085 19.3068 49.6085 20.6645V27.036H53.8882V21.1886C53.8882 20.1624 54.3069 18.5729 55.203 18.5729C56.1707 18.5729 56.3427 19.603 56.3427 20.6645V27.0328H60.5454V20.1247C60.5454 17.0588 59.4655 15.0152 56.6364 15.0152L56.6356 15.0167ZM128.984 15.0167C127.109 15.0167 126.181 16.4931 125.756 17.4446C125.518 17.9766 125.452 18.3969 125.258 18.3969C124.987 18.3969 125.168 17.9326 124.959 17.2215C124.647 16.1607 123.87 15.0167 121.911 15.0167C119.941 15.0167 119.098 16.6817 118.698 17.5963C118.424 18.2217 118.424 18.3961 118.213 18.3961C117.908 18.3961 118.161 17.8996 118.298 17.315C118.568 16.1647 118.362 15.2862 118.362 15.2862H115.24V27.0328H119.502V21.1886C119.502 20.0359 119.984 18.5729 120.811 18.5729C121.765 18.5729 121.956 19.3068 121.956 20.6645V27.036H126.236V21.1886C126.236 20.1624 126.655 18.5729 127.551 18.5729C128.519 18.5729 128.691 19.603 128.691 20.6645V27.0328H132.893V20.1247C132.893 17.0588 131.813 15.0152 128.984 15.0152L128.984 15.0167V15.0167ZM67.8223 15.0191C64.5573 15.0191 62.2144 16.2197 62.2144 16.2197V19.7499C62.2144 19.7499 64.8016 18.2618 66.9003 18.2618C68.5755 18.2618 68.7813 19.1654 68.7051 19.9157C68.7051 19.9157 68.2221 19.7876 66.7479 19.7876C63.274 19.7876 61.5201 21.367 61.5201 23.9001C61.5201 26.3029 63.4908 27.307 65.1519 27.307C67.5749 27.307 68.64 25.6782 68.9675 24.9051C69.1945 24.3692 69.2361 24.0078 69.4403 24.0078C69.6728 24.0078 69.5942 24.2671 69.5832 24.8006C69.5636 25.7348 69.6076 26.4419 69.756 27.0367H72.9684V21.2554C72.9684 17.6458 71.6921 15.0191 67.8231 15.0191H67.8223V15.0191ZM66.7848 24.2883C65.7653 24.524 65.2375 24.2097 65.2375 23.534C65.2375 22.6084 66.1949 22.2375 67.5608 22.2375C68.1632 22.2375 68.7295 22.2894 68.7295 22.2894C68.7295 22.6862 67.8695 24.0384 66.7848 24.2883ZM79.9892 11.7308H84.2517V27.0367H79.9892V11.7308V11.7308ZM88.943 21.1627C88.943 20.1067 89.924 19.1457 91.7242 19.1457C93.6861 19.1457 95.264 20.0909 95.6183 20.3054V16.2197C95.6183 16.2197 94.3718 15.0191 91.3071 15.0191C88.0767 15.0191 85.3866 16.9103 85.3866 20.9804C85.3866 25.0504 87.8277 27.307 91.2985 27.307C94.0089 27.307 95.6253 25.8173 95.6253 25.8173V21.9366C95.114 22.2226 93.6893 23.2118 91.7438 23.2118C89.6837 23.2118 88.9422 22.2635 88.9422 21.1635L88.943 21.1627V21.1627ZM104.253 15.0191C101.785 15.0191 100.847 17.3582 100.658 17.7644C100.468 18.1706 100.374 18.404 100.219 18.3993C99.9498 18.3906 100.138 17.9003 100.243 17.5837C100.442 16.9842 100.862 15.4127 100.862 13.4799C100.862 12.1693 100.684 11.7308 100.684 11.7308H97.0045V27.0367H101.267V21.1925C101.267 20.2402 101.646 18.5768 102.721 18.5768C103.61 18.5768 103.889 19.2361 103.889 20.5639V27.0375H108.151V20.8201C108.151 17.8045 107.652 15.0207 104.253 15.0207V15.0191V15.0191ZM109.537 15.3027V27.036H113.799V15.3027C113.799 15.3027 113.083 15.7223 111.672 15.7223C110.262 15.7223 109.537 15.3027 109.537 15.3027" fill="white"/>
<path d="M114.264 13.3157C114.264 14.2565 113.096 15.0191 111.655 15.0191C110.214 15.0191 109.046 14.2565 109.046 13.3157C109.046 12.3749 110.214 11.6122 111.655 11.6122C113.096 11.6122 114.264 12.3749 114.264 13.3157Z" fill="white"/>
<path d="M74.3467 15.3028V27.036H78.6091V15.3028C78.6091 15.3028 77.8928 15.7224 76.4822 15.7224L74.3467 15.3028" fill="white"/>
<path d="M79.0748 13.3157C79.0748 14.2565 77.9066 15.0191 76.4656 15.0191C75.0246 15.0191 73.8564 14.2565 73.8564 13.3157C73.8564 12.3749 75.0246 11.6122 76.4656 11.6122C77.9066 11.6122 79.0748 12.3749 79.0748 13.3157Z" fill="white"/>
</g>
<defs>
<clipPath id="clip0_97_5331">
<rect width="146.046" height="39.2863" fill="white"/>
</clipPath>
</defs>
</svg>
