<svg width="41" height="41" viewBox="0 0 41 41" fill="none" xmlns="http://www.w3.org/2000/svg">
<rect x="2.55127" y="2.55127" width="35.8974" height="35.8974" rx="2.05128" fill="#455C64"/>
<path fill-rule="evenodd" clip-rule="evenodd" d="M9.74971 11.9591C9.79755 11.4888 9.9432 11.0319 10.1783 10.6147C10.4135 10.1974 10.7335 9.82787 11.1201 9.52723C11.5068 9.22659 11.9524 9.00071 12.4316 8.86249C12.9109 8.72427 13.4143 8.67642 13.9132 8.72168C14.4118 8.76831 14.8958 8.90709 15.3375 9.13009C15.7792 9.35308 16.17 9.65593 16.4876 10.0213C16.8052 10.3867 17.0434 10.8076 17.1885 11.2597C17.3336 11.7119 17.3828 12.1866 17.3333 12.6568C17.2855 13.1271 17.1398 13.584 16.9047 14.0012C16.6695 14.4185 16.3495 14.788 15.9629 15.0887C15.5763 15.3893 15.1306 15.6152 14.6514 15.7534C14.1721 15.8916 13.6687 15.9395 13.1699 15.8942C12.6712 15.8477 12.1871 15.709 11.7453 15.4861C11.3035 15.2631 10.9127 14.9603 10.595 14.5948C10.2774 14.2294 10.0393 13.8085 9.89424 13.3563C9.7492 12.904 9.70008 12.4293 9.74971 11.9591V11.9591ZM24.2739 11.9591C24.3217 11.4888 24.4674 11.0319 24.7025 10.6147C24.9377 10.1974 25.2577 9.82787 25.6443 9.52723C26.0309 9.22659 26.4766 9.00071 26.9558 8.86249C27.435 8.72427 27.9385 8.67642 28.4373 8.72168C28.9359 8.76831 29.4199 8.90709 29.8616 9.13009C30.3034 9.35308 30.6942 9.65593 31.0118 10.0213C31.3294 10.3867 31.5675 10.8076 31.7126 11.2597C31.8577 11.7119 31.907 12.1866 31.8575 12.6568C31.8096 13.1271 31.664 13.584 31.4288 14.0012C31.1937 14.4185 30.8737 14.788 30.4871 15.0887C30.1004 15.3893 29.6548 15.6152 29.1755 15.7534C28.6963 15.8916 28.1929 15.9395 27.694 15.8942C27.1954 15.8477 26.7113 15.709 26.2695 15.4861C25.8277 15.2631 25.4368 14.9603 25.1192 14.5948C24.8016 14.2294 24.5634 13.8085 24.4184 13.3563C24.2734 12.904 24.2242 12.4293 24.2739 11.9591V11.9591Z" fill="#2DCCD2"/>
<path fill-rule="evenodd" clip-rule="evenodd" d="M13.7936 18.0167C10.1032 18.0019 7.67969 19.8855 7.67969 23.3035V29.7434C7.67969 30.7097 8.27093 31.2692 9.50746 31.2692C10.7429 31.2692 11.333 30.7097 11.333 29.7434V23.7102C11.333 21.6386 12.2474 20.7753 13.7925 20.7753C15.3387 20.7753 16.2521 21.6386 16.2521 23.7102V29.7434C16.2521 30.7097 16.8422 31.2692 18.0787 31.2692C19.3141 31.2692 19.9053 30.7097 19.9053 29.7434V23.3046C19.9053 19.8866 17.5246 18.0029 13.7925 18.0189M28.4676 18.1866C24.7287 18.1718 22.2737 20.0076 22.2737 23.3375V29.6128C22.2737 30.5546 22.8728 31.0994 24.124 31.0994C25.3774 31.0994 25.9754 30.5546 25.9754 29.6128V23.7336C25.9754 21.7161 26.9011 20.8741 28.4665 20.8741C30.033 20.8741 30.9587 21.715 30.9587 23.7336V29.6128C30.9587 30.5546 31.5578 31.0994 32.809 31.0994C34.0624 31.0994 34.6604 30.5546 34.6604 29.6128V23.3375C34.6604 20.0076 32.2481 18.1718 28.4665 18.1877" fill="white"/>
</svg>
