<svg width="40" height="40" viewBox="0 0 40 40" fill="none" xmlns="http://www.w3.org/2000/svg">
<path d="M28.223 3.33301H11.7763C7.11321 3.33301 3.33301 7.11321 3.33301 11.7763V28.223C3.33301 32.8862 7.11321 36.6663 11.7763 36.6663H28.223C32.8862 36.6663 36.6663 32.8862 36.6663 28.223V11.7763C36.6663 7.11321 32.8862 3.33301 28.223 3.33301Z" fill="url(#paint0_linear_11819_12987)"/>
<path d="M14.4389 27.9444H10.7222C10.5209 27.9439 10.3281 27.8638 10.1859 27.7213C10.0437 27.5788 9.96389 27.3858 9.96389 27.1844V21.4611C9.96344 21.3044 9.90093 21.1544 9.79001 21.0438C9.67909 20.9333 9.52886 20.8711 9.37223 20.8711C9.21588 20.8716 9.06608 20.9338 8.95551 21.0444C8.84496 21.1549 8.78266 21.3048 8.78223 21.4611V27.1844C8.78266 27.6988 8.98719 28.1919 9.35093 28.5558C9.71464 28.9194 10.2078 29.1239 10.7222 29.1244H14.4389V27.9444Z" fill="white"/>
<path d="M30.6224 18.0499H29.9558V19.2315H30.0408V27.1849C30.0403 27.3864 29.9601 27.5794 29.8176 27.7219C29.6753 27.8642 29.4823 27.9444 29.2808 27.9449H25.5508V29.1249H29.2808C29.7951 29.1244 30.2883 28.9199 30.6521 28.5562C31.0158 28.1924 31.2203 27.6992 31.2208 27.1849V18.6399C31.2208 18.5617 31.2053 18.4843 31.1751 18.4121C31.1449 18.34 31.1008 18.2746 31.0451 18.2197C30.9894 18.1648 30.9233 18.1215 30.8508 18.0924C30.7783 18.0632 30.7006 18.0488 30.6224 18.0499Z" fill="white"/>
<path d="M19.9553 23.38C19.5126 23.3807 19.074 23.2942 18.6647 23.125C18.2555 22.956 17.8836 22.708 17.5703 22.395C16.9387 21.762 16.584 20.9042 16.584 20.01C16.584 19.1158 16.9387 18.2581 17.5703 17.625C18.2034 16.9934 19.0611 16.6387 19.9553 16.6387C20.8495 16.6387 21.7073 16.9934 22.3403 17.625C22.4502 17.7358 22.512 17.8856 22.512 18.0417C22.512 18.1978 22.4502 18.3475 22.3403 18.4584C22.2295 18.5683 22.0797 18.63 21.9237 18.63C21.7675 18.63 21.6178 18.5683 21.507 18.4584C21.0957 18.0476 20.5383 17.8169 19.957 17.8169C19.3757 17.8169 18.8183 18.0476 18.407 18.4584C17.9962 18.8696 17.7655 19.4271 17.7655 20.0084C17.7655 20.5897 17.9962 21.147 18.407 21.5584C18.8187 21.9684 19.376 22.1985 19.957 22.1985C20.538 22.1985 21.0953 21.9684 21.507 21.5584C21.5617 21.5035 21.6267 21.46 21.6982 21.4304C21.7697 21.4007 21.8462 21.3854 21.9237 21.3854C22.001 21.3854 22.0777 21.4007 22.1492 21.4304C22.2207 21.46 22.2857 21.5035 22.3403 21.5584C22.4502 21.6692 22.512 21.8189 22.512 21.975C22.512 22.1312 22.4502 22.2809 22.3403 22.3917C22.0273 22.7052 21.6557 22.954 21.2463 23.1235C20.837 23.2932 20.3983 23.3804 19.9553 23.38Z" fill="white"/>
<path d="M19.996 30.6367C19.9002 30.6365 19.8058 30.613 19.721 30.5683C19.6362 30.5237 19.5636 30.459 19.5093 30.38L14.9043 23.6667C14.1219 22.5272 13.745 21.1577 13.8341 19.7783C13.9233 18.3988 14.4734 17.0893 15.396 16.06C15.975 15.4128 16.6839 14.8948 17.4765 14.5399C18.2691 14.185 19.1276 14.001 19.996 14C20.864 13.9997 21.7222 14.1825 22.5145 14.5366C23.307 14.8908 24.0157 15.4082 24.5943 16.055C25.5182 17.0834 26.0698 18.3924 26.1605 19.7718C26.2512 21.1513 25.8757 22.5212 25.0943 23.6617L20.4893 30.38C20.4345 30.46 20.3607 30.5252 20.2747 30.5698C20.1887 30.6147 20.093 30.6377 19.996 30.6367ZM19.996 15.18C19.2937 15.181 18.5994 15.3299 17.9584 15.617C17.3175 15.9042 16.7442 16.3232 16.276 16.8467C15.5284 17.6787 15.0826 18.7381 15.0104 19.8543C14.9381 20.9705 15.2436 22.0785 15.8777 23L19.996 29L24.1127 23C24.7468 22.079 25.0525 20.9713 24.9805 19.8553C24.9087 18.7395 24.4632 17.6803 23.716 16.8483C23.248 16.3245 22.6747 15.9052 22.0338 15.6178C21.3928 15.3303 20.6985 15.1812 19.996 15.18Z" fill="white"/>
<path d="M29.2726 12.3494H25.6426C25.4966 12.349 25.3538 12.3067 25.2313 12.2276C25.1086 12.1484 25.0113 12.0356 24.951 11.9027L24.3193 10.501C24.1651 10.1611 23.9165 9.87277 23.603 9.67034C23.2893 9.46791 22.9241 9.35996 22.551 9.35938H17.416C17.0483 9.36024 16.6885 9.46507 16.3779 9.66179C16.0674 9.85849 15.8188 10.139 15.661 10.471L14.981 11.9144C14.9193 12.0443 14.822 12.1541 14.7005 12.2311C14.579 12.3081 14.4381 12.3491 14.2943 12.3494H10.7193C10.205 12.3503 9.71212 12.5549 9.34848 12.9186C8.98485 13.2822 8.78018 13.7751 8.7793 14.2894V18.6394C8.77908 18.717 8.79418 18.7939 8.82373 18.8657C8.85328 18.9374 8.8967 19.0027 8.95152 19.0576C9.00632 19.1126 9.07143 19.1562 9.14313 19.186C9.21482 19.2157 9.29168 19.231 9.3693 19.231H10.126V18.0494H9.9593V14.2894C9.95973 14.0881 10.04 13.8952 10.1825 13.7531C10.325 13.6109 10.518 13.531 10.7193 13.531H14.2943C14.6619 13.5301 15.0217 13.425 15.332 13.228C15.6423 13.031 15.8904 12.75 16.0476 12.4177L16.7293 10.976C16.7906 10.8457 16.8877 10.7354 17.0093 10.6581C17.1308 10.5807 17.2719 10.5396 17.416 10.5394H22.551C22.6968 10.5401 22.8395 10.5826 22.962 10.6617C23.0846 10.7409 23.182 10.8534 23.2426 10.986L23.8743 12.3894C24.0285 12.7293 24.2771 13.0176 24.5906 13.2201C24.9043 13.4225 25.2695 13.5305 25.6426 13.531H29.2726C29.474 13.531 29.667 13.6109 29.8095 13.7531C29.952 13.8952 30.0321 14.0881 30.0326 14.2894V16.1427C30.0325 16.2203 30.0475 16.2972 30.0771 16.369C30.1066 16.4408 30.15 16.506 30.2048 16.561C30.2596 16.6159 30.3248 16.6596 30.3965 16.6893C30.4681 16.7191 30.545 16.7344 30.6226 16.7344C30.7003 16.7344 30.7771 16.7191 30.8488 16.6893C30.9205 16.6596 30.9856 16.6159 31.0405 16.561C31.0953 16.506 31.1386 16.4408 31.1681 16.369C31.1978 16.2972 31.2128 16.2203 31.2126 16.1427V14.2894C31.2118 13.7751 31.0071 13.2822 30.6435 12.9186C30.2798 12.5549 29.7868 12.3503 29.2726 12.3494Z" fill="white"/>
<path d="M14.8672 18.6398C14.8672 18.4833 14.805 18.3333 14.6944 18.2226C14.5838 18.112 14.4337 18.0498 14.2772 18.0498H9.96387V19.2315H14.2772C14.3548 19.2315 14.4317 19.2162 14.5034 19.1864C14.5751 19.1567 14.6402 19.1131 14.695 19.0581C14.7498 19.0031 14.7932 18.9379 14.8228 18.8661C14.8523 18.7944 14.8674 18.7174 14.8672 18.6398Z" fill="url(#paint1_linear_11819_12987)"/>
<path d="M25.0781 18.6398C25.0781 18.4833 25.1403 18.3333 25.251 18.2226C25.3616 18.112 25.5118 18.0498 25.6681 18.0498H29.9815V19.2315H25.6681C25.5906 19.2315 25.5138 19.2162 25.442 19.1864C25.3703 19.1566 25.3053 19.113 25.2505 19.0581C25.1956 19.0031 25.1521 18.9379 25.1226 18.8661C25.0931 18.7943 25.078 18.7174 25.0781 18.6398Z" fill="url(#paint2_linear_11819_12987)"/>
<path d="M20.6895 28.5334C20.6895 28.3769 20.7516 28.2269 20.8623 28.1162C20.973 28.0055 21.123 27.9434 21.2795 27.9434H25.5945V29.1234H21.2745C21.119 29.1215 20.9705 29.0587 20.861 28.9484C20.7515 28.8379 20.69 28.6889 20.6895 28.5334Z" fill="url(#paint3_linear_11819_12987)"/>
<path d="M19.2898 28.5363C19.2898 28.3798 19.2276 28.2298 19.1169 28.1191C19.0063 28.0085 18.8562 27.9463 18.6998 27.9463H14.3848V29.1263H18.7048C18.8602 29.1245 19.0088 29.0616 19.1182 28.9513C19.2277 28.8408 19.2893 28.6918 19.2898 28.5363Z" fill="url(#paint4_linear_11819_12987)"/>
<defs>
<linearGradient id="paint0_linear_11819_12987" x1="9.65634" y1="6.90634" x2="22.823" y2="23.573" gradientUnits="userSpaceOnUse">
<stop stop-color="#3A85DB"/>
<stop offset="1" stop-color="#0967D2"/>
</linearGradient>
<linearGradient id="paint1_linear_11819_12987" x1="9.95887" y1="18.6398" x2="14.8622" y2="18.6398" gradientUnits="userSpaceOnUse">
<stop offset="0.1" stop-color="white"/>
<stop offset="0.85" stop-color="white" stop-opacity="0"/>
</linearGradient>
<linearGradient id="paint2_linear_11819_12987" x1="29.9865" y1="18.6398" x2="25.0831" y2="18.6398" gradientUnits="userSpaceOnUse">
<stop offset="0.1" stop-color="white"/>
<stop offset="0.85" stop-color="white" stop-opacity="0"/>
</linearGradient>
<linearGradient id="paint3_linear_11819_12987" x1="25.5503" y1="28.535" x2="20.6453" y2="28.535" gradientUnits="userSpaceOnUse">
<stop stop-color="white"/>
<stop offset="0.85" stop-color="white" stop-opacity="0"/>
</linearGradient>
<linearGradient id="paint4_linear_11819_12987" x1="14.4389" y1="28.5346" x2="19.3439" y2="28.5346" gradientUnits="userSpaceOnUse">
<stop stop-color="white"/>
<stop offset="0.85" stop-color="white" stop-opacity="0"/>
</linearGradient>
</defs>
</svg>
