<svg width="126" height="36" viewBox="0 0 126 36" fill="none" xmlns="http://www.w3.org/2000/svg">
<g clip-path="url(#clip0_97_5332)">
<path fill-rule="evenodd" clip-rule="evenodd" d="M26.8558 4.20012L22.8057 11.7397C22.6774 11.9791 22.7229 12.2723 22.9184 12.463L23.3811 12.9156C23.5758 13.1055 23.873 13.1508 24.1163 13.0254C25.564 12.282 30.1506 9.92623 31.8322 9.06246C32.1709 8.88839 32.2742 8.46211 32.0536 8.15614C30.8878 6.54232 29.4358 5.12191 27.7853 3.98234C27.4716 3.7661 27.0344 3.86784 26.8558 4.20012Z" fill="white"/>
<path fill-rule="evenodd" clip-rule="evenodd" d="M20.6453 10.5264C21.512 9.18487 24.2585 4.93564 25.2873 3.3431C25.5012 3.01275 25.367 2.57409 25.0035 2.41008C23.1759 1.58499 21.2419 1.07903 19.2283 0.902639C18.8291 0.867438 18.488 1.18425 18.5045 1.57571L18.8519 10.0316C18.8632 10.3121 19.0603 10.5527 19.3378 10.6254L19.9584 10.7879C20.2222 10.8567 20.4997 10.7515 20.6453 10.5264Z" fill="white"/>
<path fill-rule="evenodd" clip-rule="evenodd" d="M35.2064 16.5565C35.0262 14.564 34.5034 12.65 33.6461 10.8451C33.4852 10.5063 33.0562 10.3813 32.7327 10.5809L25.4396 15.0885C25.1637 15.2591 25.033 15.5852 25.117 15.8939L25.263 16.4304C25.3344 16.6927 25.5715 16.8791 25.849 16.89L34.5505 17.2315C34.9324 17.2466 35.2402 16.9287 35.2064 16.5565Z" fill="white"/>
<path fill-rule="evenodd" clip-rule="evenodd" d="M3.42148 9.08337L11.0674 13.01C11.3277 13.1438 11.6468 13.0966 11.8548 12.8936L12.2745 12.4835C12.4821 12.2804 12.5308 11.9687 12.3938 11.7141L8.37748 4.23727C8.18868 3.88526 7.72471 3.77657 7.39303 4.00672C5.76916 5.13353 4.33841 6.53305 3.18557 8.12096C2.95006 8.44511 3.06153 8.89847 3.42148 9.08337Z" fill="white"/>
<path fill-rule="evenodd" clip-rule="evenodd" d="M16.3619 10.0133L16.7077 1.59608C16.7242 1.19379 16.3741 0.868087 15.9639 0.904448C13.964 1.082 12.0437 1.58371 10.2299 2.40067C9.85542 2.56933 9.71843 3.02268 9.93863 3.36347L14.5437 10.4891C14.7031 10.7359 15.0077 10.8527 15.2962 10.7769L15.8571 10.6303C16.1456 10.5549 16.3497 10.3046 16.3619 10.0133Z" fill="white"/>
<path fill-rule="evenodd" clip-rule="evenodd" d="M1.56959 10.8375C0.709177 12.6447 0.185158 14.5634 0.00538247 16.5644C-0.0275895 16.9327 0.276224 17.2468 0.653831 17.2321L9.36903 16.8897C9.64301 16.8789 9.87774 16.6948 9.94839 16.4356L10.1187 15.8093C10.189 15.5513 10.0795 15.2782 9.84869 15.1355L2.47278 10.5764C2.15327 10.3791 1.72935 10.5025 1.56959 10.8375Z" fill="white"/>
<path fill-rule="evenodd" clip-rule="evenodd" d="M27.8129 32.2139C29.4423 31.0844 30.8774 29.6814 32.0322 28.088C32.2649 27.7674 32.155 27.319 31.799 27.1361L24.1417 23.2033C23.8842 23.0714 23.569 23.1178 23.3633 23.3189L22.9358 23.7371C22.7301 23.9382 22.6823 24.2465 22.8173 24.498L26.8395 31.9857C27.0263 32.3338 27.4852 32.4413 27.8129 32.2139Z" fill="white"/>
<path fill-rule="evenodd" clip-rule="evenodd" d="M8.41638 31.9045L12.4134 24.4636C12.5375 24.2326 12.4935 23.9495 12.3047 23.7646L11.8914 23.3607C11.6606 23.1348 11.3065 23.0822 11.0172 23.2308L3.4961 27.0936C3.09651 27.299 2.97091 27.8041 3.23429 28.1631C4.36162 29.7 5.75076 31.0581 7.32281 32.1605C7.68982 32.4182 8.20638 32.2951 8.41638 31.9045Z" fill="white"/>
<path fill-rule="evenodd" clip-rule="evenodd" d="M18.8503 26.2174L18.5104 34.4923C18.4912 34.963 18.901 35.3472 19.3806 35.3007C21.2777 35.1174 23.1033 34.6443 24.8312 33.885C25.2881 33.6842 25.4526 33.1303 25.1853 32.7168L20.6764 25.7401C20.5127 25.4863 20.1994 25.3668 19.9035 25.4441L19.3685 25.5842C19.0725 25.6615 18.8625 25.9184 18.8503 26.2174Z" fill="white"/>
<path fill-rule="evenodd" clip-rule="evenodd" d="M14.5387 25.7372L9.94778 32.8412C9.72286 33.189 9.8626 33.6524 10.2449 33.8241C12.047 34.6345 13.9578 35.132 15.9479 35.3111C16.3671 35.349 16.7243 35.0163 16.7078 34.6055L16.3632 26.2146C16.3506 25.9171 16.1422 25.6618 15.8474 25.5848L15.3069 25.4436C15.0125 25.3663 14.7016 25.4854 14.5387 25.7372Z" fill="white"/>
<path fill-rule="evenodd" clip-rule="evenodd" d="M33.6893 25.281C34.5065 23.5329 35.0117 21.6847 35.1965 19.7618C35.2378 19.3367 34.8837 18.9731 34.4472 18.9901L25.8812 19.3251C25.5848 19.3363 25.3309 19.5351 25.2543 19.8156L25.1122 20.3393C25.031 20.6379 25.1578 20.9528 25.4243 21.1176L32.6451 25.5831C33.0145 25.8109 33.5075 25.6697 33.6893 25.281Z" fill="white"/>
<path fill-rule="evenodd" clip-rule="evenodd" d="M0.0158954 19.7644C0.201166 21.688 0.705559 23.5351 1.52201 25.2789C1.70453 25.6688 2.19872 25.8108 2.56926 25.5814L9.78698 21.1186C10.0543 20.9535 10.1815 20.637 10.0998 20.3376L9.96715 19.8499C9.8855 19.5493 9.61348 19.3358 9.29554 19.3234L0.76797 18.9903C0.330307 18.9729 -0.0249271 19.3377 0.0158954 19.7644Z" fill="white"/>
<path fill-rule="evenodd" clip-rule="evenodd" d="M52.669 20.2763C52.0767 19.905 51.2885 19.5823 50.3056 19.3092C49.3212 19.0362 48.1146 18.7027 46.6846 18.3093C45.8128 18.0691 45.1475 17.8173 44.6894 17.5554C44.2313 17.2931 44.0021 16.9438 44.0021 16.506C44.0021 16.0039 44.2313 15.6488 44.6894 15.441C45.1475 15.2333 45.8238 15.1293 46.718 15.1293C47.6565 15.1293 48.3552 15.2987 48.8133 15.6375C49.1874 15.9145 49.446 16.3261 49.5897 16.873C49.6486 17.099 49.8523 17.2603 50.0905 17.2603H53.3061C53.6076 17.2603 53.8435 16.9988 53.8019 16.7067C53.6032 15.308 53.0188 14.192 52.0488 13.3588C50.9533 12.4196 49.2211 11.9496 46.8522 11.9496C45.5553 11.9496 44.4602 12.0753 43.5668 12.3263C42.6722 12.5778 41.9453 12.9112 41.3871 13.3263C40.8282 13.7417 40.4199 14.2225 40.1632 14.7687C39.9061 15.3153 39.7778 15.8948 39.7778 16.506C39.7778 17.1841 39.8728 17.796 40.0628 18.3422C40.2523 18.8888 40.6213 19.3913 41.1693 19.85C41.7165 20.3092 42.4819 20.73 43.4659 21.1122C44.4492 21.4948 45.7457 21.8611 47.3551 22.2104C48.2488 22.4073 48.9142 22.6367 49.3499 22.8989C49.7856 23.1612 50.0034 23.5871 50.0034 24.1774C50.0034 24.7023 49.7071 25.0903 49.1151 25.3417C48.5228 25.5928 47.8131 25.7185 46.9861 25.7185C46.0024 25.7185 45.2032 25.5108 44.5889 25.0953C44.0845 24.7553 43.7878 24.2977 43.6971 23.7221C43.661 23.4916 43.4514 23.3252 43.2131 23.3252L39.6533 23.3248C39.388 23.3248 39.1784 23.5507 39.2067 23.8088C39.2785 24.4714 39.4634 25.0806 39.7613 25.6365C40.1299 26.325 40.6547 26.9149 41.3369 27.4066C42.0187 27.8982 42.8399 28.2754 43.8011 28.5376C44.7616 28.7999 45.8344 28.931 47.0194 28.931C49.4339 28.931 51.2552 28.4556 52.4845 27.5052C53.7135 26.5544 54.3286 25.3576 54.3286 23.9151C54.3286 22.9759 54.1995 22.227 53.9432 21.6696C53.6857 21.1122 53.261 20.648 52.669 20.2763Z" fill="white"/>
<path fill-rule="evenodd" clip-rule="evenodd" d="M66.5802 21.686C66.5802 22.7571 66.2952 23.6368 65.7253 24.3253C65.1554 25.0135 64.3114 25.3577 63.1939 25.3577C61.3385 25.3577 60.4113 24.3528 60.4113 22.3417V12.9876C60.4113 12.6495 60.1311 12.3756 59.7852 12.3756H56.5705C56.2847 12.3756 56.0527 12.6023 56.0527 12.882V22.9973C56.0527 23.894 56.1921 24.7021 56.472 25.4235C56.751 26.1445 57.1365 26.7673 57.6287 27.2922C58.1198 27.8167 58.7062 28.221 59.3884 28.5049C60.0702 28.7888 60.8246 28.9312 61.6517 28.9312C63.9224 28.9312 65.6174 28.0593 66.736 26.3151C66.7494 26.2938 66.7816 26.302 66.7816 26.3267V27.8844C66.7816 28.2276 67.0654 28.5049 67.4159 28.5049H70.2275C70.6016 28.5049 70.905 28.2082 70.905 27.8423V13.0541C70.905 12.6793 70.5946 12.3756 70.2111 12.3756H67.2334C66.8726 12.3756 66.5802 12.6615 66.5802 13.0143V21.686Z" fill="white"/>
<path fill-rule="evenodd" clip-rule="evenodd" d="M86.7574 13.3263C86.2765 12.8675 85.7015 12.5233 85.031 12.2935C84.3602 12.0641 83.6337 11.9492 82.8518 11.9492C81.5101 11.9492 80.415 12.1844 79.5655 12.654C78.7161 13.1244 78.0347 13.818 77.5209 14.7363V12.9704C77.5209 12.6416 77.2485 12.3755 76.9125 12.3755H73.9717C73.6357 12.3755 73.3633 12.6416 73.3633 12.9704V27.9273C73.3633 28.2491 73.6251 28.5125 73.954 28.5218L77.0746 28.6096C77.4169 28.6193 77.6995 28.3508 77.7003 28.0162L77.7219 19.2601C77.7219 16.7903 78.8504 15.5556 81.1082 15.5556C82.1358 15.5556 82.8623 15.7745 83.2871 16.2112C83.7118 16.6487 83.9245 17.49 83.9245 18.7356V27.9102C83.9245 28.239 84.1965 28.5048 84.5325 28.5048H87.7084C88.0441 28.5048 88.3165 28.239 88.3165 27.9102V17.3256C88.3165 16.4518 88.1763 15.6817 87.8972 15.0144C87.6174 14.3479 87.2378 13.7851 86.7574 13.3263Z" fill="white"/>
<path fill-rule="evenodd" clip-rule="evenodd" d="M104.957 14.2769C104.375 13.5342 103.666 12.9606 102.828 12.5556C101.99 12.1517 101.034 11.9494 99.961 11.9494C97.927 11.9494 96.2949 12.7908 95.0663 14.4738V7.0016C95.0663 6.71071 94.8245 6.47437 94.5269 6.47437H91.3137C91.0162 6.47437 90.7744 6.71071 90.7744 7.0016V27.9778C90.7744 28.2687 91.0162 28.505 91.3137 28.505H94.4355C94.7299 28.505 94.9697 28.2741 94.9744 27.9867L94.9991 26.538C96.0052 28.1337 97.5356 28.9313 99.5924 28.9313C100.62 28.9313 101.575 28.7344 102.459 28.341C103.341 27.948 104.096 27.3797 104.722 26.6363C105.347 25.8936 105.839 24.9865 106.197 23.9154C106.555 22.8446 106.734 21.6316 106.734 20.2761C106.734 19.0526 106.583 17.9324 106.281 16.9162C105.979 15.8997 105.538 15.0204 104.957 14.2769ZM101.269 24.0956C100.575 25.0027 99.6812 25.4561 98.5868 25.4561C97.5356 25.4561 96.6587 25.0298 95.9545 24.1776C95.2507 23.3251 94.8983 22.2103 94.8983 20.8336C94.8983 17.3371 96.1167 15.5883 98.553 15.5883C101.056 15.5883 102.308 17.2493 102.308 20.5713C102.308 22.0141 101.961 23.1889 101.269 24.0956Z" fill="white"/>
<path fill-rule="evenodd" clip-rule="evenodd" d="M109.246 28.5049H112.354C112.699 28.5049 112.979 28.2314 112.979 27.8933V12.9868C112.979 12.6495 112.699 12.3756 112.354 12.3756H109.246C108.901 12.3756 108.621 12.6495 108.621 12.9868V27.8933C108.621 28.2314 108.901 28.5049 109.246 28.5049Z" fill="white"/>
<path fill-rule="evenodd" clip-rule="evenodd" d="M125.815 25.9562C125.815 25.5489 125.476 25.2189 125.059 25.2197L122.243 25.2267C121.349 25.2267 120.706 24.9482 120.316 24.3908C119.924 23.8333 119.729 23.0415 119.729 22.0137V15.3917H125.061C125.477 15.3917 125.815 15.0622 125.815 14.6552V13.1118C125.815 12.7053 125.477 12.3757 125.061 12.3757H119.729V7.25883C119.729 6.85228 119.392 6.52271 118.976 6.52271H116.191C115.775 6.52271 115.438 6.85228 115.438 7.25883V22.44C115.438 23.3142 115.56 24.1447 115.806 24.9315C116.052 25.7183 116.449 26.4069 116.997 26.9968C117.544 27.5871 118.242 28.0574 119.092 28.4064C119.941 28.756 120.969 28.9313 122.176 28.9313C122.322 28.9313 122.466 28.9282 122.607 28.9228H125.061C125.477 28.9228 125.815 28.5932 125.815 28.1866V25.9562Z" fill="white"/>
<path fill-rule="evenodd" clip-rule="evenodd" d="M112.811 8.4752C112.811 9.57416 111.9 10.4658 110.775 10.4658C109.651 10.4658 108.74 9.57416 108.74 8.4752C108.74 7.37586 109.651 6.48462 110.775 6.48462C111.9 6.48462 112.811 7.37586 112.811 8.4752Z" fill="white"/>
</g>
<defs>
<clipPath id="clip0_97_5332">
<rect width="126" height="36" fill="white"/>
</clipPath>
</defs>
</svg>
