<svg width="131" height="38" viewBox="0 0 131 38" fill="none" xmlns="http://www.w3.org/2000/svg">
<path d="M32.9638 1.00446L27.7715 3.62446V28.8717H32.9638V1.00446Z" fill="white"/>
<path d="M44.1589 4.148C44.1112 5.76764 42.7774 7.05382 41.1578 7.05382C39.5381 7.00618 38.252 5.67237 38.252 4.05273C38.2996 2.43309 39.5858 1.14691 41.2054 1.14691C42.8727 1.14691 44.1589 2.48073 44.1589 4.148ZM43.7778 28.8713H38.633V8.81637H43.8254L43.7778 28.8713Z" fill="white"/>
<path d="M66.3116 28.872H61.1669V18.0109C61.1669 14.4382 59.976 13.3426 57.8324 13.3426C55.6887 13.3426 54.4502 14.4382 54.4502 17.9157V28.872H49.2578V8.76948H54.4502V10.1033C55.6887 8.91239 57.356 8.29312 59.0709 8.34075C64.0727 8.34075 66.3593 11.8658 66.3593 17.5346L66.3116 28.872Z" fill="white"/>
<path d="M88.6015 28.8714H82.4564L80.4556 25.5368C79.7411 24.3459 79.0266 23.0597 78.6455 22.2976C78.312 23.0597 77.5498 24.3936 76.8353 25.5368L74.8346 28.8714H68.6895L75.7396 18.0103L69.8327 8.81647H75.9778L76.9305 10.4361C77.5975 11.627 78.3596 12.9132 78.7407 13.6754C79.1218 12.9132 79.8364 11.627 80.5509 10.4361L81.5036 8.81647H87.6487L81.7418 18.0103L88.6015 28.8714Z" fill="white"/>
<path d="M108.038 28.8717H102.893V27.5378C101.655 28.7287 99.9876 29.348 98.2727 29.3004C93.2709 29.3004 90.9844 25.7753 90.9844 20.1066V8.7691H96.1767V19.6302C96.1767 23.2029 97.3676 24.2986 99.5113 24.2986C101.655 24.2986 102.893 23.2029 102.893 19.7255V8.7691H108.086V28.8717H108.038Z" fill="white"/>
<path d="M130.045 19.0588C130.045 25.061 127.283 29.253 122.424 29.253C120.899 29.253 119.423 28.729 118.279 27.681V33.5879L113.087 36.2079V8.76934H118.279V10.0555C119.375 8.95988 120.899 8.38824 122.424 8.38824C126.616 8.38824 130.045 11.5799 130.045 19.0588ZM124.805 19.2017C124.805 15.0573 123.472 13.3424 121.423 13.3424C120.137 13.2948 118.946 13.9141 118.232 15.0097V22.5839C119.041 23.7272 120.328 24.3464 121.709 24.2988C123.71 24.2988 124.805 22.5362 124.805 19.2017Z" fill="white"/>
<path d="M0.427734 17.2008L20.2921 7.05426L15.6237 28.8717L11.5746 18.487L0.427734 17.2008Z" fill="white"/>
</svg>
