<svg width="72" height="72" viewBox="0 0 72 72" fill="none" xmlns="http://www.w3.org/2000/svg">
<path d="M36 7C30.2643 7 24.6575 8.71759 19.8885 11.9356C15.1194 15.1536 11.4024 19.7274 9.20751 25.0787C7.01257 30.43 6.43827 36.3185 7.55724 41.9994C8.67621 47.6803 11.4382 52.8986 15.4939 56.9943C19.5496 61.09 24.7169 63.8793 30.3424 65.0093C35.9678 66.1393 41.7988 65.5593 47.0978 63.3427C52.3969 61.1261 56.9261 57.3725 60.1126 52.5564C63.2992 47.7404 65 42.0782 65 36.286C65 32.4401 64.2499 28.6319 62.7925 25.0787C61.3351 21.5256 59.199 18.2971 56.5061 15.5777C53.8132 12.8582 50.6163 10.701 47.0978 9.22926C43.5794 7.7575 39.8083 7 36 7ZM34.4245 55.4829C33.3136 55.4829 32.2482 55.0372 31.4627 54.244C30.6772 53.4507 30.2359 52.3748 30.2359 51.2529V29.1503H26.3679C24.5546 29.2449 22.8464 30.0389 21.596 31.3686C20.3457 32.6982 19.6485 34.4619 19.6485 36.2955C19.6485 38.1292 20.3457 39.8929 21.596 41.2225C22.8464 42.5521 24.5546 43.3462 26.3679 43.4408H28V47.7184H26.3679C23.3655 47.7247 20.4835 46.5263 18.356 44.3868C16.2286 42.2472 15.0299 39.3419 15.0236 36.3098C15.0173 33.2778 16.2041 30.3674 18.3227 28.2189C20.4413 26.0705 23.3183 24.8599 26.3208 24.8536H34.4245V55.4829ZM45.6604 47.6612H37.6038V17.0891C38.7147 17.0891 39.7801 17.5347 40.5656 18.328C41.3512 19.1213 41.7925 20.1972 41.7925 21.3191V43.355H45.6698C47.4832 43.2604 49.1913 42.4664 50.4417 41.1367C51.6921 39.8071 52.3892 38.0434 52.3892 36.2098C52.3892 34.3761 51.6921 32.6124 50.4417 31.2828C49.1913 29.9532 47.4832 29.1591 45.6698 29.0645H44.0377V24.8536H45.6415C46.216 24.806 46.7934 24.806 47.3679 24.8536C48.8509 24.9668 50.2972 25.3739 51.6244 26.0516C52.9515 26.7293 54.1335 27.6644 55.1028 28.8034C56.0722 29.9424 56.8098 31.263 57.2737 32.6899C57.7377 34.1168 57.9187 35.622 57.8066 37.1196C57.6945 38.6172 57.2914 40.0778 56.6203 41.418C55.9492 42.7583 55.0233 43.9519 53.8954 44.9308C52.7675 45.9097 51.4598 46.6546 50.0468 47.1231C48.6338 47.5916 47.1433 47.7745 45.6604 47.6612Z" fill="#2CA01C"/>
</svg>
