<svg width="72" height="72" viewBox="0 0 72 72" fill="none" xmlns="http://www.w3.org/2000/svg">
<path d="M58.7409 10H50.1714V22.4848H62.7107V13.5204C62.7141 13.5204 62.091 10.3405 58.7409 10Z" fill="#1967D2"/>
<path d="M50.1747 62.9421V62.9727V63L62.714 50.5152H62.6016L50.1747 62.9421Z" fill="#1967D2"/>
<path d="M62.7146 50.5158V50.4028L62.6016 50.5158H62.7146Z" fill="#FBBC05"/>
<path d="M62.714 22.4849H50.1747V50.403H62.714V22.4849Z" fill="#FBBC05"/>
<path d="M62.6016 50.5152H50.1747V62.9421L62.6016 50.5152Z" fill="#EA4335"/>
<path d="M50.1748 50.5152H62.6017L62.7141 50.4028H50.1748V50.5152Z" fill="#EA4335"/>
<path d="M50.1441 62.9735H50.1751V62.9424L50.1441 62.9735Z" fill="#34A853"/>
<path d="M22.2569 50.4028V62.9727H50.1443L50.1749 50.4028H22.2569Z" fill="#34A853"/>
<path d="M50.1747 50.5152V50.4028L50.1441 62.9727L50.1747 62.9421V50.5152Z" fill="#34A853"/>
<path d="M10 50.4028V59.1425C10.1124 61.9786 13.1629 62.9727 13.1629 62.9727H22.2567V50.4028H10Z" fill="#188038"/>
<path d="M22.2567 22.4848H50.1747V10H13.517C13.517 10 10.2247 10.3405 10 13.8575V50.4028H22.2567V22.4848Z" fill="#4285F4"/>
<path d="M31.3903 44.7519C30.7516 44.7519 30.1357 44.6683 29.5426 44.501C28.9647 44.3337 28.4325 44.0828 27.9458 43.7483C27.4592 43.3985 27.0258 42.9651 26.6456 42.448C26.2806 41.931 25.9993 41.3303 25.8016 40.646L28.6074 39.5282C28.8051 40.2886 29.1396 40.8665 29.6111 41.2619C30.0825 41.642 30.6756 41.8321 31.3903 41.8321C31.7097 41.8321 32.0138 41.7865 32.3028 41.6953C32.5917 41.5888 32.8426 41.4443 33.0555 41.2619C33.2684 41.0794 33.4357 40.8665 33.5574 40.6231C33.6942 40.3646 33.7627 40.0757 33.7627 39.7563C33.7627 39.0872 33.5117 38.5625 33.0099 38.1824C32.5233 37.8022 31.8465 37.6121 30.9797 37.6121H29.6339V34.8976H30.8657C31.1698 34.8976 31.4664 34.8595 31.7553 34.7835C32.0442 34.7075 32.2952 34.5934 32.5081 34.4413C32.7362 34.2741 32.9111 34.0688 33.0327 33.8254C33.1696 33.5669 33.238 33.2704 33.238 32.9358C33.238 32.4188 33.0555 32.0006 32.6905 31.6812C32.3256 31.3466 31.8313 31.1794 31.2078 31.1794C30.5387 31.1794 30.0217 31.3618 29.6567 31.7268C29.3069 32.0766 29.0636 32.472 28.9267 32.913L26.1894 31.7953C26.3263 31.4151 26.5316 31.0273 26.8053 30.6319C27.079 30.2213 27.4212 29.8563 27.8318 29.537C28.2576 29.2024 28.7518 28.9363 29.3145 28.7386C29.8772 28.5257 30.5235 28.4192 31.2535 28.4192C31.9986 28.4192 32.6753 28.5257 33.2836 28.7386C33.9071 28.9515 34.4394 29.248 34.8804 29.6282C35.3214 29.9932 35.6636 30.4342 35.9069 30.9512C36.1502 31.4531 36.2719 32.0006 36.2719 32.5936C36.2719 33.0499 36.2111 33.4605 36.0894 33.8254C35.9829 34.1904 35.8385 34.5174 35.656 34.8063C35.4735 35.0953 35.2606 35.3462 35.0173 35.5591C34.7892 35.7568 34.5535 35.9165 34.3101 36.0381V36.2206C35.0401 36.5095 35.6408 36.9734 36.1122 37.6121C36.5988 38.2508 36.8422 39.0568 36.8422 40.0301C36.8422 40.7144 36.7129 41.3455 36.4544 41.9234C36.1959 42.486 35.8233 42.9803 35.3366 43.4061C34.8652 43.8319 34.2949 44.1589 33.6258 44.387C32.9567 44.6303 32.2115 44.7519 31.3903 44.7519Z" fill="#4285F4"/>
<path d="M42.2896 44.387V32.2971L39.5294 33.4605L38.4345 30.9284L43.0195 28.7842H45.2778V44.387H42.2896Z" fill="#4285F4"/>
</svg>
