<svg width="155" height="22" viewBox="0 0 155 22" fill="none" xmlns="http://www.w3.org/2000/svg">
<g clip-path="url(#clip0_97_5181)">
<path fill-rule="evenodd" clip-rule="evenodd" d="M114.209 18.3369C112.823 18.3369 112.146 17.4749 112.148 16.5823C112.148 15.4143 113.017 14.8298 114.113 14.6767L117.846 14.1435V14.8199C117.845 17.4956 116.011 18.3369 114.208 18.3369H114.209ZM114.959 6.13501C119.248 6.13501 121.977 8.26476 121.977 12.4492V20.9534H118.032L118.047 19.2729C117.258 20.4597 115.562 21.3701 113.464 21.3691C110.082 21.3681 108.023 19.183 108.024 16.8153C108.024 14.109 110.118 12.6023 112.759 12.234C112.759 12.234 117.097 11.7205 117.713 11.6366C117.713 9.85047 116.047 9.44565 114.387 9.44565C112.687 9.44565 111.335 10.0391 110.29 10.7391L108.743 8.04655C110.365 6.89923 112.496 6.13501 114.959 6.13501V6.13501ZM23.3216 8.09987C24.3978 6.66918 26.0033 6.16266 27.6561 6.16266C31.0872 6.16266 33.5349 8.4415 33.5349 11.7926V20.981H29.465V13.0426C29.465 10.9593 28.3739 9.81196 26.5177 9.81196C24.771 9.81196 23.3216 10.8981 23.3216 13.0732V20.982H19.2507V0.634399H23.3216V8.09888V8.09987ZM77.1922 11.7916V20.9801H73.1381V13.0416C73.1381 10.9583 72.0313 9.81097 70.1908 9.81097C68.4442 9.81097 66.9937 10.8971 66.9937 13.0722V20.981H62.9248V13.0426C62.9248 10.9573 61.8338 9.81097 59.9775 9.81097C58.2318 9.81097 56.7814 10.8971 56.7814 13.0722V20.981H52.7115V6.54971H56.6718V8.24699C57.748 6.71361 59.4009 6.16167 61.1169 6.16167C63.299 6.16167 65.0931 7.09967 66.1061 8.63404C67.2761 6.80247 69.2558 6.16167 71.2364 6.16167C74.791 6.16167 77.1932 8.44051 77.1932 11.7916H77.1922ZM95.419 13.7565C95.419 18.091 92.2683 21.3523 88.1046 21.3523C86.0153 21.3523 84.5649 20.5486 83.5825 19.3874V20.9801H79.6063V0.64921H83.6605V8.05445C84.6429 6.92293 86.0617 6.16266 88.0888 6.16266C92.2683 6.16266 95.418 9.42491 95.418 13.7585L95.419 13.7565ZM83.543 13.7565C83.543 16.0363 85.1188 17.7336 87.4263 17.7336C89.8275 17.7336 91.3244 15.9613 91.3244 13.7575C91.3244 11.5527 89.8275 9.78135 87.4263 9.78135C85.1188 9.78135 83.543 11.4796 83.543 13.7575V13.7565ZM137.567 8.88779L134.634 11.2259C133.716 10.2879 132.733 9.78135 131.407 9.78135C129.302 9.78135 127.618 11.3602 127.618 13.7575C127.618 16.1696 129.287 17.7336 131.392 17.7336C132.701 17.7336 133.825 17.1678 134.682 16.2743L137.582 18.642C136.164 20.3847 134.042 21.3523 131.517 21.3523C126.698 21.3523 123.47 18.1355 123.47 13.7575C123.47 9.39332 126.698 6.16167 131.517 6.16167C134.042 6.16167 136.177 7.14509 137.567 8.8868V8.88779ZM153.195 6.54971L147.721 11.9437L154.029 20.981H149.077L144.867 14.4476L143.027 16.2644V20.981H138.957V0.64921H143.027V11.9151L148.297 6.55069H153.196L153.195 6.54971ZM46.0428 19.4319C44.9666 20.8616 43.3611 21.3691 41.7083 21.3691C38.2772 21.3691 35.8295 19.0912 35.8295 15.7401V6.55069H39.8994V14.4881C39.8994 16.5725 40.9905 17.7198 42.8467 17.7198C44.5934 17.7198 46.0428 16.6327 46.0428 14.4585V6.54872H50.1127V20.9801H46.0428V19.4309V19.4319ZM95.9561 6.55069H98.1708V2.26158H102.226V6.55069H106.736V10.0065H102.226V16.1114C102.226 17.1214 102.958 17.7346 103.759 17.7346C104.603 17.7346 105.701 17.2271 105.701 17.2271L107.013 20.3185C107.013 20.3185 105.619 21.3375 102.506 21.3375C100.448 21.3375 98.1708 19.8495 98.1708 16.9595V10.0045H95.9561V6.54872V6.55069ZM11.1177 6.15575V15.3224C11.1177 16.9022 10.6833 18.4554 9.85687 19.8248L8.94257 21.3375L8.02926 19.8238C7.20583 18.4662 6.76946 16.9093 6.7674 15.3215V8.09888C7.84758 6.66424 9.45995 6.15575 11.1177 6.15575ZM0 4.52166V0.634399H17.8861V4.52166H0Z" fill="white"/>
</g>
<defs>
<clipPath id="clip0_97_5181">
<rect width="154.029" height="21.8208" fill="white" transform="translate(0 0.0917358)"/>
</clipPath>
</defs>
</svg>
