<svg width="34" height="35" viewBox="0 0 34 35" fill="none" xmlns="http://www.w3.org/2000/svg">
<rect x="0.333008" y="0.953186" width="33.3333" height="33.3333" rx="4" fill="#07C0CA"/>
<path fill-rule="evenodd" clip-rule="evenodd" d="M22.8963 7.35703L18.3423 12.4966L3.15138 16.4813C2.79357 16.6602 2.79357 16.6602 2.5984 17.018C2.53334 17.197 2.53334 17.4409 2.66345 17.6198C2.79357 17.7987 2.97248 17.9288 3.15138 17.9776L13.1865 20.889L9.55954 26.6303C9.42942 26.8092 9.42942 27.0531 9.49448 27.2971C9.55954 27.476 9.73844 27.6549 9.91735 27.72C10.0963 27.785 10.3402 27.785 10.5354 27.72L22.4572 23.1822C22.6361 23.1172 22.8312 22.9383 22.88 22.7594L27.1901 11.6996L30.3291 10.8539C30.5731 10.7888 30.817 10.6099 30.8821 10.3659C31.0122 10.0081 30.817 9.52019 30.3942 9.40633L23.7583 7.11306C23.677 7.08053 23.5957 7.06427 23.5143 7.06427C23.2866 7.06427 23.0752 7.17812 22.8963 7.35703ZM23.7583 8.7395L27.4503 10.0732L25.9703 10.431L21.1072 11.6996L23.7583 8.7395ZM15.7075 19.9782L15.0244 19.7992L14.1623 19.5553L6.2904 17.262L19.0742 13.879L25.2872 12.2526L21.5951 21.7347L15.7075 19.9782ZM14.7804 21.3769L19.3344 22.7594L12.2106 25.4755L14.7804 21.3769Z" fill="white"/>
</svg>
