<svg width="208" height="57" viewBox="0 0 208 57" fill="none" xmlns="http://www.w3.org/2000/svg">
<g clip-path="url(#clip0_97_5180)">
<path d="M6.47923 49.3059V51.6461H3.4785V49.3059H2.70703V54.6755H3.47652V52.3383H6.47824V54.6755H7.25268V49.3059H6.47923ZM11.4111 49.3059V54.6755H14.5257V53.9823H12.1816V52.3126H14.3792V51.6243H12.1816V50.0031H14.4564V49.3069L11.4111 49.3059ZM20.2944 50.4587L21.161 52.3997H19.4893L20.2944 50.4587ZM20.035 49.2752L17.7295 54.6795H18.5148L19.1952 53.0969H21.4739L22.19 54.6795H22.9753L20.5767 49.2752H20.035ZM26.0859 49.3049V50.0021H27.9379V54.6755H28.7084V50.0021H30.5652V49.3059L26.0859 49.3049ZM34.2671 49.3049H35.0406V54.6755H34.2671V49.3049ZM43.4436 49.3049V53.4643L39.8071 49.3049H39.1921V54.6755H39.915V50.5438L43.505 54.6755H44.1626V49.3059L43.4436 49.3049ZM53.0222 54.3081C52.3061 54.621 51.7218 54.7488 50.9751 54.7488C49.3312 54.7488 48.12 53.6 48.12 52.0254C48.12 50.4507 49.3619 49.2395 50.9989 49.2395C51.6287 49.2395 52.0704 49.3406 52.9102 49.6961V50.4745C52.2794 50.1259 51.6287 49.9476 50.983 49.9476C49.8184 49.9476 48.9172 50.838 48.9172 52.0026C48.9172 53.1662 49.8105 54.0407 51.087 54.0407C51.505 54.0407 51.8803 53.9476 52.2517 53.8278V52.7255H51.2197V52.0323H53.0222V54.3081ZM68.5308 52.0056C68.3833 52.4393 68.0585 52.9662 67.6594 53.4178L68.7438 54.6795H67.7534L67.1374 53.9446C66.469 54.5517 65.9272 54.7488 65.44 54.7488C64.7042 54.7488 64.0852 54.1883 64.0852 53.4713C64.0852 52.8265 64.6042 52.3225 65.3548 51.8897C65.0409 51.5569 64.7468 51.1004 64.7468 50.6438C64.7468 49.8981 65.2885 49.4099 66.1243 49.4099C66.879 49.4099 67.4118 49.9209 67.4118 50.5745C67.4118 51.0935 67.1186 51.5223 66.4303 52.0056L67.184 52.8721C67.4019 52.6522 67.6405 52.2769 67.7564 52.0056H68.5308ZM65.7916 52.4007C65.1954 52.78 64.8597 53.0543 64.8597 53.4722C64.8824 53.7783 65.1726 54.0367 65.5212 54.0367C65.9114 54.0367 66.2986 53.7783 66.67 53.4099L65.7955 52.3997L65.7916 52.4007ZM65.9966 51.4876C66.5729 51.1281 66.6967 50.8885 66.6967 50.6131C66.6967 50.3002 66.4373 50.0605 66.0817 50.0605C65.7529 50.0605 65.5014 50.2844 65.5014 50.5706C65.5014 50.9033 65.7688 51.2638 65.9966 51.4837M84.3446 54.6755H83.5592L82.8442 53.093H80.5615L79.8851 54.6755H79.0997L81.4052 49.2752H81.947L84.3446 54.6755ZM80.8586 52.4007H82.5263L81.6608 50.4587L80.8556 52.3997L80.8586 52.4007ZM87.9197 49.3059H88.6892V54.6755H87.9197V49.3059ZM94.2182 49.3059C95.3007 49.3059 95.9781 49.8823 95.9781 50.8112C95.9781 51.4331 95.6562 51.8976 95.0798 52.1264C95.5671 52.4473 95.8652 52.9424 96.2752 53.6119C96.5079 53.9783 96.6396 54.1645 97.011 54.6755H96.09L95.3819 53.5723C94.6738 52.47 94.3519 52.3462 93.9578 52.3462H93.6369V54.6755H92.8674V49.3059H94.2212H94.2182ZM93.6369 51.65H94.1281C94.956 51.65 95.1878 51.2281 95.1848 50.7795C95.1769 50.2764 94.8788 49.9674 94.1281 49.9674H93.6369V51.65ZM112.484 50.5052C111.823 50.119 111.258 49.9476 110.635 49.9476C109.409 49.9476 108.5 50.8221 108.5 52.0026C108.5 53.1821 109.381 54.0407 110.667 54.0407C111.274 54.0407 111.934 53.8278 112.539 53.4336V54.2764C111.943 54.5981 111.274 54.7608 110.597 54.7488C108.581 54.7488 107.699 53.1979 107.699 52.0719C107.699 50.4319 108.934 49.2366 110.643 49.2366C111.193 49.2366 111.749 49.3713 112.485 49.6773L112.484 50.5052ZM119.099 49.2366C120.872 49.2366 121.985 50.4973 121.985 51.9897C121.985 53.4881 120.899 54.7448 119.084 54.7448C117.266 54.7448 116.222 53.4485 116.222 51.9907C116.222 50.5359 117.358 49.2366 119.099 49.2366ZM119.099 54.0367C120.303 54.0367 121.192 53.1662 121.192 51.9907C121.192 50.8142 120.303 49.9437 119.099 49.9437C117.896 49.9437 117.015 50.8102 117.015 51.9907C117.015 53.1702 117.908 54.0367 119.099 54.0367ZM130.868 54.6755H130.206L126.62 50.5438V54.6755H125.897V49.3059H126.511L130.145 53.4653V49.3059H130.868V54.6755ZM135.027 49.3059H137.116C139.092 49.3059 139.967 50.726 139.967 51.9897C139.967 53.3673 138.891 54.6755 137.123 54.6755H135.03V49.3059H135.027ZM135.797 53.9833H137.023C138.768 53.9833 139.17 52.6523 139.17 51.9947C139.17 50.9152 138.488 50.0021 136.984 50.0021H135.796V53.9862L135.797 53.9833ZM143.904 49.3059H144.674V54.6755H143.904V49.3059ZM152.86 50.0021H151.003V54.6755H150.234V50.0021H148.377V49.3059H152.86V50.0021ZM156.562 49.3059H157.336V54.6755H156.562V49.3059ZM164.137 49.2366C165.909 49.2366 167.023 50.4973 167.023 51.9897C167.023 53.4881 165.936 54.7448 164.121 54.7448C162.303 54.7448 161.259 53.4485 161.259 51.9907C161.259 50.5359 162.396 49.2366 164.137 49.2366ZM164.137 54.0367C165.34 54.0367 166.23 53.1662 166.23 51.9907C166.23 50.8142 165.34 49.9437 164.137 49.9437C162.934 49.9437 162.051 50.8102 162.051 51.9907C162.051 53.1702 162.946 54.0367 164.137 54.0367ZM175.905 54.6755H175.244L171.658 50.5438V54.6755H170.934V49.3059H171.549L175.181 53.4653V49.3059H175.904L175.905 54.6755ZM180.068 49.3059H180.837V54.6755H180.068V49.3059ZM189.963 54.6755H189.302L185.712 50.5438V54.6755H184.992V49.3059H185.604L189.235 53.4653V49.3059H189.963V54.6755ZM198.814 54.3081C198.099 54.621 197.518 54.7488 196.772 54.7488C195.128 54.7488 193.917 53.6 193.917 52.0254C193.917 50.4507 195.158 49.2395 196.794 49.2395C197.425 49.2395 197.862 49.3406 198.706 49.6961V50.4745C198.079 50.1259 197.421 49.9476 196.78 49.9476C195.615 49.9476 194.71 50.838 194.71 52.0026C194.71 53.1662 195.607 54.0407 196.884 54.0407C197.298 54.0407 197.676 53.9476 198.044 53.8278V52.7255H197.015V52.0323H198.818V54.3081H198.814Z" fill="#E4E4E4"/>
<path d="M204.373 40.1066C204.065 40.1068 203.759 40.046 203.474 39.9277C203.189 39.8095 202.93 39.6361 202.712 39.4176C202.494 39.1991 202.322 38.9397 202.204 38.6543C202.087 38.3689 202.027 38.0632 202.028 37.7546C202.028 37.4468 202.088 37.1419 202.206 36.8574C202.324 36.573 202.496 36.3147 202.714 36.0972C202.932 35.8798 203.191 35.7075 203.476 35.5903C203.76 35.4732 204.065 35.4134 204.373 35.4144C204.681 35.4135 204.986 35.4734 205.271 35.5906C205.556 35.7078 205.814 35.88 206.032 36.0974C206.25 36.3148 206.423 36.5731 206.541 36.8575C206.66 37.1418 206.72 37.4467 206.72 37.7546C206.721 38.0632 206.661 38.369 206.543 38.6543C206.425 38.9397 206.253 39.199 206.035 39.4175C205.817 39.6359 205.558 39.8093 205.273 39.9275C204.987 40.0458 204.682 40.1067 204.373 40.1066ZM204.373 35.8007C203.294 35.8007 202.419 36.6751 202.419 37.7586C202.419 38.2773 202.625 38.7748 202.992 39.1416C203.359 39.5084 203.856 39.7145 204.375 39.7145C204.894 39.7145 205.391 39.5084 205.758 39.1416C206.125 38.7748 206.331 38.2773 206.331 37.7586C206.331 37.5013 206.281 37.2466 206.183 37.0088C206.085 36.7711 205.94 36.5551 205.759 36.3732C205.577 36.1914 205.361 36.0472 205.123 35.9489C204.885 35.8506 204.63 35.8003 204.373 35.8007ZM203.347 36.5355H204.461C205.085 36.5355 205.297 36.9227 205.297 37.197C205.297 37.6031 205.003 37.8932 204.578 37.9249V37.9358C204.794 38.0141 204.954 38.23 205.162 38.5667L205.468 39.0579H204.972L204.749 38.6637C204.432 38.0953 204.307 37.9863 203.998 37.9863H203.754V39.0579H203.348L203.347 36.5355ZM204.342 37.6348C204.655 37.6348 204.864 37.5149 204.864 37.2515C204.864 37.0237 204.678 36.8801 204.416 36.8801H203.758V37.6348H204.342ZM39.9226 37.7813C39.9226 37.7813 39.8919 39.3986 41.3308 39.8046C41.3308 39.8046 43.9255 39.9363 46.9669 36.6137L50.2944 33.2941C50.2944 33.2941 48.8584 36.0374 48.4415 38.2686C48.1196 39.9631 50.7658 40.1027 50.8708 39.2906C50.9668 38.5479 54.9401 29.3209 55.4125 29.8467C55.8611 30.3498 55.9225 31.7116 58.8093 30.3419C59.3342 30.0874 58.4647 31.8007 58.0963 33.0386C57.7259 34.2963 56.7157 37.5298 56.689 38.4627C56.6425 40.0403 59.1569 40.3849 59.3778 38.3963C59.8452 34.122 62.9479 28.2493 63.7254 26.6598C64.275 25.5338 62.0269 25.3635 62.0269 25.3635C62.0269 25.3635 61.4129 26.1726 58.739 27.6809C58.538 27.7928 56.0502 29.2753 56.3751 27.4917C56.5761 26.3459 55.0559 26.4469 54.847 26.5281C54.3478 26.7292 53.3466 29.2317 53.4932 27.1322C53.5199 26.8024 52.2325 26.2885 51.4471 27.5571C46.6965 35.2589 42.8906 36.6553 42.747 36.7405C41.7527 37.3555 42.0241 36.0601 42.0241 36.0601C42.7698 35.5026 46.1706 32.4662 46.9708 31.255C48.0424 29.6269 48.6346 27.3867 48.6346 26.4043C48.6346 27.2016 48.8356 21.3021 43.7522 26.6212C42.7698 27.6413 40.8585 30.8995 39.8335 35.6422C39.7017 35.7353 37.2457 37.7972 36.5723 36.8999C36.5723 36.8999 36.8506 34.9886 37.2219 34.1072C37.5983 33.2248 38.9015 30.8995 39.1333 29.2704C39.369 27.6343 37.3507 27.6155 36.805 28.385C35.9226 29.6427 33.5894 31.8274 33.5894 31.8274C33.5894 31.8274 33.6825 30.9926 34.1935 27.874C34.34 26.9688 32.8268 25.7467 31.5354 27.2669C28.6842 30.6172 25.427 33.917 25.427 33.917C25.427 33.917 29.017 27.5452 29.9033 26.0092C30.9977 24.1097 28.3168 24.1523 27.7097 25.2209C27.1452 26.2221 22.1619 34.8489 21.8836 36.6632C21.7212 37.7041 21.2181 39.4917 22.5372 39.6382C24.6337 39.8709 24.2554 39.3986 25.0091 38.1527C25.5439 37.2594 30.6035 31.4065 30.557 31.4531C30.557 31.4531 28.9278 36.0136 28.5535 36.8029C28.2742 37.3911 28.1742 37.9398 29.3458 38.1527C30.2084 38.3042 30.859 37.8972 31.1185 37.4991C32.0543 36.0562 32.9357 35.87 34.2866 34.2924C34.2866 34.2924 33.4042 39.4996 35.4076 39.7313C37.0833 39.9244 39.5591 38.0992 39.9335 37.7774M80.0778 26.849C80.0778 26.849 79.2301 26.8955 78.6815 26.8024C75.7302 26.3033 70.9093 33.4377 70.2131 34.845C70.2131 34.845 67.7412 36.3968 66.0695 37.0624C62.7122 38.4003 63.5045 36.4929 64.5998 34.0557C65.3921 32.2879 68.3403 29.0812 68.3403 29.0812C68.1086 29.7745 67.4886 30.7598 68.0967 31.3134C68.2205 31.4253 69.4465 32.1879 69.6832 31.2669C70.2477 29.0545 71.8768 27.4066 71.8263 27.4521C72.5265 26.7559 71.447 24.0909 68.2829 26.6173C66.6498 27.9205 65.8566 28.6177 63.2916 31.9671C63.3381 31.9057 59.6095 36.6712 61.5209 38.7568C62.6806 40.0245 64.6424 40.0145 66.8786 39.0341C67.555 38.741 69.5396 37.41 70.0041 37.0346C70.4725 36.6632 69.5396 38.8529 72.1007 39.0351C73.6406 39.144 76.7661 35.6878 76.7661 35.6878C75.3965 40.4394 78.7666 39.2015 79.2846 38.6637C80.263 37.6387 84.368 32.6633 84.368 32.6633C84.368 32.6633 83.6718 34.1795 84.0431 36.4315C84.5225 39.4065 87.2112 36.9811 87.4281 36.788C88.0936 36.18 92.5769 31.1273 92.5769 31.1273C92.5769 31.1273 90.6388 35.4214 90.3367 37.8744C90.0585 40.1492 90.8626 40.3849 91.6905 40.3849C91.645 40.3849 93.5167 35.1738 94.6734 32.482C95.6519 30.2033 95.9777 29.3635 95.9777 28.0136C95.9777 25.0188 93.9158 26.6212 93.7415 26.6212L86.9795 33.6001C86.9795 33.6001 88.4224 30.1102 88.983 27.874C89.5405 25.6418 87.6292 25.5497 86.8864 26.3845C86.2367 27.1124 79.7064 34.1993 79.7064 34.1993C79.7064 34.1993 81.8951 29.2704 82.4061 27.6888C82.8627 26.2924 82.0813 26.1756 81.3811 26.1102C80.9137 26.0637 80.0778 26.853 80.0778 26.853M63.5164 22.2924C63.5164 23.058 64.1661 23.673 64.9712 23.673C65.7754 23.673 66.4221 23.058 66.4221 22.2924C66.4221 21.5299 65.7724 20.9109 64.9712 20.9109C64.1661 20.9109 63.5164 21.5299 63.5164 22.2924ZM14.8779 40.5741C15.28 41.3713 18.0965 42.1804 17.7251 39.7818C17.5706 38.8024 17.7291 37.0663 19.7751 30.946C19.8682 30.6677 21.8251 30.6212 22.1084 30.6677C25.7677 31.2709 24.9596 28.2454 22.7155 28.2454L20.3367 28.2919C20.4288 27.0847 22.762 18.7134 22.762 18.7134C22.762 18.7134 22.6234 15.1779 20.3357 17.828C16.3743 22.4192 10.2164 29.41 10.2164 29.41C8.53777 29.6417 7.09089 29.3169 5.8797 29.1783C4.94383 29.0693 3.38108 30.4429 5.8797 31.6888C6.0649 31.7819 8.2585 32.0136 8.2585 32.0136C8.2585 32.0136 3.78217 37.8705 3.31473 38.3419C2.8463 38.8073 1.6361 40.5008 2.70765 41.0811C3.37712 41.4446 4.619 41.4575 4.7111 40.896C4.93591 39.5689 10.766 32.3345 11.7524 31.6888L17.0676 31.1312L15.5781 36.6177C14.0847 35.5491 12.6804 35.46 13.2448 36.4315C14.2708 38.2032 14.0381 36.8524 14.8779 40.5741ZM19.6365 21.8775C19.4117 22.8144 17.6281 28.5742 17.6281 28.5742L13.4776 29.0396L19.6325 21.8785L19.6365 21.8775ZM44.9129 28.4821C46.0775 26.946 45.6755 28.5167 45.1912 29.41C44.0731 31.4877 43.7988 31.7274 43.0441 32.5276C42.9976 32.5741 43.9533 29.7428 44.9129 28.4771M78.0199 30.0131C77.3079 31.8591 74.1507 35.4144 74.0546 35.5026C73.1187 36.385 73.1682 35.5026 73.1682 35.5026C74.522 30.2964 77.7377 29.2704 77.7377 29.2704C78.4378 28.9931 78.2526 29.41 78.015 30.0131M110.705 37.4763C109.819 37.708 106.662 37.5763 105.807 37.0109C105.525 36.8227 105.246 36.3117 105.711 35.662C106.337 34.7905 108.043 34.4508 108.043 34.4508C108.043 34.4508 106.6 33.5219 103.428 35.0549C100.731 36.3622 102.561 38.8578 103.521 39.2906C105.772 40.3008 111.761 40.8999 115.787 37.615C118.863 35.1045 119.571 32.1216 115.834 29.0545C114.91 28.2998 109.838 24.3078 114.48 22.1261C117.258 20.8188 120.075 21.2863 120.075 21.2863C120.075 21.2863 120.256 23.8205 122.407 22.9183C124.658 21.9706 124.365 20.1256 121.942 19.4294C119.896 18.8411 115.091 18.4816 111.962 21.008C111.962 21.008 107.769 23.6621 110.097 27.2441C112.469 30.8886 119.517 35.1629 110.705 37.4763ZM136.256 36.1067C136.256 34.6172 139.429 30.2924 139.754 29.5496C139.754 29.5496 141.262 27.6383 138.449 28.3385C138.144 28.4117 137.699 25.2664 133.927 27.0807L127.352 27.4066C127.352 27.4066 130.473 21.9666 131.034 21.2209C131.578 20.5009 130.941 20.3345 130.941 20.3345C130.009 20.3345 128.67 19.9939 128.19 20.292C127.351 20.803 124.6 27.3095 124.6 27.3095C124.6 27.3095 120.205 27.6769 119.609 27.774C119.374 27.7967 116.828 28.3583 118.399 30.331C120.395 32.8495 120.172 30.331 120.217 30.2845C120.267 30.2379 120.267 30.0983 120.779 30.1458C121.289 30.1914 123.107 30.0062 123.107 30.0062L120.314 36.6593C120.314 36.6593 119.892 35.4956 119.521 35.2629C119.15 35.0272 119.289 35.6343 119.428 36.8871C119.49 37.4525 118.96 41.5882 121.575 39.7274C121.773 39.5808 122.995 38.0438 123.482 36.1453C123.858 34.7024 126.376 29.9131 126.376 29.9131L130.059 29.4952C130.059 29.4952 123.858 35.9591 126.094 38.2805C128.809 41.1089 132.902 36.6563 132.902 36.6563C132.902 36.6563 132.298 39.0777 133.695 39.3055C136.624 39.7927 140.72 34.7757 142.743 31.9126C142.743 31.9126 141.359 37.9556 143.208 38.5162C144.825 39.0074 151.262 30.5588 151.088 30.9341C149.738 33.816 148.848 37.8665 148.848 38.8875C148.848 39.6996 149.266 40.377 149.873 40.6058C150.859 40.9881 151.549 36.8881 152.206 34.8876C152.856 32.8871 154.395 29.6804 154.581 27.8631C154.631 27.3877 153.424 24.5781 148.984 30.4697C148.845 30.6559 147.262 32.2345 145.958 33.3516C144.763 34.3696 144.744 34.1874 144.976 33.817C145.207 33.4446 146.423 30.0062 146.794 28.7019C147.742 25.3873 145.27 26.2181 143.672 27.8166C143.672 27.8166 142.512 28.9228 141.525 30.4657C138.822 34.6984 136.252 36.2344 136.252 36.0987M163.112 27.1778C161.316 24.494 156.535 29.5031 156.535 29.5031C153.444 33.0584 152.105 36.787 153.505 38.8063C155.606 41.8318 159.587 37.2594 159.757 36.7603C159.571 37.3139 159.746 42.7568 165.262 37.5882C165.262 37.5882 166.798 40.8375 170.059 38.4468C172.368 36.7563 172.299 35.8284 172.299 35.8284C172.299 35.8284 172.354 37.1396 172.408 37.9279C172.481 38.938 172.198 40.7523 175.607 38.2032C175.796 38.0596 179.761 34.1527 180.319 33.0386C180.319 33.0386 178.593 38.8529 178.829 39.3639C179.061 39.8789 180.62 39.5263 180.786 39.1361C182.836 34.1527 184.469 31.8274 184.469 31.8274C184.469 31.8274 186.601 27.9978 190.114 29.3635C190.114 29.3635 189.874 26.9688 187.034 27.5492C187.03 27.5492 186.083 27.7353 185.494 28.2493C185.123 28.5742 185.494 27.8314 185.494 26.95C185.494 26.0686 184.001 26.2994 183.491 26.4845C183.088 26.6281 180.833 29.5992 180.833 29.5992C179.885 30.8965 177.742 33.8933 175.649 35.5689C174.883 36.1829 174.431 36.8494 174.86 34.532C175.169 32.8534 177.138 29.0079 176.961 28.3919C176.868 28.0681 176.581 27.9483 175.931 28.2067C175.7 28.2998 175.231 28.6712 175.556 27.1352C175.885 25.6002 173.506 26.2073 172.995 26.3924C172.009 26.7519 170.569 27.7888 170.569 27.7888C168.547 29.1585 165.75 32.9386 165.255 34.2538C165.255 34.2538 164.845 35.6888 164.539 35.9175C160.716 38.7529 163.575 31.6967 163.575 31.6967C165.63 26.2073 169.823 21.0931 170.148 19.7889C170.477 18.4856 168.608 18.6747 168.237 18.6747C167.865 18.6747 163.112 27.1857 163.112 27.1857M197.104 36.5781C195.719 37.3327 195.347 37.812 196.353 34.5776C197.243 31.7393 199.901 25.5061 202.419 21.4645C202.419 21.4645 202.977 20.5316 203.82 19.6958C204.288 19.2283 205.031 19.0422 203.398 18.3459C201.654 17.5992 201.626 18.6708 199.761 21.8359C197.893 24.9961 197.433 26.2994 197.433 26.2994C197.433 26.2994 197.181 27.5175 196.299 26.2607C195.881 25.6695 194.403 25.615 192.686 26.946C192.686 26.946 189.971 28.5504 187.916 33.507C185.468 39.4213 190.206 41.7041 192.767 38.021C194.188 35.9829 193.839 38.021 193.839 38.021C193.839 38.021 193.924 41.1089 195.939 39.1817C195.939 39.1817 197.618 37.9329 198.504 37.2782L199.297 36.6286C199.297 36.6286 200.95 35.5531 199.205 35.8819C197.479 36.2067 197.108 36.5781 197.108 36.5781M128.84 34.5905C129.85 32.281 132.353 30.2726 134.063 29.3367C136.233 28.1414 134.236 31.3946 134.248 31.3788C133.548 32.5395 132.136 34.4429 130.705 35.3332C128.233 36.8682 128.186 36.076 128.84 34.5905ZM158.538 35.5115C156.98 37.6882 155.366 36.8603 155.788 35.3718C156.066 34.3924 158.005 31.1352 159.893 29.5576C161.339 28.3464 162.128 29 161.062 31.1817C161.062 31.1817 160.717 32.4702 158.538 35.5115ZM172.392 29.8359C172.299 30.1607 170.57 32.7177 170.57 32.7177C170.57 32.7177 171.325 33.0148 171.413 33.2288C171.843 34.2924 170.024 35.7501 169.529 36.1146C167.355 37.5803 167.228 35.4719 167.85 34.3389C168.926 32.385 170.562 30.5786 171.784 29.7933C172.577 29.2783 172.484 29.511 172.392 29.8398M194.775 30.6747C194.616 31.2986 194.024 33.9745 192.175 35.8205C189.104 38.8836 189.677 35.3451 189.677 35.3451C190.229 32.9812 191.8 30.7559 192.794 29.7467C194.895 27.6036 195.008 29.7467 194.771 30.6747" fill="white"/>
<path d="M24.4949 7.02341C24.4949 7.65327 24.2622 8.10585 23.7908 8.38513C23.4966 8.56339 23.0945 8.65252 22.5915 8.65252H20.5098V3.31262H22.4677C23.0213 3.31262 23.454 3.43146 23.7749 3.67607C24.1354 3.94643 24.3097 4.3495 24.3097 4.88626C24.3097 5.27349 24.1809 5.59435 23.9304 5.84194C24.3047 6.09349 24.4949 6.48467 24.4949 7.01846V7.02341ZM23.2411 4.89518C23.2411 4.67829 23.1678 4.52875 23.0133 4.44655C22.9084 4.38515 22.7311 4.35346 22.4865 4.35346H21.609V5.47254H22.4875C22.7271 5.47254 22.9004 5.43689 23.0124 5.37153C23.1678 5.28636 23.2411 5.12791 23.2411 4.89617V4.89518ZM23.4035 7.03035C23.4035 6.78672 23.3223 6.61638 23.1599 6.52428C23.0361 6.46585 22.847 6.43119 22.5915 6.43119H21.609V7.6196H22.5915C22.8549 7.6196 23.0401 7.58791 23.1599 7.52254C23.3223 7.43341 23.4035 7.271 23.4035 7.03035ZM31.4074 6.45001C31.4074 7.95928 30.731 8.71392 29.3654 8.71392C28.0037 8.71392 27.3183 7.95928 27.3183 6.45001V3.31361H28.4097V6.38861C28.4097 6.79068 28.4681 7.08878 28.58 7.27793C28.7266 7.52948 28.9861 7.65426 29.3614 7.65426C29.7367 7.65426 30.015 7.52948 30.1537 7.28585C30.2626 7.10759 30.3171 6.80653 30.3171 6.38861V3.31262H31.4074V6.45001ZM35.6322 8.65549H34.5369V3.31361H35.6322V8.65549ZM42.1893 8.65549H38.8429V3.31361H39.9303V7.59583H42.1932V8.65153L42.1893 8.65549ZM48.3244 4.39208H46.824V8.65549H45.7327V4.39208H44.2323V3.31262H48.3244V4.39208ZM59.4459 4.39208H57.9505V8.65549H56.8542V4.39208H55.3568V3.31262H59.4459V4.39208ZM66.3634 5.98653C66.3634 6.77187 66.1891 7.40271 65.8484 7.88204C65.4582 8.43861 64.8819 8.71392 64.1272 8.71392C63.3775 8.71392 62.8002 8.43464 62.41 7.88204C62.0653 7.40172 61.895 6.76791 61.895 5.98653C61.895 5.20119 62.0653 4.56638 62.41 4.08706C62.8012 3.53346 63.3775 3.25518 64.1272 3.25518C64.8819 3.25518 65.4582 3.53346 65.8494 4.08706C66.1891 4.56638 66.3634 5.20119 66.3634 5.98653ZM65.2612 5.98653C65.2612 4.88329 64.8858 4.33068 64.1322 4.33068C63.3775 4.33068 63.0022 4.88329 63.0022 5.98653C63.0022 7.0858 63.3775 7.63841 64.1312 7.63841C64.8858 7.63841 65.2602 7.08481 65.2602 5.98653H65.2612ZM78.3049 8.65549H77.1205L76.6372 7.31655H74.9001L74.4208 8.65549H73.2443L75.2923 3.31361H76.24L78.3059 8.65153L78.3049 8.65549ZM76.2846 6.35791L75.7667 4.92588L75.2566 6.35791H76.2846ZM89.5076 8.65549H88.4172V6.42723H86.5148V8.65549H85.4195V3.31361H86.5148V5.39431H88.4182V3.31262H89.5086L89.5076 8.65549ZM93.8136 8.65549H92.7183V3.31361H93.8136V8.65549ZM100.954 8.65549H100.038V8.2653C99.9251 8.41605 99.7781 8.5379 99.6091 8.62083C99.4615 8.68223 99.2565 8.71392 98.9891 8.71392C98.2503 8.71392 97.6858 8.43465 97.2986 7.87411C96.9619 7.39083 96.7925 6.75602 96.7925 5.98257C96.7925 5.20515 96.9629 4.57035 97.3075 4.0831C97.7017 3.5295 98.2701 3.25121 99.0208 3.25121C99.4308 3.25121 99.7863 3.34035 100.08 3.51068C100.336 3.65725 100.598 3.91276 100.87 4.26829L100.104 4.9645C99.9751 4.78769 99.8214 4.63028 99.6477 4.49706C99.458 4.38124 99.2391 4.32214 99.0168 4.32672C98.2622 4.32672 97.8878 4.88032 97.8878 5.98257C97.8878 7.08481 98.2662 7.63445 99.0248 7.63445C99.311 7.63445 99.5269 7.52948 99.6744 7.32051C99.8101 7.13136 99.8755 6.88774 99.8755 6.59361H98.9277V5.65774H100.955L100.954 8.65549ZM108.108 8.65549H107.013V6.42723H105.109V8.65549H104.019V3.31361H105.109V5.39431H107.013V3.31262H108.108V8.65549ZM114.978 8.65549H111.319V3.31361H114.978V4.39307H112.409V5.39431H114.649V6.42723H112.409V7.57602H114.978V8.65549ZM122.29 8.65549H121.021L119.95 6.86397C119.864 6.7174 119.786 6.61638 119.722 6.5738C119.655 6.52824 119.547 6.50448 119.392 6.50448H119.125V8.65945H118.034V3.31262H119.992C120.545 3.31262 120.979 3.44136 121.307 3.7038C121.667 3.991 121.845 4.40001 121.845 4.9338C121.845 5.26655 121.752 5.56068 121.574 5.8152C121.396 6.07751 121.138 6.27573 120.839 6.38068L122.294 8.65549H122.29ZM120.746 4.94172C120.746 4.55846 120.498 4.36931 119.995 4.36931H119.11V5.53791H119.995C120.498 5.53791 120.746 5.33984 120.746 4.94172ZM133.334 7.01945C133.334 7.54136 133.126 7.96721 132.711 8.28708C132.329 8.58221 131.868 8.73274 131.327 8.73274C130.17 8.73274 129.45 8.19102 129.172 7.10858L130.205 6.89962C130.351 7.4245 130.723 7.68793 131.327 7.68793C131.558 7.68793 131.759 7.63445 131.931 7.52551C132.135 7.39875 132.236 7.22841 132.236 7.01054C132.236 6.76295 131.988 6.57083 131.489 6.43911C130.7 6.22619 130.231 6.07863 130.093 6.00138C129.59 5.74291 129.342 5.33291 129.342 4.78327C129.342 4.29602 129.535 3.9088 129.914 3.63051C130.263 3.37501 130.684 3.24725 131.187 3.24725C131.686 3.24725 132.081 3.34035 132.394 3.53445C132.711 3.73054 132.971 4.03952 133.18 4.46933L132.239 4.90706C132.112 4.67928 131.968 4.51192 131.81 4.41189C131.651 4.31484 131.446 4.26136 131.183 4.26136C131.005 4.26136 130.843 4.29998 130.704 4.37723C130.525 4.47329 130.436 4.60897 130.436 4.78327C130.436 4.98827 130.684 5.15464 131.183 5.28636C131.911 5.47551 132.378 5.63001 132.579 5.74687C133.082 6.02911 133.33 6.45001 133.33 7.00757L133.334 7.01945ZM139.834 4.39208H138.332V8.65549H137.242V4.39208H135.741V3.31262H139.834V4.39208ZM146.653 8.65549H145.466L144.986 7.31655H143.249L142.77 8.65549H141.589L143.639 3.31361H144.587L146.653 8.65549ZM144.634 6.35791L144.116 4.92588L143.601 6.35791H144.634ZM153.253 8.65549H152.375L150.421 5.61119V8.65549H149.331V3.31361H150.22L152.158 6.35791V3.31262H153.253V8.65549ZM160.518 5.98653C160.518 7.01549 160.351 7.7117 160.019 8.07119C159.667 8.46237 158.987 8.65549 157.973 8.65549H156.464V3.31361H157.973C158.987 3.31361 159.671 3.50177 160.019 3.88602C160.351 4.25245 160.518 4.94964 160.518 5.98257V5.98653ZM159.424 6.34998V5.61515C159.424 5.11602 159.35 4.78723 159.196 4.62878C159.044 4.47032 158.715 4.39208 158.216 4.39208H157.559V7.57602H158.216C158.711 7.57602 159.036 7.49481 159.192 7.33636C159.35 7.17791 159.424 6.85307 159.424 6.34998ZM167.864 8.65549H166.677L166.197 7.31655H164.46L163.981 8.65549H162.805L164.851 3.31361H165.798L167.864 8.65549ZM165.845 6.35791L165.327 4.92588L164.812 6.35791H165.845ZM174.8 8.65549H173.532L172.46 6.86397C172.371 6.7174 172.298 6.61638 172.233 6.5738C172.166 6.52824 172.054 6.50448 171.9 6.50448H171.632V8.65945H170.542V3.31262H172.499C173.049 3.31262 173.485 3.44136 173.814 3.7038C174.174 3.991 174.349 4.40001 174.349 4.9338C174.355 5.24963 174.261 5.55931 174.081 5.81898C173.901 6.07866 173.644 6.27517 173.347 6.38068L174.8 8.65549ZM173.254 4.94172C173.254 4.55846 173.002 4.36931 172.507 4.36931H171.617V5.53791H172.507C173.006 5.53791 173.254 5.33984 173.254 4.94172ZM181.548 5.98653C181.548 7.01549 181.381 7.7117 181.049 8.07119C180.696 8.46237 180.016 8.65549 179.002 8.65549H177.493V3.31361H179.002C180.016 3.31361 180.7 3.50177 181.049 3.88602C181.381 4.25245 181.548 4.94964 181.548 5.98257V5.98653ZM180.452 6.34998V5.61515C180.452 5.11602 180.375 4.78723 180.225 4.62878C180.07 4.47032 179.744 4.39208 179.246 4.39208H178.588V7.57602H179.246C179.741 7.57602 180.066 7.49481 180.221 7.33636C180.375 7.17791 180.452 6.85307 180.452 6.34998ZM183.49 3.99001C183.49 4.06158 183.476 4.13249 183.448 4.19839C183.42 4.26429 183.379 4.3238 183.327 4.37327C183.277 4.42491 183.217 4.46565 183.15 4.49291C183.084 4.52018 183.012 4.53339 182.94 4.53172C182.869 4.53332 182.798 4.52006 182.732 4.49278C182.666 4.4655 182.606 4.4248 182.557 4.37327C182.504 4.32432 182.463 4.26491 182.435 4.19889C182.407 4.13286 182.393 4.0617 182.394 3.99001C182.394 3.83948 182.449 3.71172 182.557 3.60378C182.607 3.5529 182.666 3.51264 182.732 3.48541C182.798 3.45818 182.869 3.44455 182.94 3.44532C183.091 3.44532 183.218 3.4988 183.326 3.60378C183.431 3.71172 183.49 3.83948 183.49 3.99001ZM183.366 3.99001C183.367 3.93464 183.356 3.87968 183.335 3.82856C183.314 3.77745 183.282 3.73127 183.242 3.69291C183.204 3.65295 183.157 3.62128 183.106 3.59983C183.055 3.57837 183 3.56759 182.944 3.56812C182.889 3.56759 182.834 3.57829 182.783 3.59957C182.732 3.62084 182.686 3.65226 182.647 3.69192C182.607 3.73052 182.575 3.77686 182.554 3.82812C182.532 3.87937 182.522 3.93445 182.522 3.99001C182.522 4.04527 182.533 4.10001 182.554 4.15102C182.575 4.20203 182.607 4.24829 182.646 4.28711C182.684 4.32694 182.731 4.35854 182.782 4.37999C182.833 4.40144 182.888 4.41229 182.943 4.41189C182.999 4.41269 183.054 4.40213 183.105 4.38084C183.157 4.35955 183.203 4.328 183.242 4.2881C183.281 4.24928 183.313 4.20302 183.334 4.15201C183.355 4.101 183.366 4.04527 183.366 3.99001ZM183.222 4.29602H183.072L182.94 4.0831C182.932 4.06725 182.917 4.05636 182.905 4.05636H182.866V4.29602H182.735V3.68102H182.96C183.008 3.67959 183.055 3.68978 183.099 3.71073C183.149 3.74242 183.176 3.79689 183.176 3.87018C183.176 3.95535 183.141 4.00882 183.067 4.04051L183.222 4.29602ZM183.044 3.87018C183.044 3.8474 183.041 3.83056 183.025 3.82363C183.013 3.81571 182.995 3.81175 182.96 3.81175H182.867V3.92861H182.96C182.99 3.92861 183.013 3.92464 183.025 3.91672C183.041 3.9088 183.044 3.89295 183.044 3.87018Z" fill="#E4E4E4"/>
</g>
<defs>
<clipPath id="clip0_97_5180">
<rect width="205" height="52" fill="white" transform="translate(2 3)"/>
</clipPath>
</defs>
</svg>
