<svg width="80" height="68" viewBox="0 0 80 68" fill="none" xmlns="http://www.w3.org/2000/svg">
<mask id="mask0_3143_13517" style="mask-type:luminance" maskUnits="userSpaceOnUse" x="10" y="13" width="59" height="41">
<path d="M68.6045 13.9089H10.7998V53.5908H68.6045V13.9089Z" fill="white"/>
</mask>
<g mask="url(#mask0_3143_13517)">
<path d="M31.7998 14.9091H16.7998V21.9091H24.7998V24.4091H25.7998V20.9091H17.7998V15.9091H30.7998V24.4091H31.7998V14.9091Z" fill="black"/>
<path d="M31.5882 33.3645C31.3848 34.1887 31.0583 34.9701 30.6622 35.7248C29.9878 37.0147 29.0833 38.128 28.0396 39.1396C27.4669 39.6909 26.8621 40.2154 26.2145 40.6703C24.9406 41.5642 23.5597 42.2118 22.0343 42.5436C21.4563 42.6667 20.8675 42.7577 20.2734 42.7845C19.8988 42.8005 19.5188 42.8059 19.1441 42.8059C16.757 42.8059 14.3698 42.8059 11.9827 42.8059H11.7954V35.8265C11.8222 35.8265 11.8596 35.8265 11.8971 35.8265C14.0755 35.8265 16.2485 35.8265 18.4269 35.8265C18.7266 35.8265 19.0317 35.8372 19.3314 35.8265C20.4929 35.773 21.558 35.4572 22.4946 34.74C23.0406 34.3225 23.5169 33.8355 23.913 33.2735C23.9183 33.2628 23.9237 33.2574 23.929 33.2467H31.5507H31.6149C31.6096 33.2842 31.6042 33.3323 31.5935 33.3752" fill="black"/>
<path d="M17.8057 15.8999V20.9578H25.8716V24.2334H30.9455V20.9578V19.6465V15.8999H17.8057Z" fill="white"/>
<path d="M33.5634 42.7631H67.058C67.0473 42.7203 67.042 42.6829 67.0313 42.6454C66.7851 41.7194 66.4907 40.8042 66.1696 39.8997C65.5701 38.2083 64.8743 36.5598 64.034 34.9756C63.29 33.5786 62.3962 32.2941 61.2776 31.1701C60.3195 30.2013 59.2812 29.3235 58.1572 28.5475C58.1197 28.5207 58.0876 28.4939 58.0448 28.4672C58.0769 28.4404 58.0983 28.4244 58.1144 28.4137C58.9172 27.7874 59.6612 27.0916 60.3623 26.353C61.588 25.0578 62.605 23.618 63.4024 22.023C64.5264 19.7804 65.3721 17.4361 66.0358 15.0222C66.0465 14.9901 66.0465 14.958 66.0572 14.9205H33.5688V25.2504H24.9302V32.2619H33.5688V42.7631H33.5634ZM56.1875 35.8159L56.1769 35.8426C51.3759 35.8533 46.5748 35.864 41.7738 35.8694H41.2761C41.1102 35.8694 40.9442 35.8694 40.7783 35.8694V32.2887H41.7738C43.6846 32.2887 45.5954 32.2887 47.5061 32.2887C48.7318 32.2887 49.9361 32.4493 51.1189 32.7651C52.0502 33.0166 52.9173 33.418 53.7469 33.9158C54.5819 34.4189 55.3526 35.0023 56.0591 35.6714C56.1073 35.7142 56.1501 35.7623 56.1929 35.8052M40.7569 21.9481H41.6882C42.7694 21.9481 43.8452 21.9481 44.921 21.9427C48.2501 21.9427 51.5792 21.9374 54.9083 21.932H55.0743C55.0743 21.932 55.0796 21.9481 55.085 21.9588C55.0529 21.9963 55.0207 22.0337 54.9833 22.0658C54.2928 22.7456 53.5114 23.2969 52.6658 23.7625C51.6114 24.3459 50.4874 24.7366 49.3099 24.9721C48.7104 25.0952 48.1056 25.1809 47.4954 25.2237C47.4098 25.229 47.3242 25.229 47.2439 25.229C45.4027 25.229 43.5669 25.229 41.7257 25.229H40.7516V21.9481H40.7569Z" fill="black"/>
<path d="M25.0265 33.1504C25.0265 33.1504 25.0104 33.2842 24.9997 33.3056C24.2076 34.5955 23.1532 35.5964 21.7723 36.2333C21.1728 36.5116 20.5359 36.6508 19.8829 36.7364C19.4869 36.7899 19.0855 36.8007 18.684 36.8007C17.9347 36.8007 17.1854 36.8007 16.4361 36.8007C15.2425 36.8007 14.0543 36.8114 12.8607 36.8167H12.6948V41.8211H12.7162C12.7591 41.8211 12.8072 41.8211 12.85 41.8211C14.263 41.8211 15.676 41.8211 17.089 41.8265C17.7848 41.8265 18.4806 41.8372 19.1818 41.8318C21.0604 41.8318 22.8374 41.4036 24.5073 40.5419C25.3262 40.1191 26.0541 39.5785 26.7392 38.9683C27.419 38.3635 28.0559 37.7159 28.6072 36.988C29.4314 35.9015 30.0309 34.6972 30.4484 33.4019C30.4644 33.3591 30.4858 33.22 30.5019 33.1611H25.0211L25.0265 33.1504Z" fill="white"/>
<path d="M65.8162 41.8211C65.8002 41.7622 65.7895 41.7141 65.7734 41.6659C65.5915 41.1039 65.4202 40.5366 65.2221 39.9746C64.6066 38.2297 63.868 36.5438 62.9367 34.9434C62.3961 34.0175 61.802 33.1343 61.0848 32.3369C59.7521 30.8543 58.2106 29.6286 56.4979 28.6117C56.4604 28.5903 56.423 28.5635 56.3801 28.5314C56.4123 28.5046 56.4337 28.4832 56.4604 28.4725C57.3115 27.8677 58.1196 27.1987 58.8904 26.4975C60.2338 25.2772 61.3471 23.8802 62.2141 22.2799C63.2525 20.3691 64.066 18.3727 64.6869 16.2907C64.7244 16.1569 64.7618 16.0231 64.7993 15.8839C64.5799 15.8518 34.682 15.8465 34.5589 15.8839V26.2031H25.8828V31.2771H34.5642V41.8318H65.8109L65.8162 41.8211ZM57.927 36.5116C57.9751 36.5812 58.018 36.6508 58.0661 36.7257C58.0715 36.7364 58.0768 36.7525 58.0929 36.79C51.9431 36.7846 45.8094 36.7739 39.681 36.7685V31.261C39.7453 31.261 39.7934 31.2557 39.8469 31.2557C42.0681 31.2557 44.2893 31.245 46.5159 31.245C46.8905 31.245 47.2706 31.245 47.6452 31.245C48.2072 31.2503 48.7639 31.3092 49.3151 31.3895C50.1715 31.5126 51.0118 31.7106 51.8361 31.9943C53.2919 32.4974 54.5978 33.2735 55.7914 34.2423C56.605 34.906 57.3329 35.6553 57.9323 36.517M39.6757 20.9525C45.4668 20.9525 51.2473 20.9793 57.0545 20.9793C57.0117 21.0435 56.985 21.0917 56.9528 21.1345C56.5675 21.6751 56.1232 22.1729 55.6522 22.6385C54.1429 24.1425 52.3338 25.138 50.2946 25.7268C49.5934 25.9302 48.8762 26.0747 48.1537 26.1443C47.8486 26.171 47.5435 26.1817 47.2385 26.1817C44.7818 26.1817 42.325 26.1817 39.863 26.1817H39.6703V20.9525H39.6757Z" fill="white"/>
<path d="M55.0796 21.9266H54.9137C51.5845 21.9266 48.2554 21.932 44.9263 21.9373C43.8505 21.9373 42.7693 21.9373 41.6935 21.9427H40.7622V25.2236H41.7363C43.5775 25.2236 45.4133 25.2236 47.2545 25.2236C47.3402 25.2236 47.4258 25.2236 47.5115 25.2236C48.1216 25.1808 48.7264 25.0952 49.3259 24.9721C50.5034 24.7312 51.6274 24.3459 52.6818 23.7625C53.5274 23.2968 54.3089 22.7455 54.9993 22.0658C55.0368 22.0283 55.0689 21.9962 55.101 21.9587C55.101 21.948 55.0956 21.9427 55.0903 21.932M51.1778 23.3771C50.3161 23.725 49.4329 23.9873 48.5177 24.1478C47.9664 24.2442 47.4097 24.287 46.8478 24.2763C46.3768 24.2656 45.9058 24.2656 45.4348 24.2656C44.2412 24.2656 43.053 24.2656 41.8595 24.2656H41.731V22.9115H52.1626C52.1626 22.9115 52.1679 22.9329 52.1733 22.9489C51.8414 23.0934 51.515 23.2433 51.1778 23.3771Z" fill="white"/>
<path d="M56.1875 35.8105C56.1447 35.7624 56.0965 35.7195 56.0537 35.6767C55.3472 35.0077 54.5765 34.4243 53.7415 33.9212C52.9173 33.4234 52.0502 33.022 51.1136 32.7704C49.9307 32.4546 48.7265 32.2994 47.5008 32.2941C45.59 32.2941 43.6792 32.2941 41.7685 32.2941H40.7729V35.8748C40.9389 35.8748 41.1048 35.8748 41.2707 35.8748H41.7685C46.5695 35.864 51.3705 35.8533 56.1715 35.8426L56.1822 35.8159L56.1875 35.8105ZM41.7685 34.8846V33.2521H41.9397C41.9397 33.2521 45.4883 33.2521 47.2653 33.2521C47.5382 33.2521 47.8112 33.2414 48.0842 33.2521C48.416 33.2682 48.7479 33.3003 49.0797 33.3378C49.5454 33.3966 50.011 33.4716 50.4659 33.5893C51.4454 33.8462 52.3714 34.2316 53.2277 34.7722C53.2759 34.7989 53.3187 34.8311 53.3562 34.8846H41.7631H41.7685Z" fill="white"/>
<path d="M68.3798 43.6358C68.2353 43.1273 68.1015 42.6135 67.9463 42.1051C67.229 39.75 66.362 37.4593 65.2594 35.2595C64.8633 34.4727 64.4512 33.6966 63.9481 32.9687C62.8669 31.3951 61.5503 30.0303 60.0998 28.7993C59.9499 28.6708 59.7947 28.5477 59.6395 28.4193C59.6716 28.3925 59.6877 28.3711 59.7091 28.355C60.5226 27.6378 61.2773 26.8617 61.9784 26.0375C62.61 25.2882 63.1934 24.5014 63.6858 23.6557C64.1943 22.7726 64.6278 21.8573 65.0346 20.9207C65.907 18.8975 66.6135 16.8155 67.2076 14.6906C67.2772 14.4498 67.3361 14.2036 67.4003 13.9681L67.3521 13.9146C66.8651 13.9146 33.5578 13.936 33.5578 13.936H15.9274V22.9492H23.9344V30.6886C23.8434 31.3684 23.6186 32.0053 23.2225 32.5726C22.9496 32.958 22.6284 33.3059 22.2805 33.6217C21.9112 33.9642 21.4777 34.2104 21.0227 34.4192C20.3912 34.7082 19.7275 34.8634 19.0317 34.8634C16.6232 34.8634 14.2093 34.8634 11.8007 34.8634H10.8159V43.7643H11.8007C14.5358 43.7643 17.2708 43.7643 20.0058 43.7643C20.6374 43.7643 21.2636 43.7054 21.8844 43.5823C23.0673 43.3521 24.1913 42.9454 25.2617 42.3887C26.4339 41.7732 27.4883 40.9971 28.4517 40.1033C29.5971 39.0435 30.5659 37.8446 31.3366 36.4852C31.5614 36.0891 31.7701 35.6823 31.9521 35.2702C32.2197 34.6493 32.4231 34.007 32.5783 33.3541V43.7589H68.4065C68.3958 43.7161 68.3905 43.6786 68.3851 43.6412M16.9175 21.9269V14.9208H31.9521V24.2284H24.9246V21.9269H16.9175ZM31.5881 33.3648C31.3848 34.189 31.0583 34.9705 30.6622 35.7251C29.9878 37.015 29.0833 38.1283 28.0396 39.1399C27.4669 39.6912 26.8621 40.2157 26.2144 40.6706C24.9406 41.5645 23.5597 42.2121 22.0343 42.5439C21.4563 42.667 20.8675 42.758 20.2734 42.7848C19.8988 42.8009 19.5187 42.8062 19.1441 42.8062C16.757 42.8062 14.3698 42.8062 11.9827 42.8062H11.7954V35.8322C11.8222 35.8322 11.8596 35.8215 11.8971 35.8215C14.0755 35.8215 16.2485 35.8215 18.4269 35.8215C18.7266 35.8215 19.0263 35.8322 19.3314 35.8215C20.4875 35.7679 21.558 35.4522 22.4946 34.735C23.0405 34.3175 23.5169 33.8304 23.913 33.2684C23.9183 33.2577 23.9237 33.2524 23.929 33.2417H31.5507H31.6149C31.6096 33.2791 31.6042 33.322 31.5935 33.3701M33.5631 42.7634V32.2622H24.9246V25.2507H33.5631V14.9208H66.0515C66.0462 14.9582 66.0408 14.9904 66.0301 15.0225C65.3611 17.4364 64.5154 19.7807 63.3968 22.0233C62.5993 23.6182 61.5824 25.058 60.3567 26.3533C59.6556 27.0919 58.9116 27.7877 58.1087 28.4139C58.0927 28.43 58.0713 28.4407 58.0392 28.4674C58.082 28.4995 58.1195 28.5263 58.1516 28.5477C59.2756 29.3238 60.3139 30.2016 61.2719 31.1703C62.3852 32.2943 63.2844 33.5789 64.0284 34.9758C64.8687 36.5654 65.5698 38.2086 66.1639 39.9053C66.4851 40.8098 66.7741 41.725 67.0256 42.651C67.0364 42.6885 67.0417 42.7259 67.0524 42.7687H33.5578L33.5631 42.7634Z" fill="white"/>
<path d="M17.4955 45.739L15.9219 49.8175H15.285L14.161 46.9968L13.0264 49.8175H12.368L10.7998 45.739H11.7793L12.8123 48.474L13.8934 45.739H14.5571L15.665 48.474L16.6499 45.739H17.4955Z" fill="white"/>
<path d="M23.3994 49.8175H22.3343L21.8473 48.9236H19.2621L18.7911 49.8175H17.8438L20.1506 45.7444H21.0658L23.4048 49.8175H23.3994ZM21.4512 48.1904L20.5734 46.5312L19.6635 48.1904H21.4458H21.4512Z" fill="white"/>
<path d="M29.5436 49.8175H28.1841L26.5409 48.276H25.6418V49.8175H24.7104V45.7444H28.2002C28.8103 45.7444 29.1154 46.0066 29.1154 46.5312V47.4892C29.1154 47.8853 28.9602 48.1262 28.639 48.2225C28.5159 48.26 28.1894 48.276 27.6596 48.276L29.5382 49.8175H29.5436ZM28.2002 47.2591V46.772C28.2002 46.6329 28.1627 46.5472 28.0824 46.5044C28.0235 46.4669 27.9218 46.4509 27.772 46.4509H25.6418V47.5856H27.772C27.9218 47.5856 28.0235 47.5695 28.0824 47.532C28.1627 47.4892 28.2002 47.3982 28.2002 47.2644" fill="white"/>
<path d="M35.8751 49.8175H34.5156L32.8725 48.276H31.9733V49.8175H31.042V45.7444H34.5317C35.1418 45.7444 35.4469 46.0066 35.4469 46.5312V47.4892C35.4469 47.8853 35.2917 48.1262 34.9706 48.2225C34.8475 48.26 34.521 48.276 33.9911 48.276L35.8698 49.8175H35.8751ZM34.5317 47.2591V46.772C34.5317 46.6329 34.4942 46.5472 34.4139 46.5044C34.3551 46.4669 34.2534 46.4509 34.1035 46.4509H31.9733V47.5856H34.1035C34.2534 47.5856 34.3551 47.5695 34.4139 47.532C34.4942 47.4892 34.5317 47.3982 34.5317 47.2644" fill="white"/>
<path d="M41.8589 49.8175H40.7938L40.3068 48.9236H37.727L37.256 49.8175H36.3086L38.6155 45.7444H39.5307L41.8696 49.8175H41.8589ZM39.9107 48.1904L39.0329 46.5312L38.123 48.1904H39.9053H39.9107Z" fill="white"/>
<path d="M47.9553 49.8175H47.3077L44.3158 47.2965C44.1873 47.1895 44.0749 47.0825 43.9786 46.9647C44.0053 47.227 44.016 47.4357 44.016 47.5909V49.8175H43.165V45.7444H43.8126L46.6815 48.1422C46.8849 48.3188 47.0401 48.4633 47.1471 48.5865C47.1203 48.2064 47.1097 47.9709 47.1097 47.8853V45.7444H47.9607V49.8175H47.9553Z" fill="white"/>
<path d="M53.8052 46.4669H51.9266V49.8175H50.9793V46.4669H49.106V45.739H53.8052V46.4669Z" fill="white"/>
<path d="M55.9141 45.739H54.9668V49.8121H55.9141V45.739Z" fill="white"/>
<path d="M62.2084 49.8175H58.0015V45.739H62.1656V46.4348H58.9488V47.3447H60.8275V48.0405H58.9488V49.0467H62.2084V49.8175Z" fill="white"/>
<path d="M68.3795 48.854C68.3795 49.234 68.3046 49.4855 68.16 49.6193C68.0155 49.7531 67.7479 49.8174 67.3626 49.8174H64.8417C64.4242 49.8174 64.1512 49.7424 64.0227 49.5979C63.8889 49.4481 63.8247 49.1644 63.8247 48.7469L64.665 48.5756V49.0573H67.5446V48.126H65.0022C64.6169 48.126 64.3546 48.0618 64.2101 47.928C64.0655 47.7942 63.9906 47.5427 63.9906 47.1626V46.713C63.9906 46.333 64.0655 46.0815 64.2101 45.9477C64.3546 45.8139 64.6169 45.7496 65.0022 45.7496H67.3144C67.7051 45.7496 67.9674 45.8139 68.1119 45.953C68.2564 46.0868 68.326 46.3491 68.326 46.7291L67.491 46.9271V46.4615H64.8202V47.3393H67.3626C67.7479 47.3393 68.0155 47.4035 68.16 47.5373C68.3099 47.6711 68.3795 47.9227 68.3795 48.3027V48.8647V48.854Z" fill="white"/>
<path d="M13.4546 53.532H13.08L12.8445 53.0664H11.4475L11.2067 53.532H10.832L11.9293 51.4607H12.3628L13.46 53.532H13.4546ZM12.6786 52.7559L12.1487 51.7497L11.6135 52.7559H12.6732H12.6786Z" fill="white"/>
<path d="M15.6547 53.532H15.2961L13.9633 52.1029V53.532H13.6743V51.7925H14.0329L15.3656 53.2162V51.7925H15.6547V53.532Z" fill="white"/>
<path d="M19.2936 53.532H17.126V51.4607H19.2134V51.7658H17.4685V52.301H18.6781V52.6114H17.4685V53.2216H19.2936V53.532Z" fill="white"/>
<path d="M22.0346 53.532H21.7456V52.1083H21.7348L20.8357 53.243L19.9365 52.1083H19.9311V53.532H19.6421V51.7925H20.0007L20.8357 52.8415L21.676 51.7925H22.0346V53.532Z" fill="white"/>
<path d="M23.9937 51.7925C24.1703 51.7925 24.3148 51.8407 24.4165 51.9423C24.5182 52.0387 24.5717 52.1725 24.5717 52.3384C24.5717 52.5043 24.5182 52.6435 24.4112 52.7345C24.3041 52.8255 24.1436 52.8736 23.9402 52.8736H22.9072V53.5373H22.6182V51.7978H23.999L23.9937 51.7925ZM23.9455 52.606C24.1703 52.606 24.2774 52.515 24.2774 52.3384C24.2774 52.1457 24.1596 52.0494 23.9241 52.0494H22.9018V52.606H23.9402H23.9455Z" fill="white"/>
<path d="M26.5353 53.532H24.9028V51.7925H25.1919V53.2697H26.5353V53.532Z" fill="white"/>
<path d="M28.9921 52.6596C28.9921 52.9433 28.8744 53.1734 28.6442 53.3501C28.4409 53.5053 28.1839 53.5802 27.8789 53.5802C27.5738 53.5802 27.3169 53.5053 27.1081 53.3501C26.8726 53.1734 26.7549 52.9433 26.7549 52.6596C26.7549 52.3759 26.8726 52.1511 27.1081 51.9745C27.3169 51.8193 27.5684 51.739 27.8735 51.739C28.1786 51.739 28.4302 51.8193 28.6335 51.9745C28.869 52.1511 28.9868 52.3813 28.9868 52.6596M28.6924 52.6596C28.6924 52.4562 28.6068 52.2903 28.4355 52.1672C28.2856 52.0602 28.1037 52.0013 27.8789 52.0013C27.638 52.0013 27.44 52.0655 27.2848 52.1886C27.1349 52.3117 27.0546 52.4723 27.0546 52.6596C27.0546 52.8469 27.1295 53.0182 27.2794 53.136C27.4293 53.2591 27.6273 53.3179 27.8735 53.3179C28.1197 53.3179 28.3178 53.2591 28.4676 53.136C28.6175 53.0129 28.6871 52.8576 28.6871 52.6596" fill="white"/>
<path d="M31.444 51.7925L30.4913 52.8415V53.532H30.2022V52.8415L29.2549 51.7925H29.6135L30.3521 52.6007L31.0854 51.7925H31.444Z" fill="white"/>
<path d="M33.5097 53.532H31.6899V51.7925H33.4455V52.0494H31.979V52.499H32.9959V52.7559H31.979V53.2697H33.5097V53.532Z" fill="white"/>
<path d="M35.7685 53.532H33.9487V51.7925H35.6989V52.0494H34.2324V52.499H35.2547V52.7559H34.2324V53.2697H35.7685V53.532Z" fill="white"/>
<path d="M39.5312 52.4936C39.5312 52.8308 39.392 53.1091 39.1137 53.3178C38.8675 53.4998 38.5678 53.5908 38.2038 53.5908C37.8399 53.5908 37.5294 53.4998 37.2886 53.3125C37.0102 53.1037 36.8711 52.8308 36.8711 52.4936C36.8711 52.1564 37.0102 51.8888 37.2939 51.6747C37.5401 51.4873 37.8452 51.3964 38.2038 51.3964C38.5624 51.3964 38.8675 51.4927 39.1083 51.6747C39.3867 51.8888 39.5312 52.1617 39.5312 52.4936ZM39.1726 52.4936C39.1726 52.2527 39.0709 52.0547 38.8621 51.9048C38.6855 51.7764 38.4661 51.7121 38.2038 51.7121C37.9148 51.7121 37.6793 51.7871 37.4973 51.9369C37.3153 52.0868 37.2243 52.2741 37.2243 52.4989C37.2243 52.7237 37.3153 52.9218 37.4919 53.0663C37.6686 53.2108 37.9041 53.2804 38.2038 53.2804C38.5035 53.2804 38.7337 53.2054 38.9103 53.0609C39.0869 52.9164 39.1726 52.7291 39.1726 52.4936Z" fill="white"/>
<path d="M42.5709 51.7925L42.0035 53.532H41.6289L41.1953 52.0762L40.7618 53.532H40.3925L39.8145 51.7925H40.1356L40.5745 53.2483L41.0134 51.7925H41.3773L41.8108 53.2483L42.2497 51.7925H42.5709Z" fill="white"/>
<path d="M44.8832 53.532H44.5246L43.1972 52.1029V53.532H42.9082V51.7925H43.2668L44.5995 53.2162V51.7925H44.8832V53.532Z" fill="white"/>
<path d="M47.2866 53.532H45.4668V51.7925H47.2223V52.0494H45.7558V52.499H46.7728V52.7559H45.7558V53.2697H47.2866V53.532Z" fill="white"/>
<path d="M48.8228 51.7925C49.1279 51.7925 49.3634 51.8728 49.5454 52.0333C49.7274 52.1939 49.813 52.408 49.813 52.681C49.813 52.9272 49.722 53.1359 49.5293 53.3018C49.3527 53.457 49.1386 53.532 48.8817 53.532H47.7256V51.7925H48.8282H48.8228ZM48.9031 53.2697C49.0744 53.2697 49.2189 53.2162 49.3313 53.1038C49.4437 52.9914 49.4972 52.8469 49.4972 52.6703C49.4972 52.4829 49.4383 52.3331 49.3206 52.2207C49.2028 52.1083 49.0423 52.0494 48.8496 52.0494H48.0146V53.2697H48.9085H48.9031Z" fill="white"/>
<path d="M53.3617 51.9316L53.0513 52.044C52.8426 51.8192 52.5482 51.7121 52.1682 51.7121C51.8845 51.7121 51.649 51.7871 51.467 51.9316C51.285 52.0761 51.1941 52.2634 51.1941 52.4936C51.1941 52.7237 51.2851 52.9164 51.4617 53.0609C51.6383 53.2054 51.8791 53.275 52.1842 53.275C52.5482 53.275 52.8372 53.1626 53.0459 52.9325L53.3403 53.093C53.1904 53.2643 53.0245 53.3927 52.8372 53.4677C52.6499 53.5426 52.4251 53.5854 52.1628 53.5854C51.7989 53.5854 51.4938 53.4944 51.2476 53.3125C50.9693 53.1037 50.8301 52.8308 50.8301 52.4882C50.8301 52.1457 50.9693 51.8834 51.2529 51.6693C51.4991 51.482 51.7989 51.391 52.1628 51.391C52.682 51.391 53.0781 51.5676 53.3564 51.9316" fill="white"/>
<path d="M56.0263 52.6596C56.0263 52.9433 55.9086 53.1734 55.6784 53.3501C55.475 53.5053 55.2181 53.5802 54.913 53.5802C54.6079 53.5802 54.351 53.5053 54.1423 53.3501C53.9068 53.1734 53.7891 52.9433 53.7891 52.6596C53.7891 52.3759 53.9068 52.1511 54.1423 51.9745C54.351 51.8193 54.6026 51.739 54.9077 51.739C55.2128 51.739 55.4643 51.8193 55.6677 51.9745C55.9032 52.1511 56.021 52.3813 56.021 52.6596M55.7266 52.6596C55.7266 52.4562 55.641 52.2903 55.4697 52.1672C55.3198 52.0602 55.1378 52.0013 54.913 52.0013C54.6722 52.0013 54.4742 52.0655 54.3189 52.1886C54.1691 52.3117 54.0888 52.4723 54.0888 52.6596C54.0888 52.8469 54.1637 53.0182 54.3136 53.136C54.4634 53.2591 54.6615 53.3179 54.9077 53.3179C55.1539 53.3179 55.3519 53.2591 55.5018 53.136C55.6517 53.0129 55.7212 52.8576 55.7212 52.6596" fill="white"/>
<path d="M58.9062 53.532H58.6225V52.1083H58.6118L57.7073 53.243L56.8134 52.1083H56.8081V53.532H56.519V51.7925H56.8777L57.7126 52.8415L58.5476 51.7925H58.9062V53.532Z" fill="white"/>
<path d="M60.8706 51.7925C61.0472 51.7925 61.1918 51.8407 61.2935 51.9423C61.3952 52.0387 61.4487 52.1725 61.4487 52.3384C61.4487 52.5043 61.3952 52.6435 61.2881 52.7345C61.1811 52.8255 61.0205 52.8736 60.8171 52.8736H59.7788V53.5373H59.4897V51.7978H60.8706V51.7925ZM60.8171 52.606C61.0419 52.606 61.1489 52.515 61.1489 52.3384C61.1489 52.1457 61.0312 52.0494 60.7957 52.0494H59.7734V52.606H60.8171Z" fill="white"/>
<path d="M63.7501 53.532H63.4343L63.2363 53.1413H62.0641L61.8607 53.532H61.5449L62.4655 51.7925H62.8295L63.7501 53.532ZM63.0917 52.879L62.6475 52.0333L62.1979 52.879H63.0917Z" fill="white"/>
<path d="M66.0355 53.532H65.6769L64.3442 52.1029V53.532H64.0552V51.7925H64.4138L65.7465 53.2162V51.7925H66.0355V53.532Z" fill="white"/>
<path d="M68.6046 51.7925L67.6519 52.8415V53.532H67.3628V52.8415L66.4102 51.7925H66.7741L67.5074 52.6007L68.246 51.7925H68.6046Z" fill="white"/>
</g>
</svg>
