<svg width="40" height="40" viewBox="0 0 40 40" fill="none" xmlns="http://www.w3.org/2000/svg">
<path d="M32.4997 3.33325H7.49967C5.19849 3.33325 3.33301 5.19873 3.33301 7.49992V32.4999C3.33301 34.8011 5.19849 36.6666 7.49967 36.6666H32.4997C34.8009 36.6666 36.6663 34.8011 36.6663 32.4999V7.49992C36.6663 5.19873 34.8009 3.33325 32.4997 3.33325Z" fill="#FF4F00"/>
<path d="M27.916 26.8831C28.591 26.8831 28.8993 27.2415 28.941 27.9748H26.791C26.8076 27.7165 26.8993 27.4665 27.0493 27.2498C27.1576 27.1248 27.291 27.0248 27.4493 26.9665C27.6076 26.9081 27.7743 26.8831 27.9326 26.8998L27.9076 26.8831H27.916ZM26.5743 30.7998C26.9993 31.0415 27.4743 31.1581 27.966 31.1415C28.3576 31.1581 28.7576 31.0915 29.1243 30.9498C29.4076 30.8498 29.6576 30.6748 29.8493 30.4498C30.0326 30.2331 30.166 29.9831 30.241 29.7081L28.9743 29.3498C28.916 29.5248 28.7993 29.6831 28.6493 29.7915C28.4576 29.9331 28.216 29.9998 27.9826 29.9831C27.816 29.9998 27.6493 29.9665 27.491 29.9081C27.3326 29.8415 27.1993 29.7415 27.0826 29.6165C26.9076 29.3498 26.8076 29.0415 26.7993 28.7248H30.266C30.266 28.6248 30.266 28.5248 30.266 28.4248V28.1581C30.266 27.7331 30.1826 27.3081 30.0076 26.9248C29.841 26.5748 29.566 26.2831 29.2326 26.0831C28.8326 25.8665 28.3826 25.7665 27.9326 25.7831C27.5826 25.7581 27.2326 25.8081 26.8993 25.9248C26.566 26.0415 26.266 26.2248 25.9993 26.4581C25.5243 26.9915 25.2826 27.6915 25.3326 28.3998C25.3243 28.8998 25.4326 29.3915 25.6493 29.8415C25.8493 30.2498 26.1743 30.5915 26.5743 30.8165V30.7998Z" fill="#FFFDF9"/>
<path d="M13.8915 29.9415C13.6915 29.9581 13.4915 29.9081 13.3331 29.7831C13.2831 29.7331 13.2415 29.6665 13.2165 29.5998C13.1915 29.5331 13.1748 29.4581 13.1831 29.3831C13.1831 29.3165 13.1915 29.2415 13.2248 29.1748C13.2498 29.1081 13.2915 29.0498 13.3415 28.9998C13.4665 28.8998 13.6165 28.8498 13.7748 28.8581H14.9665V29.0498C14.9665 29.1665 14.9415 29.2915 14.8915 29.3998C14.8415 29.5081 14.7665 29.6082 14.6748 29.6832C14.4581 29.8582 14.1748 29.9498 13.8998 29.9415H13.8915ZM13.6415 28.1081C13.1248 28.0581 12.6081 28.2081 12.1915 28.5331C12.0415 28.6748 11.9331 28.8498 11.8498 29.0331C11.7748 29.2248 11.7415 29.4248 11.7415 29.6331C11.7248 29.8415 11.7581 30.0498 11.8415 30.2415C11.9248 30.4332 12.0415 30.6081 12.1998 30.7415C12.5415 30.9998 12.9665 31.1332 13.3998 31.1082C13.6165 31.1082 13.8331 31.0748 14.0331 30.9915C14.2331 30.9081 14.4081 30.7831 14.5581 30.6248C14.7165 30.4415 14.8498 30.2415 14.9331 30.0165H15.0165L15.1748 30.9998H16.4165V27.8415C16.4498 27.2915 16.2665 26.7498 15.9081 26.3331C15.6748 26.1331 15.4081 25.9915 15.1248 25.8915C14.8331 25.7998 14.5331 25.7665 14.2331 25.7915C13.8415 25.7831 13.4581 25.8415 13.0915 25.9748C12.7998 26.0748 12.5498 26.2581 12.3498 26.4998C12.1665 26.7248 12.0498 26.9998 11.9915 27.2831L13.3665 27.4748C13.4165 27.3331 13.5081 27.2081 13.6331 27.1248C13.7915 27.0331 13.9748 26.9915 14.1581 27.0081C14.2665 26.9998 14.3831 27.0081 14.4831 27.0498C14.5915 27.0831 14.6831 27.1498 14.7665 27.2248C14.8998 27.4081 14.9665 27.6331 14.9581 27.8581V28.1081H13.6331H13.6415Z" fill="#FFFDF9"/>
<path d="M24.5995 25.9333H23.1328V31.0167H24.5995V25.9333Z" fill="#FFFDF9"/>
<path d="M23.8831 25.25C23.9915 25.25 24.0998 25.2334 24.2081 25.1917C24.3081 25.15 24.4081 25.0917 24.4831 25.0167C24.6331 24.85 24.7165 24.6333 24.7081 24.4167C24.7081 24.1917 24.6331 23.9834 24.4831 23.8167C24.4081 23.7417 24.3081 23.6834 24.2081 23.6417C24.1081 23.6 23.9998 23.5833 23.8831 23.5917C23.7748 23.5917 23.6581 23.6084 23.5581 23.6417C23.4581 23.6834 23.3581 23.7417 23.2831 23.8167C23.2081 23.8917 23.1415 23.9917 23.1081 24.0917C23.0665 24.1917 23.0498 24.3 23.0498 24.4167C23.0498 24.525 23.0665 24.6417 23.1081 24.7417C23.1498 24.8417 23.2081 24.9417 23.2915 25.0167C23.3748 25.0917 23.4665 25.1584 23.5665 25.2C23.6665 25.2417 23.7831 25.2584 23.8915 25.2584L23.8831 25.25Z" fill="#FFFDF9"/>
<path d="M19.8585 27.1166C20.0169 27.0999 20.1669 27.1249 20.3085 27.1916C20.4502 27.2499 20.5752 27.3499 20.6669 27.4749C20.8502 27.7666 20.9419 28.1166 20.9252 28.4582C20.9502 28.8166 20.8585 29.1749 20.6669 29.4832C20.5752 29.6082 20.4502 29.7082 20.3169 29.7749C20.1752 29.8416 20.0169 29.8666 19.8669 29.8499C19.7169 29.8499 19.5669 29.8332 19.4335 29.7666C19.3002 29.7082 19.1752 29.6082 19.0835 29.4916C18.8752 29.2082 18.7752 28.8582 18.7919 28.5082V28.4166C18.7669 28.0666 18.8669 27.7249 19.0835 27.4499C19.1835 27.3416 19.3002 27.2499 19.4335 27.1916C19.5669 27.1332 19.7169 27.1082 19.8669 27.1166H19.8585ZM18.7835 30.0249H18.8502C18.8919 30.1332 18.9419 30.2416 19.0085 30.3499C19.1585 30.6249 19.3919 30.8499 19.6835 30.9832C19.9335 31.1082 20.2085 31.1749 20.4919 31.1749C20.7669 31.1832 21.0419 31.1249 21.2835 30.9999C21.5252 30.8749 21.7419 30.6832 21.8919 30.4582C22.2585 29.8499 22.4335 29.1499 22.3919 28.4416C22.4252 27.7582 22.2585 27.0749 21.9002 26.4916C21.7335 26.2666 21.5169 26.0916 21.2669 25.9749C21.0169 25.8582 20.7335 25.8082 20.4585 25.8249C20.2419 25.8249 20.0252 25.8582 19.8169 25.9416C19.6169 26.0249 19.4335 26.1499 19.2835 26.3082C19.0752 26.5332 18.9252 26.7999 18.8252 27.0832H18.7419L18.5835 25.9666H17.3252V32.5166H18.7919V30.0416L18.7835 30.0249Z" fill="#FFFDF9"/>
<path d="M11.2993 29.775H8.56602L8.51602 29.625L11.2577 27.1833V25.9333H6.72435V27.1833H9.29102L9.34935 27.3417L6.66602 29.775V31.025H11.366L11.2993 29.775Z" fill="#FFFDF9"/>
<path d="M32.516 28.4165C32.491 28.2748 32.5077 28.1248 32.5494 27.9831C32.5994 27.8415 32.6743 27.7165 32.7827 27.6165C32.891 27.5165 33.0243 27.4415 33.166 27.4081C33.3077 27.3665 33.4577 27.3665 33.5993 27.3998H34.1577V25.9331H33.8327C33.6493 25.9248 33.4577 25.9581 33.291 26.0415C33.1243 26.1165 32.9743 26.2331 32.8577 26.3831C32.7077 26.5831 32.5994 26.8081 32.5327 27.0581H32.4577L32.2993 25.9415H31.041V31.0331H32.5077V28.4331L32.516 28.4165Z" fill="#FFFDF9"/>
</svg>
