<svg width="116" height="39" viewBox="0 0 116 39" fill="none" xmlns="http://www.w3.org/2000/svg">
<path d="M20.2123 0H16.5146H12.7249L10.1641 15.8652C10.11 15.8724 10.0558 15.876 9.99987 15.8832C4.34234 16.6309 -0.048323 21.3634 0.000401609 26.6554C0.0220576 28.8683 0.781805 30.597 2.14431 32.0137C3.37507 33.2941 5.05157 33.9882 6.74431 33.9882C7.40661 33.9882 8.07074 33.8823 8.71135 33.6635C11.7612 32.6199 12.7736 30.077 13.2482 27.7493C13.2482 27.7511 13.2464 27.7547 13.2464 27.7583C13.3835 25.1598 11.9867 22.5936 9.3231 21.0747L8.48034 26.3631C8.20971 27.8641 7.85777 28.7607 7.10343 29.019C6.65227 29.1732 6.09645 29.0136 5.72108 28.6227C5.23744 28.1187 4.95412 27.5575 4.94509 26.6088C4.91983 23.9637 7.0132 21.8871 9.3231 21.0747C10.0486 20.8146 10.8029 20.6927 11.6457 20.6927C12.5011 20.6927 13.4016 20.8559 14.2245 21.1303C17.3447 21.862 19.2359 25.1508 19.7033 28.7123L19.9777 30.7083H25.1696L20.2123 0ZM14.8868 16.206L16.3756 4.85263H16.4207H16.5597L18.2217 17.5222C17.1661 16.9501 16.0435 16.5037 14.8868 16.206ZM64.6964 8.56471V30.7064H59.5153V8.56471H64.6964ZM49.5736 38.3764C56.377 38.3764 56.9023 34.5226 56.9023 29.0764L56.9473 8.56655H54.2657C53.3002 8.56655 52.1163 9.2856 52.0352 10.2128L51.972 10.9283L51.7212 10.254C51.2213 8.91444 49.9634 8.20606 48.083 8.20606C46.1936 8.20606 44.7986 8.92695 43.9359 10.3473C43.0968 11.7281 42.9217 13.5142 42.9217 14.7695V23.3791C42.9217 25.5149 43.2357 27.0876 43.8818 28.1851C44.6668 29.5193 45.9373 30.1685 47.769 30.1685C49.5014 30.1685 50.8116 29.4368 51.4577 28.108L51.7662 27.4749V28.1779V30.6436C51.7662 32.8117 51.6309 34.3468 49.8895 34.3468C49.4906 34.3468 48.1931 34.2123 48.1931 32.4818V32.4191H42.9669V32.5266C42.9669 34.2087 43.4252 35.5627 44.3294 36.549C45.4374 37.7612 47.2023 38.3764 49.5736 38.3764ZM51.676 22.4842C51.676 24.5949 51.3764 25.739 49.7992 25.739C48.305 25.739 48.1028 24.3205 48.1028 22.9325V15.2196C48.1028 13.4819 48.7308 12.6373 50.0248 12.6373C51.4793 12.6373 51.676 14.0558 51.676 15.4438V22.4842ZM64.9671 3.69597C64.9671 5.26509 63.7111 6.49349 62.1068 6.49349C60.5278 6.49349 59.2916 5.26509 59.2916 3.69597C59.2916 2.10173 60.5278 0.853601 62.1068 0.853601C63.6841 0.853601 64.9671 2.12863 64.9671 3.69597ZM32.0037 15.7128V30.7083H26.7775L26.7324 8.56655H29.6378C30.6358 8.56655 31.7872 9.26592 31.9135 10.3078L31.9713 10.7848L32.2149 10.3706C33.0576 8.93596 34.4219 8.2079 36.2717 8.2079C39.2475 8.2079 40.758 10.1141 40.758 13.8764V30.71H35.5769V15.0403C35.5769 13.4461 35.0211 12.6373 33.9257 12.6373C32.5072 12.6373 32.0037 13.4425 32.0037 15.7128Z" fill="white"/>
<path d="M13.2434 27.7587C13.5051 26.6486 14.1114 22.386 14.2198 21.1307C13.3987 20.8581 12.4963 20.6931 11.641 20.6931C10.7982 20.6931 10.0438 20.8169 9.31836 21.0751C11.9838 22.594 13.3806 25.1602 13.2434 27.7587Z" fill="white"/>
<path d="M71.0205 30.5204V18.9238H73.1213V28.7594H78.2288V30.5204H71.0205Z" fill="white"/>
<path d="M83.6524 30.6903C82.7804 30.6903 82.0273 30.5091 81.3931 30.1467C80.7627 29.7806 80.2776 29.2634 79.9379 28.5952C79.5982 27.9233 79.4283 27.1324 79.4283 26.2227C79.4283 25.328 79.5982 24.5428 79.9379 23.8671C80.2814 23.1876 80.7608 22.6591 81.3761 22.2816C81.9915 21.9004 82.7144 21.7097 83.5448 21.7097C84.0809 21.7097 84.5867 21.7966 85.0624 21.9702C85.5418 22.1401 85.9646 22.4043 86.3308 22.7629C86.7007 23.1216 86.9914 23.5783 87.2028 24.1332C87.4142 24.6844 87.5199 25.3412 87.5199 26.1038V26.7323H80.3909V25.3507H85.555C85.5512 24.9581 85.4663 24.6089 85.3002 24.3031C85.1341 23.9936 84.9019 23.7501 84.6037 23.5727C84.3093 23.3952 83.9658 23.3065 83.5732 23.3065C83.1541 23.3065 82.7861 23.4085 82.469 23.6123C82.1519 23.8124 81.9046 24.0766 81.7272 24.405C81.5536 24.7297 81.4649 25.0864 81.4611 25.4752V26.6813C81.4611 27.1872 81.5536 27.6213 81.7385 27.9837C81.9235 28.3423 82.1821 28.6179 82.5143 28.8104C82.8465 28.9991 83.2353 29.0935 83.6807 29.0935C83.979 29.0935 84.2489 29.052 84.4905 28.9689C84.7321 28.8821 84.9416 28.7557 85.119 28.5896C85.2964 28.4235 85.4304 28.2177 85.521 27.9724L87.4349 28.1875C87.3141 28.6934 87.0839 29.135 86.7441 29.5125C86.4081 29.8863 85.9778 30.1769 85.4531 30.3845C84.9284 30.5884 84.3282 30.6903 83.6524 30.6903Z" fill="white"/>
<path d="M91.5973 30.696C91.0462 30.696 90.5498 30.5978 90.1081 30.4015C89.6702 30.2015 89.3229 29.907 89.0662 29.5182C88.8133 29.1294 88.6868 28.65 88.6868 28.0799C88.6868 27.5892 88.7774 27.1834 88.9586 26.8625C89.1398 26.5417 89.3871 26.285 89.7004 26.0924C90.0137 25.8999 90.3667 25.7546 90.7593 25.6564C91.1556 25.5545 91.5652 25.4809 91.988 25.4356C92.4976 25.3828 92.911 25.3356 93.2281 25.294C93.5452 25.2487 93.7754 25.1808 93.9189 25.0902C94.0661 24.9958 94.1397 24.8505 94.1397 24.6542V24.6202C94.1397 24.1936 94.0133 23.8633 93.7603 23.6293C93.5074 23.3952 93.1431 23.2782 92.6675 23.2782C92.1654 23.2782 91.7672 23.3877 91.4727 23.6066C91.1821 23.8256 90.9858 24.0842 90.8838 24.3824L88.9699 24.1106C89.1209 23.5821 89.3701 23.1404 89.7174 22.7856C90.0647 22.427 90.4894 22.159 90.9914 21.9815C91.4935 21.8003 92.0484 21.7097 92.6562 21.7097C93.0752 21.7097 93.4923 21.7588 93.9076 21.857C94.3228 21.9551 94.7022 22.1174 95.0457 22.3439C95.3892 22.5666 95.6648 22.8705 95.8724 23.2556C96.0838 23.6406 96.1895 24.1219 96.1895 24.6995V30.5204H94.219V29.3257H94.1511C94.0265 29.5673 93.8509 29.7938 93.6244 30.0052C93.4017 30.2128 93.1205 30.3808 92.7807 30.5091C92.4448 30.6337 92.0503 30.696 91.5973 30.696ZM92.1296 29.1898C92.541 29.1898 92.8978 29.1086 93.1998 28.9463C93.5018 28.7802 93.7339 28.5612 93.8962 28.2895C94.0623 28.0177 94.1454 27.7213 94.1454 27.4005V26.3756C94.0812 26.4284 93.9717 26.4775 93.817 26.5228C93.666 26.5681 93.4961 26.6077 93.3074 26.6417C93.1186 26.6757 92.9317 26.7059 92.7468 26.7323C92.5618 26.7587 92.4014 26.7814 92.2655 26.8002C91.9597 26.8418 91.686 26.9097 91.4444 27.0041C91.2028 27.0985 91.0122 27.2306 90.8725 27.4005C90.7328 27.5666 90.663 27.7817 90.663 28.046C90.663 28.4235 90.8008 28.7085 91.0764 28.901C91.3519 29.0935 91.703 29.1898 92.1296 29.1898Z" fill="white"/>
<path d="M101.319 30.6733C100.635 30.6733 100.024 30.4978 99.4841 30.1467C98.9443 29.7957 98.5178 29.286 98.2044 28.6179C97.8911 27.9497 97.7345 27.1381 97.7345 26.183C97.7345 25.2167 97.893 24.4013 98.2101 23.7369C98.531 23.0687 98.9632 22.5648 99.5068 22.225C100.05 21.8815 100.656 21.7097 101.324 21.7097C101.834 21.7097 102.253 21.7966 102.581 21.9702C102.91 22.1401 103.17 22.3458 103.363 22.5874C103.555 22.8252 103.705 23.0498 103.81 23.2612H103.895V18.9238H105.951V30.5204H103.935V29.1501H103.81C103.705 29.3615 103.552 29.5861 103.352 29.824C103.151 30.058 102.887 30.2581 102.559 30.4242C102.23 30.5903 101.817 30.6733 101.319 30.6733ZM101.891 28.9916C102.325 28.9916 102.695 28.8746 103 28.6405C103.306 28.4027 103.538 28.0724 103.697 27.6496C103.856 27.2268 103.935 26.7342 103.935 26.1717C103.935 25.6092 103.856 25.1204 103.697 24.7051C103.542 24.2899 103.312 23.9671 103.006 23.7369C102.704 23.5066 102.332 23.3915 101.891 23.3915C101.434 23.3915 101.053 23.5104 100.747 23.7482C100.441 23.986 100.211 24.3144 100.056 24.7335C99.9013 25.1525 99.8239 25.6319 99.8239 26.1717C99.8239 26.7153 99.9013 27.2004 100.056 27.627C100.215 28.0497 100.447 28.3838 100.753 28.6292C101.062 28.8708 101.441 28.9916 101.891 28.9916Z" fill="white"/>
<path d="M114.85 24.1219L112.981 24.3258C112.928 24.137 112.836 23.9596 112.704 23.7935C112.575 23.6274 112.402 23.4934 112.183 23.3915C111.964 23.2895 111.696 23.2386 111.379 23.2386C110.952 23.2386 110.593 23.3311 110.303 23.516C110.016 23.701 109.874 23.9407 109.878 24.2352C109.874 24.4881 109.967 24.6938 110.155 24.8524C110.348 25.0109 110.665 25.1412 111.107 25.2431L112.59 25.5602C113.413 25.7376 114.025 26.0188 114.425 26.4039C114.829 26.7889 115.033 27.2929 115.036 27.9157C115.033 28.4631 114.872 28.9463 114.555 29.3653C114.242 29.7806 113.806 30.1052 113.247 30.3392C112.688 30.5733 112.047 30.6903 111.322 30.6903C110.257 30.6903 109.4 30.4676 108.751 30.0222C108.102 29.5729 107.715 28.9482 107.59 28.1479L109.589 27.9554C109.68 28.348 109.872 28.6443 110.167 28.8444C110.461 29.0444 110.844 29.1445 111.316 29.1445C111.803 29.1445 112.194 29.0444 112.488 28.8444C112.787 28.6443 112.936 28.397 112.936 28.1026C112.936 27.8534 112.839 27.6477 112.647 27.4854C112.458 27.3231 112.164 27.1985 111.764 27.1117L110.28 26.8002C109.446 26.6266 108.829 26.334 108.428 25.9226C108.028 25.5073 107.83 24.9826 107.834 24.3484C107.83 23.8124 107.975 23.3481 108.27 22.9555C108.568 22.5591 108.981 22.2533 109.51 22.0382C110.042 21.8192 110.656 21.7097 111.35 21.7097C112.369 21.7097 113.172 21.9268 113.757 22.3609C114.346 22.795 114.71 23.382 114.85 24.1219Z" fill="white"/>
</svg>
