<svg width="56" height="60" viewBox="0 0 56 60" fill="none" xmlns="http://www.w3.org/2000/svg">
<g clip-path="url(#clip0_712_453)">
<path d="M30.5629 44.4803C29.3559 44.4803 28.1666 43.9426 27.3691 42.9279L21.811 35.8495C20.4295 34.087 20.7357 31.5377 22.4982 30.1526C24.2607 28.7675 26.81 29.0773 28.1951 30.8398L31.4281 34.9558L55.9995 18.4668C55.5794 18.3386 55.1236 18.2674 54.6429 18.2674L42.2985 18.239C41.1805 18.2354 40.1621 17.6016 39.6672 16.6011L32.2826 1.63964C31.2038 -0.546546 28.0883 -0.546546 27.0094 1.63964L19.6213 16.6011C19.1264 17.6016 18.108 18.239 16.99 18.239L4.64557 18.2674C0.686232 18.2781 -1.4501 22.9175 1.12062 25.9333L13.5185 35.6287C14.1309 36.3444 14.3303 37.3271 14.0454 38.2244L7.65069 53.0185C6.47926 56.7322 10.1039 60.0933 13.6609 58.7902C13.8888 58.7047 14.1024 58.5801 14.2982 58.4377L23.0038 52.1639L28.0847 48.5037C28.4906 48.2117 28.9606 47.9981 29.4591 47.9696C29.4662 47.9696 29.4734 47.9696 29.484 47.9696C30.1107 47.9376 30.7195 48.1761 31.2216 48.55L44.5274 58.427C44.7268 58.573 44.9404 58.7047 45.1683 58.7937C48.679 60.1218 52.3179 56.8675 51.2568 53.1574L44.2817 37.9004C44.1927 37.587 43.9221 37.0173 43.7263 36.4761L32.8096 43.8002C32.126 44.256 31.3391 44.4803 30.5629 44.4803Z" fill="#8F52F1"/>
</g>
<defs>
<clipPath id="clip0_712_453">
<rect width="56" height="60" fill="white"/>
</clipPath>
</defs>
</svg>
