<svg width="189" height="50" viewBox="0 0 189 50" fill="none" xmlns="http://www.w3.org/2000/svg">
<g clip-path="url(#clip0_97_5179)">
<g clip-path="url(#clip1_97_5179)">
<path d="M24.062 25.49L52.5922 25.2327V24.9877C52.5922 24.2895 52.5677 23.6035 52.5065 22.9175L25.091 22.6235C24.9685 22.6235 24.8582 22.5132 24.8582 22.3907C24.8582 22.2682 24.9685 22.158 25.091 22.158L52.3962 21.9007C52.2982 21.1167 52.1635 20.345 51.992 19.5855L26.1077 19.2915C25.9852 19.2915 25.875 19.1812 25.875 19.0587C25.875 18.9362 25.9852 18.826 26.1077 18.826L51.7347 18.5687C51.5142 17.7725 51.2692 17.013 50.9875 16.2535L27.149 15.9595C27.0265 15.9595 26.9162 15.8492 26.9162 15.7267C26.9162 15.6042 27.0265 15.494 27.149 15.494L50.5832 15.2367C46.8347 6.58825 38.1862 0.5 28.1045 0.5C16.1117 0.5 6.12799 9.11175 4.02099 20.5042L39.1785 20.0142L38.713 21.521L3.93524 20.9697C3.77486 21.9096 3.67665 22.859 3.64124 23.8117L38.1495 23.3217L37.684 24.8285L3.60449 24.2772V25C3.60449 25.7105 3.62899 26.421 3.69024 27.1192L37.1082 26.6292L36.6427 28.136L3.73924 27.5847C3.83724 28.5402 3.99649 29.4835 4.20474 30.4022L36.0915 29.9245L35.626 31.4312L4.32724 30.9045C4.55999 31.8722 4.85399 32.8032 5.20924 33.722L35.0502 33.2442L34.5847 34.751L5.39299 34.2242C5.78499 35.192 6.23824 36.1352 6.75274 37.0417L34.0335 36.5517L33.568 38.0585L7.04674 37.5317C7.64699 38.524 8.29624 39.4672 9.01899 40.3615L32.8575 39.8592L32.392 41.366L9.41099 40.8392C11.708 43.5622 14.5722 45.7504 17.8033 47.2506C21.0344 48.7508 24.5543 49.5269 28.1167 49.5245C38.8845 49.5245 48.023 42.5787 51.306 32.9257L22.004 32.6317C21.8815 32.6317 21.7712 32.5215 21.7712 32.399C21.7712 32.2765 21.8815 32.1662 22.004 32.1662L51.6245 31.909C51.845 31.1495 52.0287 30.3777 52.188 29.5937L23.0452 29.2997C22.9227 29.2997 22.8125 29.1895 22.8125 29.067C22.8125 28.9445 22.9227 28.8342 23.0452 28.8342L52.3595 28.577C52.4697 27.8175 52.5432 27.058 52.58 26.274L24.0742 25.98C23.9517 25.98 23.8415 25.8697 23.8415 25.7472C23.8415 25.6247 23.9517 25.5145 24.0742 25.5145M108.697 15.7635H101.372L91.2655 32.8645H98.1377L99.7057 29.7775H103.969L104.152 32.8645H110.081L108.673 15.7635H108.697ZM101.482 25.7717L103.748 20.9207L103.858 25.7717H101.482Z" fill="white"/>
<path d="M90.6411 21.3989C90.3838 22.1951 89.8693 22.3911 88.7913 22.4034H87.3458L88.0318 20.1739H89.3793C90.3103 20.1739 90.8616 20.6639 90.6411 21.3989ZM96.3863 20.7986C96.7783 19.0101 96.0678 15.7639 90.2246 15.7639H82.9113L77.4846 32.8649H84.0015L86.1331 25.9804L88.3013 32.8649H94.9531L91.7681 25.8089C94.7816 24.8779 95.7983 23.3221 96.3618 20.7986M81.9558 15.7639H66.1411L64.4873 21.0191H69.5221L65.7736 32.8771H72.2416L75.9901 21.0191H80.3021L81.9558 15.7639ZM143.108 20.6639L144.664 15.7639H132.279L126.852 32.8649H139.261L140.731 28.2221H134.57L135.096 26.5684H141.234L142.618 22.2196H136.481L136.971 20.6639H143.12H143.108ZM119.343 32.8649H125.443L130.87 15.7516H124.402L122.136 23.3344L120.225 15.7516H114.063L108.649 32.8649H115.117L117.42 25.1719L119.367 32.8649H119.343ZM147.567 16.6336V16.0211H147.971C148.179 16.0211 148.4 16.0701 148.4 16.3151C148.4 16.6214 148.179 16.6336 147.922 16.6336H147.567ZM147.567 16.8909H147.91L148.437 17.7484H148.767L148.204 16.8786C148.498 16.8419 148.718 16.6949 148.718 16.3396C148.718 15.9476 148.486 15.7761 148.02 15.7761H147.273V17.7484H147.567V16.8909ZM147.922 18.4589C148.853 18.4589 149.649 17.7361 149.649 16.7439C149.649 15.7516 148.853 15.0411 147.922 15.0411C146.991 15.0411 146.183 15.7639 146.183 16.7439C146.183 17.7239 146.979 18.4589 147.922 18.4589ZM146.526 16.7439C146.526 15.9354 147.138 15.3229 147.922 15.3229C148.706 15.3229 149.306 15.9354 149.306 16.7439C149.306 17.5524 148.694 18.1771 147.922 18.1771C147.15 18.1771 146.526 17.5769 146.526 16.7439Z" fill="white"/>
<path d="M63.7393 47.3792L65.3318 40.1395H66.8753L65.2828 47.3792H63.7393ZM67.108 46.3747C67.108 46.3135 67.108 46.142 67.1448 46.0195L67.7328 43.349H66.863L67.1325 42.1485H68.0023L68.3208 40.7152H69.705L69.3865 42.1485H70.4523L70.1705 43.349H69.1048L68.5903 45.652V45.8357C68.5903 46.1175 68.7495 46.289 69.1048 46.289C69.2395 46.289 69.4233 46.2277 69.4845 46.1787L69.5213 47.2812C69.3253 47.416 69.0068 47.514 68.6638 47.514C67.7328 47.514 67.0958 47.1587 67.0958 46.3747M71.5915 43.0917L71.1015 42.5772C71.4813 42.4057 71.9835 42.0627 72.1673 41.6707H72.0448C71.6895 41.6707 71.371 41.438 71.371 40.9602C71.371 40.4457 71.8488 40.0292 72.3388 40.0292C72.7798 40.0292 73.184 40.3355 73.184 40.9235C73.184 41.7565 72.4858 42.6507 71.5915 43.0917ZM72.2775 46.5707L73.0493 45.603C73.3678 45.9705 74.1273 46.436 74.8868 46.436C75.3523 46.436 75.6463 46.1787 75.6463 45.897C75.6463 45.1865 72.9758 45.3702 72.9758 43.79C72.9758 42.8835 73.7353 42.026 75.1318 42.026C76.026 42.026 76.859 42.369 77.349 42.8712L76.6385 43.79C76.3813 43.4715 75.732 43.104 75.095 43.104C74.605 43.104 74.3355 43.3245 74.3355 43.594C74.3355 44.231 77.006 44.084 77.006 45.6887C77.006 46.681 76.173 47.5262 74.7398 47.5262C73.7843 47.5262 72.8533 47.2077 72.2775 46.583M85.2135 47.3792L85.8873 44.329H82.4695L81.7958 47.3792H80.2523L81.8448 40.1395H83.3883L82.7758 42.9815H86.1813L86.806 40.1395H88.3618L86.7693 47.3792H85.2258H85.2135ZM91.559 46.142L91.6938 45.505C91.4855 45.211 91.0323 45.015 90.5055 45.015C89.893 45.015 89.5133 45.3825 89.5133 45.897C89.5133 46.3502 89.8808 46.5952 90.4565 46.5952C90.9343 46.5952 91.2895 46.4237 91.5468 46.1542L91.559 46.142ZM91.2773 47.3792L91.3875 46.8402C90.9955 47.2322 90.4933 47.5017 89.8195 47.5017C88.9253 47.5017 88.0923 46.9995 88.0923 45.9827C88.0923 44.7945 88.9988 44.0717 90.0278 44.0717C90.7873 44.0717 91.3508 44.2922 91.8285 44.7822L91.9633 44.182C91.9633 44.182 91.9878 44.0105 91.9878 43.9247C91.9878 43.447 91.4733 43.1285 90.7628 43.1285C90.2238 43.1285 89.7338 43.3122 89.305 43.6185L88.9865 42.6262C89.599 42.1975 90.3095 41.9892 91.069 41.9892C92.3063 41.9892 93.4088 42.4547 93.4088 43.6552C93.4088 43.7777 93.372 44.0717 93.3475 44.2187L92.6493 47.367H91.265L91.2773 47.3792ZM93.8253 47.3792L94.989 42.1362H96.3733L96.214 42.8222C96.6673 42.3322 97.2308 42.0137 98.076 42.0137L97.7698 43.3857C97.684 43.3612 97.488 43.3245 97.2798 43.3245C96.7653 43.3245 96.2875 43.6062 95.969 43.9615L95.2095 47.4037H93.8253V47.3792ZM99.252 45.0517C99.252 45.799 99.7543 46.2767 100.416 46.2767C100.906 46.2767 101.347 46.0072 101.616 45.6397L102.008 43.8267C101.776 43.4715 101.335 43.2142 100.783 43.2142C99.8768 43.2142 99.2398 44.0717 99.2398 45.0395M102.229 42.8222L102.817 40.1272H104.201L102.596 47.367H101.212L101.371 46.7177C100.93 47.2322 100.428 47.5017 99.8033 47.5017C98.615 47.5017 97.8065 46.7177 97.8065 45.3335C97.8065 43.7532 98.7988 42.0015 100.575 42.0015C101.286 42.0015 101.898 42.3077 102.241 42.8345M108.268 47.3792L109.567 41.4992H107.447L107.741 40.1395H113.523L113.229 41.4992H111.11L109.824 47.3792H108.28H108.268ZM116.096 44.4637C116.096 43.7042 115.643 43.2387 114.883 43.2387C113.964 43.2387 113.315 44.1207 113.315 45.064C113.315 45.8235 113.781 46.289 114.54 46.289C115.459 46.289 116.084 45.407 116.084 44.4637M111.882 45.1252C111.882 43.496 113.144 42.0137 114.908 42.0137C116.574 42.0137 117.517 43.0182 117.517 44.4025C117.517 46.0317 116.255 47.514 114.479 47.514C112.813 47.514 111.882 46.5095 111.882 45.1252ZM120.408 46.1542L121.363 45.015C121.866 45.6887 122.809 46.142 123.801 46.142C124.585 46.142 124.891 45.701 124.891 45.3335C124.891 44.3167 121.363 44.5005 121.363 42.3935C121.363 41.2052 122.417 40.0415 124.193 40.0415C125.345 40.0415 126.435 40.458 127.084 41.2052L126.116 42.3077C125.577 41.6707 124.695 41.3767 123.96 41.3767C123.409 41.3767 122.993 41.6952 122.993 42.0872C122.993 43.0305 126.533 42.9202 126.533 45.0027C126.533 46.3257 125.467 47.4895 123.679 47.4895C122.258 47.4895 121.008 46.9382 120.396 46.1297M127.317 46.3747C127.317 46.3135 127.317 46.142 127.354 46.0195L127.942 43.349H127.072L127.341 42.1485H128.211L128.53 40.7152H129.914L129.595 42.1485H130.661L130.392 43.349H129.326L128.811 45.652V45.8357C128.811 46.1175 128.971 46.289 129.326 46.289C129.461 46.289 129.644 46.2277 129.706 46.1787L129.742 47.2812C129.546 47.416 129.228 47.514 128.885 47.514C127.954 47.514 127.317 47.1587 127.317 46.3747ZM134.728 44.4637C134.728 43.7042 134.275 43.2387 133.515 43.2387C132.584 43.2387 131.947 44.1207 131.947 45.064C131.947 45.8235 132.413 46.289 133.172 46.289C134.091 46.289 134.716 45.407 134.716 44.4637M130.514 45.1252C130.514 43.496 131.776 42.0137 133.54 42.0137C135.206 42.0137 136.149 43.0182 136.149 44.4025C136.149 46.0317 134.887 47.514 133.111 47.514C131.445 47.514 130.514 46.5095 130.514 45.1252ZM140.976 44.4637C140.976 43.7165 140.486 43.2387 139.812 43.2387C139.334 43.2387 138.905 43.5082 138.624 43.8757L138.207 45.6887C138.44 46.044 138.881 46.3012 139.432 46.3012C140.339 46.3012 140.976 45.4437 140.976 44.476M137.987 46.6932L137.386 49.3882H136.002L137.607 42.1485H138.991L138.832 42.7977C139.273 42.2832 139.787 42.0137 140.412 42.0137C141.6 42.0137 142.397 42.7977 142.397 44.182C142.397 45.75 141.429 47.514 139.64 47.514C138.93 47.514 138.317 47.2077 137.974 46.681M149.734 41.683L147.921 44.7945H150.175L149.734 41.683ZM150.482 47.3792L150.298 46.1542H147.186L146.476 47.3792H144.638L149.024 40.1395H150.959L152.148 47.3792H150.482ZM157.06 47.3792L158.371 41.4992H156.251L156.545 40.1395H162.315L162.021 41.4992H159.902L158.603 47.3792H157.048H157.06ZM160.821 47.3792L161.984 42.1362H163.369L163.209 42.8222C163.663 42.3322 164.226 42.0137 165.071 42.0137L164.765 43.3857C164.679 43.3612 164.483 43.3245 164.263 43.3245C163.748 43.3245 163.271 43.6062 162.952 43.9615L162.193 47.4037H160.808H160.821V47.3792ZM168.146 46.142L168.281 45.505C168.073 45.1987 167.619 45.015 167.093 45.015C166.48 45.015 166.088 45.3825 166.088 45.897C166.088 46.3502 166.456 46.5952 167.031 46.5952C167.509 46.5952 167.864 46.4237 168.122 46.1542M167.852 47.3915L167.962 46.8525C167.57 47.2445 167.068 47.514 166.394 47.514C165.5 47.514 164.667 47.0117 164.667 45.995C164.667 44.8067 165.574 44.084 166.615 44.084C167.374 44.084 167.938 44.3045 168.416 44.7945L168.55 44.1942C168.55 44.1942 168.575 44.0227 168.575 43.937C168.575 43.4592 168.06 43.1407 167.35 43.1407C166.811 43.1407 166.321 43.3245 165.892 43.6307L165.574 42.6385C166.186 42.2097 166.897 42.0015 167.656 42.0015C168.893 42.0015 169.996 42.467 169.996 43.6675C169.996 43.79 169.959 44.084 169.935 44.231L169.236 47.3792H167.852V47.3915ZM173.953 47.3792L174.663 44.1942C174.688 44.0962 174.7 43.986 174.7 43.888C174.7 43.4102 174.308 43.2265 173.806 43.2265C173.34 43.2265 172.875 43.545 172.581 43.839L171.809 47.3792H170.425L171.588 42.1362H172.973L172.813 42.81C173.23 42.418 173.793 42.0015 174.553 42.0015C175.557 42.0015 176.194 42.516 176.194 43.3367C176.194 43.4347 176.158 43.6552 176.133 43.7777L175.337 47.3792H173.953ZM180.947 44.2555V44.1452C180.947 43.6062 180.555 43.1285 179.735 43.1285C178.987 43.1285 178.424 43.6675 178.326 44.2432H180.947V44.2555ZM176.807 45.162C176.807 43.4592 178.093 42.0137 179.833 42.0137C181.18 42.0137 182.185 42.8835 182.185 44.3535C182.185 44.672 182.123 45.064 182.074 45.2232H178.179V45.358C178.179 45.799 178.644 46.3992 179.624 46.3992C180.09 46.3992 180.629 46.2645 180.947 46.0195L181.364 46.9872C180.849 47.3302 180.151 47.5262 179.502 47.5262C177.86 47.5262 176.795 46.632 176.795 45.1742L176.807 45.162ZM182.038 46.6932C182.038 46.1787 182.479 45.7377 183.005 45.7377C183.446 45.7377 183.814 46.1052 183.814 46.5462C183.814 47.0607 183.373 47.5017 182.846 47.5017C182.405 47.5017 182.038 47.1342 182.038 46.6932ZM184.267 41.291H183.936L183.814 41.8055H184.194C184.414 41.8055 184.524 41.6585 184.524 41.5115C184.524 41.389 184.463 41.291 184.255 41.291M184.267 42.6017L184.01 42.0137H183.765L183.63 42.6017H183.397L183.728 41.095H184.316C184.61 41.095 184.769 41.291 184.769 41.487C184.769 41.7687 184.524 42.0015 184.279 42.0015L184.561 42.6017H184.279H184.267ZM184.059 40.7397C183.446 40.7397 182.969 41.2297 182.969 41.83C182.969 42.4302 183.446 42.9202 184.059 42.9202C184.671 42.9202 185.161 42.4302 185.161 41.83C185.161 41.2297 184.671 40.7397 184.059 40.7397ZM184.059 43.153C183.721 43.1384 183.402 42.9939 183.168 42.7497C182.934 42.5055 182.803 42.1804 182.803 41.8422C182.803 41.5041 182.934 41.179 183.168 40.9348C183.402 40.6906 183.721 40.5461 184.059 40.5315C184.782 40.5315 185.37 41.1195 185.37 41.8422C185.37 42.565 184.782 43.153 184.047 43.153H184.059Z" fill="#C9D4D8"/>
</g>
</g>
<defs>
<clipPath id="clip0_97_5179">
<rect width="189" height="50" fill="white"/>
</clipPath>
<clipPath id="clip1_97_5179">
<rect width="187.425" height="49" fill="white" transform="translate(0.787109 0.5)"/>
</clipPath>
</defs>
</svg>
