<svg width="247" height="54" viewBox="0 0 247 54" fill="none" xmlns="http://www.w3.org/2000/svg">
<path d="M20.4094 22.8861V25.7644H27.3554C27.171 27.3566 26.6178 28.5814 25.7572 29.3775C24.7737 30.3573 23.1755 31.4596 20.4094 31.4596C16.1681 31.4596 12.8487 28.0302 12.8487 23.8047C12.8487 19.5792 16.1066 16.1498 20.4094 16.1498C22.6838 16.1498 24.4049 17.0684 25.6343 18.232L27.6628 16.2111C25.9416 14.5576 23.6058 13.2716 20.4094 13.2716C14.5699 13.2716 9.65234 17.987 9.65234 23.8047C9.65234 29.6224 14.5699 34.3378 20.4094 34.3378C23.5444 34.3378 25.9416 33.2968 27.7857 31.3984C29.6913 29.4999 30.306 26.8054 30.306 24.6621C30.306 23.9884 30.2445 23.376 30.183 22.8861H20.4094V22.8861Z" fill="white"/>
<path d="M38.9119 20.4978C35.1623 20.4978 32.0273 23.376 32.0273 27.2953C32.0273 31.2146 35.1008 34.0929 38.9119 34.0929C42.723 34.0929 45.7964 31.2759 45.7964 27.3566C45.7964 23.376 42.723 20.4978 38.9119 20.4978ZM38.9119 31.4596C36.8219 31.4596 35.0393 29.7449 35.0393 27.3566C35.0393 24.907 36.8219 23.2536 38.9119 23.2536C41.0018 23.2536 42.7844 24.907 42.7844 27.3566C42.7844 29.7449 41.0018 31.4596 38.9119 31.4596Z" fill="white"/>
<path d="M72.536 22.0288H72.413C71.7368 21.2327 70.446 20.4978 68.7863 20.4978C65.3441 20.4978 62.3936 23.4373 62.3936 27.2953C62.3936 31.0922 65.3441 34.0929 68.7863 34.0929C70.446 34.0929 71.7368 33.358 72.413 32.5619H72.536V33.5417C72.536 36.1137 71.1222 37.5222 68.9093 37.5222C67.0652 37.5222 65.9588 36.2362 65.467 35.0727L62.8853 36.175C63.6229 37.9509 65.6514 40.2168 68.9707 40.2168C72.4745 40.2168 75.4865 38.1346 75.4865 33.113V20.8652H72.6589V22.0288H72.536ZM69.0937 31.4596C67.0037 31.4596 65.467 29.6837 65.467 27.3566C65.467 24.9683 67.0652 23.2536 69.0937 23.2536C71.1222 23.2536 72.7204 25.0295 72.7204 27.4178C72.7818 29.7449 71.1836 31.4596 69.0937 31.4596Z" fill="white"/>
<path d="M54.2166 20.4978C50.467 20.4978 47.332 23.376 47.332 27.2953C47.332 31.2146 50.4055 34.0929 54.2166 34.0929C58.0276 34.0929 61.1011 31.2759 61.1011 27.3566C61.1011 23.376 58.0276 20.4978 54.2166 20.4978ZM54.2166 31.4596C52.1266 31.4596 50.344 29.7449 50.344 27.3566C50.344 24.907 52.1266 23.2536 54.2166 23.2536C56.3065 23.2536 58.0891 24.907 58.0891 27.3566C58.0891 29.7449 56.3065 31.4596 54.2166 31.4596Z" fill="white"/>
<path d="M77.7588 13.5779H80.7093V34.1542H77.7588V13.5779Z" fill="white"/>
<path d="M89.8075 31.4596C88.2708 31.4596 87.2258 30.786 86.4882 29.3775L95.6471 25.6419L95.3397 24.8458C94.7865 23.3148 93.0039 20.4978 89.5001 20.4978C85.9964 20.4978 83.0459 23.2536 83.0459 27.2953C83.0459 31.0922 85.9349 34.0929 89.8075 34.0929C92.9424 34.0929 94.725 32.1945 95.5241 31.0922L93.1883 29.5612C92.3892 30.7247 91.3442 31.4596 89.8075 31.4596ZM89.6231 23.0698C90.8525 23.0698 91.8974 23.6822 92.2048 24.5396L86.0579 27.1116C85.9964 24.2946 88.0864 23.0698 89.6231 23.0698Z" fill="white"/>
<path d="M113.453 34.5433H104.695V18.9449H106.7V32.6262H113.453V34.5433Z" fill="white"/>
<path d="M114.587 29.2059C114.587 27.5647 115.103 26.2068 116.134 25.132C117.179 24.0573 118.494 23.5199 120.077 23.5199C121.66 23.5199 122.967 24.0573 123.998 25.132C125.044 26.2068 125.567 27.5647 125.567 29.2059C125.567 30.8616 125.044 32.2195 123.998 33.2798C122.967 34.3545 121.66 34.8919 120.077 34.8919C118.494 34.8919 117.179 34.3545 116.134 33.2798C115.103 32.205 114.587 30.8471 114.587 29.2059ZM116.591 29.2059C116.591 30.3533 116.925 31.2828 117.593 31.9944C118.261 32.7061 119.089 33.0619 120.077 33.0619C121.064 33.0619 121.892 32.7061 122.56 31.9944C123.228 31.2828 123.563 30.3533 123.563 29.2059C123.563 28.073 123.228 27.1508 122.56 26.4391C121.878 25.713 121.05 25.3499 120.077 25.3499C119.104 25.3499 118.276 25.713 117.593 26.4391C116.925 27.1508 116.591 28.073 116.591 29.2059Z" fill="white"/>
<path d="M132.267 34.8919C130.684 34.8919 129.37 34.3545 128.324 33.2798C127.293 32.176 126.777 30.818 126.777 29.2059C126.777 27.5647 127.293 26.2068 128.324 25.132C129.37 24.0573 130.684 23.5199 132.267 23.5199C133.357 23.5199 134.308 23.7958 135.121 24.3477C135.935 24.8851 136.545 25.6331 136.951 26.5916L135.121 27.3541C134.555 26.018 133.56 25.3499 132.137 25.3499C131.222 25.3499 130.43 25.7202 129.762 26.4609C129.108 27.2016 128.782 28.1166 128.782 29.2059C128.782 30.2952 129.108 31.2102 129.762 31.9509C130.43 32.6916 131.222 33.0619 132.137 33.0619C133.604 33.0619 134.635 32.3938 135.23 31.0577L137.017 31.8201C136.624 32.7787 136.007 33.5339 135.165 34.0858C134.337 34.6232 133.371 34.8919 132.267 34.8919Z" fill="white"/>
<path d="M140.123 31.2755C140.123 31.7984 140.341 32.2341 140.776 32.5826C141.227 32.9312 141.749 33.1055 142.345 33.1055C143.187 33.1055 143.935 32.7932 144.589 32.1687C145.257 31.5442 145.591 30.8108 145.591 29.9684C144.966 29.4746 144.095 29.2277 142.977 29.2277C142.163 29.2277 141.481 29.4237 140.929 29.8159C140.391 30.208 140.123 30.6946 140.123 31.2755ZM142.715 23.5199C144.197 23.5199 145.366 23.9193 146.223 24.7181C147.08 25.5024 147.508 26.5844 147.508 27.9641V34.5433H145.591V33.0619H145.504C144.676 34.2819 143.572 34.8919 142.192 34.8919C141.016 34.8919 140.028 34.5433 139.23 33.8462C138.445 33.1491 138.053 32.2776 138.053 31.2319C138.053 30.1281 138.467 29.2495 139.295 28.5959C140.137 27.9423 141.256 27.6156 142.65 27.6156C143.841 27.6156 144.821 27.8334 145.591 28.2691V27.8116C145.591 27.1145 145.315 26.5263 144.763 26.047C144.211 25.5532 143.565 25.3063 142.824 25.3063C141.706 25.3063 140.82 25.7783 140.166 26.7224L138.402 25.6113C139.375 24.217 140.813 23.5199 142.715 23.5199Z" fill="white"/>
<path d="M151.773 18.9449V34.5433H149.769V18.9449H151.773Z" fill="white"/>
<path d="M168.32 30.3823C168.32 31.7475 167.819 32.8441 166.817 33.6719C165.8 34.4852 164.566 34.8919 163.113 34.8919C161.821 34.8919 160.681 34.5143 159.693 33.7591C158.705 33.0038 158.023 31.9726 157.645 30.6655L159.562 29.8812C159.693 30.346 159.875 30.7672 160.107 31.1448C160.339 31.5224 160.608 31.8492 160.913 32.1251C161.233 32.3866 161.581 32.5972 161.959 32.7569C162.336 32.9022 162.736 32.9748 163.157 32.9748C164.072 32.9748 164.82 32.7424 165.401 32.2776C165.982 31.7984 166.272 31.1666 166.272 30.3823C166.272 29.7287 166.033 29.1696 165.553 28.7048C165.103 28.2546 164.261 27.8189 163.026 27.3977C161.777 26.9475 161 26.6425 160.695 26.4827C159.039 25.6403 158.212 24.3986 158.212 22.7574C158.212 21.61 158.669 20.6297 159.584 19.8164C160.514 19.003 161.654 18.5964 163.004 18.5964C164.195 18.5964 165.227 18.9014 166.098 19.5114C166.969 20.1068 167.55 20.8548 167.841 21.7553L165.967 22.5395C165.793 21.9586 165.444 21.4793 164.922 21.1017C164.413 20.7096 163.789 20.5135 163.048 20.5135C162.264 20.5135 161.603 20.7313 161.066 21.1671C160.528 21.5737 160.259 22.1038 160.259 22.7574C160.259 23.2948 160.47 23.7595 160.891 24.1517C161.356 24.5438 162.365 25.0086 163.919 25.5459C165.502 26.0833 166.628 26.7441 167.296 27.5284C167.979 28.2982 168.32 29.2495 168.32 30.3823Z" fill="white"/>
<path d="M175.177 34.8919C173.608 34.8919 172.316 34.3545 171.299 33.2798C170.282 32.205 169.774 30.8471 169.774 29.2059C169.774 27.5792 170.268 26.2285 171.255 25.1538C172.243 24.0645 173.506 23.5199 175.046 23.5199C176.629 23.5199 177.885 24.0355 178.815 25.0667C179.759 26.0833 180.231 27.5139 180.231 29.3584L180.209 29.5762H171.822C171.851 30.6219 172.199 31.4643 172.867 32.1034C173.536 32.7424 174.334 33.0619 175.264 33.0619C176.542 33.0619 177.544 32.4229 178.27 31.1448L180.057 32.0162C179.577 32.9167 178.909 33.6211 178.052 34.1294C177.21 34.6377 176.251 34.8919 175.177 34.8919ZM171.974 27.9206H178.096C178.038 27.1798 177.733 26.5699 177.181 26.0906C176.644 25.5968 175.917 25.3499 175.002 25.3499C174.247 25.3499 173.594 25.5822 173.042 26.047C172.504 26.5118 172.149 27.1363 171.974 27.9206Z" fill="white"/>
<path d="M184.068 34.5433H182.064V23.8685H183.981V25.6113H184.068C184.271 25.0449 184.685 24.5656 185.31 24.1735C185.949 23.7668 186.573 23.5635 187.183 23.5635C187.764 23.5635 188.258 23.6506 188.665 23.8249L188.055 25.7638C187.808 25.6621 187.416 25.6113 186.878 25.6113C186.123 25.6113 185.462 25.9163 184.896 26.5263C184.344 27.1363 184.068 27.8479 184.068 28.6613V34.5433Z" fill="white"/>
<path d="M195.376 34.5433H193.371L189.058 23.8685H191.237L194.374 32.1469H194.417L197.598 23.8685H199.733L195.376 34.5433Z" fill="white"/>
<path d="M203.633 20.1867C203.633 20.5789 203.495 20.9129 203.22 21.1888C202.944 21.4648 202.61 21.6028 202.217 21.6028C201.825 21.6028 201.491 21.4648 201.215 21.1888C200.939 20.9129 200.801 20.5789 200.801 20.1867C200.801 19.7946 200.939 19.4605 201.215 19.1846C201.491 18.9086 201.825 18.7707 202.217 18.7707C202.61 18.7707 202.944 18.9086 203.22 19.1846C203.495 19.4605 203.633 19.7946 203.633 20.1867ZM203.22 23.8685V34.5433H201.215V23.8685H203.22Z" fill="white"/>
<path d="M210.601 34.8919C209.018 34.8919 207.704 34.3545 206.658 33.2798C205.627 32.176 205.111 30.818 205.111 29.2059C205.111 27.5647 205.627 26.2068 206.658 25.132C207.704 24.0573 209.018 23.5199 210.601 23.5199C211.691 23.5199 212.642 23.7958 213.455 24.3477C214.269 24.8851 214.879 25.6331 215.285 26.5916L213.455 27.3541C212.889 26.018 211.894 25.3499 210.471 25.3499C209.556 25.3499 208.764 25.7202 208.096 26.4609C207.443 27.2016 207.116 28.1166 207.116 29.2059C207.116 30.2952 207.443 31.2102 208.096 31.9509C208.764 32.6916 209.556 33.0619 210.471 33.0619C211.938 33.0619 212.969 32.3938 213.564 31.0577L215.351 31.8201C214.958 32.7787 214.341 33.5339 213.499 34.0858C212.671 34.6232 211.705 34.8919 210.601 34.8919Z" fill="white"/>
<path d="M221.79 34.8919C220.221 34.8919 218.929 34.3545 217.912 33.2798C216.895 32.205 216.387 30.8471 216.387 29.2059C216.387 27.5792 216.881 26.2285 217.869 25.1538C218.856 24.0645 220.12 23.5199 221.659 23.5199C223.242 23.5199 224.499 24.0355 225.428 25.0667C226.372 26.0833 226.844 27.5139 226.844 29.3584L226.822 29.5762H218.435C218.464 30.6219 218.813 31.4643 219.481 32.1034C220.149 32.7424 220.948 33.0619 221.877 33.0619C223.155 33.0619 224.157 32.4229 224.883 31.1448L226.67 32.0162C226.191 32.9167 225.523 33.6211 224.666 34.1294C223.823 34.6377 222.865 34.8919 221.79 34.8919ZM218.587 27.9206H224.709C224.651 27.1798 224.346 26.5699 223.794 26.0906C223.257 25.5968 222.531 25.3499 221.616 25.3499C220.86 25.3499 220.207 25.5822 219.655 26.047C219.118 26.5118 218.762 27.1363 218.587 27.9206Z" fill="white"/>
<path d="M236.953 31.5805C236.953 32.51 236.546 33.2943 235.733 33.9333C234.92 34.5724 233.896 34.8919 232.661 34.8919C231.586 34.8919 230.642 34.6159 229.829 34.064C229.016 33.4976 228.435 32.7569 228.086 31.8419L229.873 31.0794C230.134 31.7185 230.512 32.2195 231.006 32.5826C231.514 32.9312 232.066 33.1055 232.661 33.1055C233.3 33.1055 233.83 32.9675 234.252 32.6916C234.687 32.4156 234.905 32.0888 234.905 31.7112C234.905 31.0286 234.382 30.5275 233.337 30.208L231.507 29.7505C229.43 29.2277 228.391 28.2255 228.391 26.7441C228.391 25.7711 228.783 24.994 229.568 24.4131C230.366 23.8176 231.383 23.5199 232.618 23.5199C233.562 23.5199 234.411 23.745 235.167 24.1952C235.936 24.6455 236.474 25.2482 236.779 26.0034L234.992 26.7441C234.789 26.2939 234.455 25.9453 233.99 25.6984C233.54 25.437 233.032 25.3063 232.465 25.3063C231.942 25.3063 231.47 25.437 231.049 25.6984C230.642 25.9599 230.439 26.2794 230.439 26.657C230.439 27.267 231.013 27.7027 232.16 27.9641L233.772 28.378C235.893 28.9009 236.953 29.9684 236.953 31.5805Z" fill="white"/>
</svg>
