<svg width="72" height="72" viewBox="0 0 72 72" fill="none" xmlns="http://www.w3.org/2000/svg">
<mask id="mask0_2486_19229" style="mask-type:luminance" maskUnits="userSpaceOnUse" x="4" y="14" width="64" height="44">
<path d="M67.0283 14.5H4.97168V57.5H67.0283V14.5Z" fill="white"/>
</mask>
<g mask="url(#mask0_2486_19229)">
<path d="M27.3697 37.7948C27.1514 38.7848 26.7951 39.7174 26.3699 40.618C25.6459 42.1638 24.6691 43.4987 23.5487 44.7059C22.9281 45.3702 22.2845 45.9898 21.5835 46.5391C20.216 47.6122 18.722 48.3851 17.0787 48.7811C16.4524 48.928 15.8261 49.0366 15.1825 49.0685C14.7803 49.0877 14.3723 49.0941 13.9644 49.0941C11.3902 49.0941 8.8217 49.0941 6.2475 49.0941H6.04639V40.733C6.07512 40.733 6.11534 40.733 6.15556 40.733C8.49992 40.733 10.8443 40.733 13.1886 40.733C13.5104 40.733 13.8379 40.7458 14.1597 40.733C15.4066 40.6691 16.5615 40.2923 17.5671 39.43C18.1532 38.9253 18.6703 38.3505 19.0955 37.6734C19.1013 37.6606 19.107 37.6543 19.1128 37.6415H27.3238H27.3927C27.387 37.6862 27.3812 37.7437 27.3697 37.7948Z" fill="white"/>
<path d="M12.522 16.8823V22.944H21.2099V26.8594H26.6743V22.944V21.3663V16.8823H12.522Z" fill="#CE202F"/>
<path d="M29.4957 49.0494H65.5748C65.5633 48.9983 65.5518 48.9535 65.546 48.9088C65.276 47.7974 64.9599 46.7052 64.6209 45.6193C63.9774 43.5945 63.2247 41.6208 62.3168 39.7174C61.5181 38.0439 60.5528 36.5045 59.3519 35.1568C58.3176 33.9942 57.2029 32.9467 55.9905 32.0142C55.9502 31.9822 55.9158 31.9503 55.8698 31.9183C55.9043 31.8864 55.9273 31.8672 55.9445 31.8481C56.8121 31.1008 57.6108 30.2704 58.3636 29.3825C59.6851 27.8304 60.7769 26.1058 61.6388 24.196C62.8454 21.5133 63.759 18.7028 64.4773 15.8157C64.4888 15.7774 64.4888 15.739 64.5003 15.6943H29.5015V28.0667H20.1987V36.4662H29.5015V49.043L29.4957 49.0494ZM53.8702 40.7266C53.8702 40.7266 53.8644 40.7521 53.8587 40.7585C48.6873 40.7713 43.5159 40.7841 38.3388 40.7904H37.7987C37.6206 40.7904 37.4424 40.7904 37.2643 40.7904V36.5045H38.3388C40.3959 36.5045 42.4529 36.5045 44.5157 36.5045C45.8316 36.5045 47.1302 36.6961 48.4058 37.073C49.4113 37.3732 50.3479 37.8586 51.2328 38.4463C52.1292 39.0467 52.9623 39.7493 53.7208 40.5477C53.7725 40.5988 53.8185 40.6563 53.8644 40.7138M37.2471 24.1257H38.2526C39.4133 24.1257 40.574 24.1193 41.7404 24.1193C45.3259 24.1193 48.9114 24.1129 52.4969 24.1065H52.675C52.675 24.1065 52.6808 24.1257 52.6865 24.1385C52.652 24.1832 52.6176 24.2279 52.5773 24.2662C51.8361 25.0774 50.9915 25.7353 50.0836 26.2974C48.9516 26.9937 47.7392 27.4599 46.4694 27.7474C45.8258 27.8943 45.1708 27.9965 44.5157 28.0476C44.4238 28.054 44.3319 28.054 44.2399 28.054C42.2576 28.054 40.2752 28.054 38.2986 28.054H37.2528V24.1257H37.2471Z" fill="white"/>
<path d="M20.2961 37.5392C20.2961 37.5392 20.2788 37.6989 20.2673 37.7245C19.4169 39.2702 18.2792 40.4647 16.791 41.2248C16.1475 41.5569 15.4579 41.723 14.7569 41.8252C14.326 41.889 13.895 41.9018 13.4641 41.9018C12.6596 41.9018 11.8495 41.9018 11.045 41.9018C9.76367 41.9018 8.47657 41.9146 7.19522 41.921H7.01709V47.9124H7.18372C8.70641 47.9124 10.2291 47.9124 11.7518 47.9188C12.5045 47.9188 13.2515 47.9315 14.0042 47.9251C16.0268 47.9251 17.9402 47.4078 19.7387 46.3794C20.6178 45.8748 21.405 45.2233 22.1463 44.4951C22.8818 43.7733 23.5655 42.9941 24.1631 42.1254C25.0537 40.8223 25.6973 39.3788 26.1455 37.8267C26.1627 37.7756 26.1857 37.6095 26.2029 37.5328H20.2961V37.5392Z" fill="#CE202F"/>
<path d="M64.2415 47.9252C64.2242 47.8549 64.2127 47.7974 64.1955 47.7399C64.0001 47.0629 63.8163 46.3858 63.6037 45.7151C62.9429 43.6264 62.1442 41.608 61.1444 39.6918C60.5641 38.5804 59.9205 37.5265 59.1448 36.5684C57.7083 34.7927 56.0477 33.3236 54.2032 32.1036C54.163 32.078 54.1228 32.0461 54.0768 32.0141C54.1113 31.9822 54.1343 31.9566 54.163 31.9375C55.0824 31.2093 55.95 30.4173 56.7832 29.5741C58.2312 28.1114 59.4263 26.4379 60.3629 24.5217C61.4834 22.235 62.3568 19.8397 63.0291 17.3487C63.0693 17.189 63.1095 17.0229 63.1497 16.8632C62.9142 16.8249 30.7079 16.8185 30.5758 16.8632V29.2165H21.2271V35.2909H30.5815V47.9315H64.2415V47.9252ZM55.7432 41.5697C55.7949 41.6527 55.8409 41.7422 55.8926 41.8252C55.8983 41.838 55.9041 41.8571 55.9213 41.9018C49.2962 41.8891 42.694 41.8827 36.0862 41.8763V35.2781C36.1551 35.2781 36.2068 35.2717 36.2643 35.2717L43.4468 35.2589C43.8547 35.2589 44.257 35.2589 44.6649 35.2589C45.2682 35.2653 45.8716 35.3356 46.4692 35.4314C47.3943 35.5783 48.3021 35.821 49.1813 36.1596C50.7499 36.7664 52.1577 37.6925 53.439 38.855C54.3182 39.6471 55.0996 40.5477 55.7489 41.5825M36.0804 22.9312C42.3206 22.9312 48.5435 22.9632 54.8066 22.9632C54.7606 23.0398 54.7319 23.0973 54.6974 23.1484C54.2779 23.7935 53.8068 24.3876 53.2954 24.9497C51.6693 26.7509 49.7214 27.939 47.5264 28.648C46.7679 28.8907 46.0037 29.0632 45.2165 29.1462C44.889 29.1781 44.5557 29.1909 44.2282 29.1909C41.5793 29.1909 38.9304 29.1909 36.2873 29.1909H36.0804V22.9249V22.9312Z" fill="#CE202F"/>
<path d="M52.6692 24.1002H52.491C48.9056 24.1002 45.3201 24.1066 41.7288 24.113C40.5681 24.113 39.4074 24.113 38.2468 24.1194H37.2412V28.0476H38.287C40.2693 28.0476 42.2517 28.0476 44.2283 28.0476C44.3203 28.0476 44.4122 28.0476 44.5041 28.0412C45.1592 27.9901 45.8142 27.8879 46.4578 27.741C47.7276 27.4536 48.9343 26.9873 50.072 26.2911C50.9799 25.7354 51.8245 25.0775 52.5657 24.2599C52.606 24.2152 52.6404 24.1769 52.6749 24.1322C52.6749 24.1194 52.6692 24.1066 52.6634 24.1002M48.4689 25.8376C47.5438 26.2528 46.5842 26.5658 45.6016 26.7638C45.004 26.8787 44.4065 26.9298 43.8031 26.9171C43.2975 26.9043 42.7918 26.9107 42.2804 26.9043C40.9991 26.9043 39.712 26.9043 38.4306 26.9043H38.2927V25.2819H49.5319L49.5434 25.3266C49.1871 25.4991 48.8309 25.6779 48.4689 25.8376Z" fill="black"/>
<path d="M53.8702 40.7265C53.8242 40.6754 53.7725 40.618 53.7265 40.5669C52.968 39.762 52.1349 39.0658 51.2385 38.4654C50.3479 37.8714 49.4113 37.3923 48.4115 37.0921C47.1359 36.7089 45.8373 36.5236 44.5215 36.5172C42.4644 36.5109 40.4073 36.5172 38.3445 36.5172H37.27V40.8032C37.4481 40.8032 37.6263 40.8032 37.8101 40.8032H38.3503C43.5217 40.7904 48.6988 40.7776 53.8702 40.7649C53.8702 40.7521 53.8759 40.7393 53.8817 40.7265M38.3388 39.6215V37.667H38.5226C38.5226 37.667 42.3495 37.667 44.2629 37.667C44.5559 37.667 44.849 37.6542 45.142 37.667C45.4983 37.6861 45.8603 37.7245 46.2165 37.7692C46.7164 37.8394 47.2163 37.9289 47.7105 38.0694C48.7677 38.376 49.7618 38.8423 50.6869 39.4874C50.7386 39.5193 50.7846 39.5576 50.8248 39.6215H38.3388Z" fill="black"/>
<path d="M67.0055 50.0968C66.8504 49.4837 66.701 48.8705 66.5344 48.2637C65.7644 45.4468 64.8278 42.7002 63.6384 40.0622C63.2132 39.1233 62.765 38.1907 62.2249 37.322C61.0585 35.4377 59.6449 33.8026 58.0763 32.3271C57.9154 32.1738 57.7488 32.0269 57.5821 31.8736C57.6166 31.8416 57.6339 31.8161 57.6568 31.7969C58.536 30.941 59.3461 30.0085 60.1046 29.0184C60.7884 28.1242 61.4147 27.1788 61.9491 26.1632C62.5007 25.1093 62.9661 24.0107 63.3971 22.8929C64.3394 20.4721 65.0979 17.9746 65.7414 15.4388C65.8161 15.145 65.8851 14.8511 65.9483 14.5701L65.8966 14.5062C65.3737 14.5062 29.49 14.5318 29.49 14.5318H10.4995V25.3265H19.1243V34.5946C19.0266 35.4122 18.7853 36.1723 18.3543 36.8494C18.0613 37.3156 17.7165 37.7244 17.343 38.1077C16.9408 38.5165 16.4754 38.8103 15.987 39.0594C15.3032 39.4043 14.5907 39.5896 13.838 39.5896C11.2408 39.5896 8.64359 39.5896 6.04641 39.5896H4.9834H4.98914V50.2501H6.05215C8.99984 50.2501 11.9418 50.2501 14.8895 50.2501C15.5732 50.2501 16.2455 50.1799 16.9121 50.033C18.1877 49.7583 19.4001 49.2729 20.5493 48.6022C21.8134 47.8676 22.9453 46.9415 23.9911 45.862C25.2265 44.5909 26.2723 43.1537 27.0997 41.5313C27.341 41.0587 27.5651 40.5732 27.7605 40.075C28.0478 39.3277 28.2661 38.5612 28.4328 37.7819V50.2374H67.0285C67.017 50.1863 67.0113 50.1416 67.0055 50.0968ZM11.5625 24.1001V15.7071H27.7547V26.8531H20.1873V24.0937H11.5625V24.1001ZM27.3698 37.7947C27.1514 38.7847 26.7952 39.7173 26.37 40.6179C25.646 42.1637 24.6691 43.4987 23.5487 44.7059C22.9339 45.3702 22.2846 45.9897 21.5835 46.5391C20.216 47.6121 18.722 48.385 17.0787 48.781C16.4524 48.9279 15.8261 49.0365 15.1825 49.0685C14.7746 49.0876 14.3723 49.094 13.9644 49.094C11.3902 49.094 8.82172 49.094 6.24751 49.094H6.04641V40.7457C6.07514 40.7457 6.11536 40.7329 6.15558 40.7329C8.49994 40.7329 10.8443 40.7329 13.1887 40.7329C13.5104 40.7329 13.838 40.7457 14.1597 40.7329C15.4066 40.669 16.5616 40.2922 17.5671 39.4299C18.1532 38.9253 18.6703 38.3504 19.0955 37.6733C19.1013 37.6606 19.107 37.6542 19.1128 37.6414H27.3238H27.3927C27.387 37.6861 27.3812 37.7436 27.3698 37.7947ZM29.4958 49.0493V36.4725H20.193V28.0731H29.4958V15.7071H64.4946C64.4888 15.7518 64.4831 15.7901 64.4716 15.8284C63.7533 18.7155 62.8397 21.526 61.6331 24.2087C60.7712 26.1185 59.6794 27.8431 58.3578 29.3953C57.6051 30.2831 56.8064 31.1135 55.9388 31.8608C55.9215 31.88 55.8986 31.8927 55.8641 31.9247C55.9101 31.963 55.9445 31.9949 55.9848 32.0205C57.1972 32.9467 58.3119 34.0006 59.3461 35.1631C60.5471 36.5108 61.5124 38.0502 62.3111 39.7237C63.2189 41.6208 63.9717 43.6008 64.6152 45.6257C64.96 46.7115 65.276 47.8038 65.5403 48.9152C65.5518 48.9599 65.5633 49.0046 65.5691 49.0557H29.49L29.4958 49.0493Z" fill="black"/>
<path d="M12.1829 52.6199L10.4936 57.4935H9.80405L8.5974 54.1209L7.3735 57.4935H6.66674L4.97168 52.6199H6.02894L7.14366 55.8902L8.30435 52.6199H9.0226L10.212 55.8902L11.275 52.6199H12.1829Z" fill="black"/>
<path d="M18.5497 57.4934H17.4005L16.8719 56.4267H14.0908L13.5794 57.4934H12.5566L15.0389 52.6134H16.0272L18.544 57.4934H18.5497ZM16.4467 55.5516L15.5043 53.5651L14.5275 55.5516H16.4524H16.4467Z" fill="black"/>
<path d="M25.1634 57.4934H23.7039L21.9341 55.6474H20.9631V57.4934H19.9575V52.6134H23.7154C24.3762 52.6134 24.7037 52.9264 24.7037 53.5587V54.7021C24.7037 55.1748 24.5313 55.4686 24.1923 55.5835C24.0602 55.6283 23.7096 55.6474 23.1408 55.6474L25.1634 57.4934ZM23.7211 54.4338V53.8462C23.7211 53.6801 23.6809 53.5715 23.5947 53.5268C23.5315 53.4821 23.4223 53.4629 23.2615 53.4629H20.9631V54.8234H23.2615C23.4223 54.8234 23.5315 54.8043 23.5947 54.7596C23.6809 54.7085 23.7211 54.5999 23.7211 54.4402" fill="black"/>
<path d="M31.9894 57.4934H30.5242L28.7544 55.6474H27.7834V57.4934H26.7778V52.6134H30.5357C31.1965 52.6134 31.524 52.9264 31.524 53.5587V54.7021C31.524 55.1748 31.3516 55.4686 31.0126 55.5835C30.8805 55.6283 30.53 55.6474 29.9554 55.6474L31.9779 57.4934H31.9894ZM30.5415 54.4338V53.8462C30.5415 53.6801 30.5012 53.5715 30.415 53.5268C30.3518 53.4821 30.2427 53.4629 30.0818 53.4629H27.7834V54.8234H30.0818C30.2427 54.8234 30.3518 54.8043 30.415 54.7596C30.5012 54.7085 30.5415 54.5999 30.5415 54.4402" fill="black"/>
<path d="M38.4301 57.4934H37.2809L36.7522 56.4267H33.9712L33.4598 57.4934H32.437L34.9193 52.6134H35.9076L38.4243 57.4934H38.4301ZM36.3328 55.5516L35.3904 53.5651L34.4136 55.5516H36.3385H36.3328Z" fill="black"/>
<path d="M44.9982 57.4934H44.3029L41.0794 54.4785C40.9415 54.3508 40.8208 54.2166 40.7117 54.0825C40.7404 54.3955 40.7519 54.6446 40.7519 54.8298V57.4934H39.8325V52.6134H40.5278L43.6134 55.4877C43.8317 55.6985 44.0041 55.871 44.1133 56.0179C44.0845 55.5644 44.0731 55.2833 44.0731 55.1748V52.6134H44.9924V57.4934H44.9982Z" fill="black"/>
<path d="M51.3015 53.4886H49.2789V57.4935H48.2561V53.4886H46.2393V52.6199H51.3015V53.4886Z" fill="black"/>
<path d="M53.577 52.6199H52.5542V57.4999H53.577V52.6199Z" fill="black"/>
<path d="M60.3519 57.4935H55.8184V52.6199H60.3117V53.4502H56.8411V54.5361H58.8637V55.3665H56.8411V56.5801H60.3519V57.4935Z" fill="black"/>
<path d="M67.0053 56.3437C67.0053 56.7972 66.9249 57.1038 66.7697 57.2635C66.6089 57.4232 66.3216 57.4999 65.9136 57.4999H63.2015C62.7533 57.4999 62.4603 57.4104 62.3166 57.238C62.173 57.0591 62.104 56.7206 62.104 56.216L63.0061 56.0052V56.5801H66.109V55.4623H63.3681C62.9544 55.4623 62.6671 55.3856 62.512 55.2259C62.3568 55.0662 62.2764 54.766 62.2764 54.3061V53.7696C62.2764 53.3161 62.3568 53.0095 62.512 52.8562C62.6671 52.6965 62.9544 52.6199 63.3681 52.6199H65.8619C66.2813 52.6199 66.5686 52.7029 66.7238 52.8626C66.8789 53.0223 66.9536 53.3353 66.9536 53.7952L66.0515 54.0315V53.4758H63.1785V54.5233H65.9193C66.333 54.5233 66.6203 54.6 66.7755 54.7597C66.9364 54.9193 67.0111 55.2259 67.0111 55.6794V56.3501L67.0053 56.3437Z" fill="black"/>
</g>
</svg>
