<svg width="145" height="48" viewBox="0 0 145 48" fill="none" xmlns="http://www.w3.org/2000/svg">
<g clip-path="url(#clip0_97_5358)">
<path fill-rule="evenodd" clip-rule="evenodd" d="M12.1144 26.77L0 18.1779H21.6215L20.3294 19.4274C19.6017 19.9581 18.965 20.6079 18.2455 21.1245C17.8022 21.4427 17.1967 21.7576 16.8746 22.1851C16.5181 22.6579 16.3106 23.1499 16.052 23.7231C15.85 24.1708 15.4713 24.6231 15.0649 25.1549C14.6584 25.6867 14.967 25.4335 14.1875 26.1625C13.8598 26.469 12.9949 26.6238 12.1144 26.77ZM26.8456 18.1779H50.7228L32.2277 31.2955C32.152 31.0665 32.0683 30.8432 32.01 30.6173C33.4665 30.1649 33.3481 27.6591 32.1745 26.958C32.7858 26.7255 33.7558 25.5192 33.3261 24.5185C33.1261 24.0528 32.5203 23.636 32.0649 23.4049C31.171 22.9514 30.0648 23.1545 29.1036 23.4049C28.284 23.6183 27.0123 23.2462 26.4713 23.0867C26.1423 23.0513 25.8133 22.9629 25.4842 22.9276C24.387 22.531 25.3934 19.7002 25.1004 20.8593C25.4223 19.5853 25.8485 19.6731 26.8456 18.1779Z" fill="#C9D4D8"/>
<path fill-rule="evenodd" clip-rule="evenodd" d="M18.6895 20.9865L25.3607 0L41.0349 47.9219L27.2142 37.772C28.5639 37.6048 29.7609 37.6724 30.4563 36.677C30.8547 36.1067 30.8916 35.1692 30.895 34.3436C31.5627 34.1458 32.6298 32.914 32.3757 31.851C32.2879 31.4833 32.1368 31.14 32.0467 30.7904C33.5032 30.3381 33.3847 27.8322 32.2112 27.1312C32.8224 26.8986 33.7924 25.6923 33.3628 24.6917C33.1628 24.2259 32.557 23.8091 32.1015 23.578C31.2076 23.1245 30.1014 23.3277 29.1402 23.578C28.3206 23.7914 27.0489 23.4194 26.508 23.2598C26.1789 23.2244 25.8499 23.1361 25.5209 23.1007C24.4236 22.7041 25.43 19.8734 25.137 21.0324C25.4715 19.7088 25.9185 19.8551 27.0015 18.1687C27.3393 17.6427 27.4979 16.9233 27.6596 16.2595V15.7292C27.7468 15.3382 27.6979 14.7582 27.5499 14.4034C27.2921 13.7862 26.8851 13.4577 26.4531 13.0246C26.2142 13.0182 25.9753 13.0359 25.7402 13.0776C24.7398 15.0038 23.4998 16.9737 21.7918 18.2217L20.366 19.6006C19.7783 20.0291 19.25 20.5354 18.6895 20.9865Z" fill="#C9D4D8"/>
<path fill-rule="evenodd" clip-rule="evenodd" d="M67.4173 27.0283V33.5586H64.1523V21.8476H67.4173V23.1537C68.404 22.1524 69.5141 21.6517 70.7475 21.6517C71.9809 21.6517 73.0148 22.0871 73.8492 22.9578C74.6835 23.8285 75.1007 24.9894 75.1007 26.4406V33.5586H71.8358V26.9413C71.8358 25.1418 71.1756 24.2421 69.8551 24.2421C69.2021 24.2421 68.6326 24.4779 68.1464 24.9495C67.6603 25.4212 67.4173 26.1141 67.4173 27.0283ZM81.3259 33.5586H78.0609V21.8476H81.3259V33.5586ZM77.778 18.9961C77.778 18.4591 77.963 18.0056 78.333 17.6356C78.703 17.2655 79.1565 17.0805 79.6934 17.0805C80.2303 17.0805 80.6837 17.2655 81.0538 17.6356C81.4238 18.0056 81.6088 18.4591 81.6088 18.9961C81.6088 19.533 81.4238 19.9865 81.0538 20.3565C80.6837 20.7266 80.2303 20.9116 79.6934 20.9116C79.1565 20.9116 78.703 20.7266 78.333 20.3565C77.963 19.9865 77.778 19.533 77.778 18.9961ZM90.0323 30.8377C91.1206 30.8377 92.1001 30.2935 92.9708 29.2051L94.908 31.3819C93.3988 32.9491 91.7664 33.7328 90.0106 33.7328C88.2547 33.7328 86.771 33.1777 85.5594 32.0675C84.3477 30.9574 83.7419 29.5062 83.7419 27.714C83.7419 25.9218 84.355 24.4634 85.5811 23.3387C86.8073 22.214 88.262 21.6517 89.9453 21.6517C90.7869 21.6517 91.6394 21.8259 92.5028 22.1741C93.3662 22.5224 94.1244 23.0376 94.7774 23.7196L93.0796 25.9399C92.7023 25.4901 92.2416 25.1418 91.6974 24.8951C91.1533 24.6484 90.6128 24.525 90.0759 24.525C89.2197 24.525 88.4833 24.8044 87.8666 25.3631C87.2499 25.9218 86.9415 26.6982 86.9415 27.6922C86.9415 28.6863 87.2499 29.459 87.8666 30.0105C88.4833 30.5619 89.2052 30.8377 90.0323 30.8377ZM107.228 31.8607C105.907 33.1088 104.358 33.7328 102.581 33.7328C100.803 33.7328 99.3338 33.185 98.1729 32.0893C97.012 30.9937 96.4316 29.5244 96.4316 27.6814C96.4316 25.8384 97.0229 24.3727 98.2055 23.2843C99.3882 22.1959 100.785 21.6517 102.396 21.6517C104.006 21.6517 105.374 22.1379 106.498 23.1101C107.623 24.0824 108.185 25.4175 108.185 27.1154V28.8568H99.653C99.7546 29.4953 100.088 30.0178 100.654 30.4241C101.22 30.8304 101.859 31.0336 102.57 31.0336C103.716 31.0336 104.659 30.649 105.399 29.8799L107.228 31.8607ZM104.093 24.9169C103.643 24.5396 103.096 24.3509 102.45 24.3509C101.804 24.3509 101.213 24.5468 100.676 24.9386C100.139 25.3305 99.8271 25.8601 99.74 26.5277H104.877C104.804 25.8311 104.543 25.2942 104.093 24.9169ZM111.646 33.7763V21.8259H114.911V34.0375C114.911 35.3146 114.523 36.3231 113.747 37.0632C112.97 37.8033 112.02 38.1734 110.895 38.1734C109.771 38.1734 108.7 37.709 107.685 36.7802L109.187 34.364C109.622 34.8719 110.108 35.1259 110.645 35.1259C110.935 35.1259 111.175 35.0134 111.363 34.7885C111.552 34.5636 111.646 34.2262 111.646 33.7763ZM111.363 18.9961C111.363 18.4591 111.548 18.0056 111.918 17.6356C112.288 17.2655 112.742 17.0805 113.279 17.0805C113.816 17.0805 114.269 17.2655 114.639 17.6356C115.009 18.0056 115.194 18.4591 115.194 18.9961C115.194 19.533 115.009 19.9865 114.639 20.3565C114.269 20.7266 113.816 20.9116 113.279 20.9116C112.742 20.9116 112.288 20.7266 111.918 20.3565C111.548 19.9865 111.363 19.533 111.363 18.9961ZM121.43 30.0431C121.974 30.6454 122.671 30.9465 123.52 30.9465C124.368 30.9465 125.065 30.6454 125.609 30.0431C126.153 29.4409 126.425 28.6609 126.425 27.7031C126.425 26.7453 126.153 25.9617 125.609 25.3522C125.065 24.7427 124.368 24.438 123.52 24.438C122.671 24.438 121.974 24.7427 121.43 25.3522C120.886 25.9617 120.614 26.7453 120.614 27.7031C120.614 28.6609 120.886 29.4409 121.43 30.0431ZM127.949 31.9914C126.774 33.1523 125.297 33.7328 123.52 33.7328C121.742 33.7328 120.266 33.1523 119.09 31.9914C117.915 30.8304 117.327 29.401 117.327 27.7031C117.327 26.0052 117.915 24.5722 119.09 23.404C120.266 22.2358 121.742 21.6517 123.52 21.6517C125.297 21.6517 126.774 22.2358 127.949 23.404C129.124 24.5722 129.712 26.0052 129.712 27.7031C129.712 29.401 129.124 30.8304 127.949 31.9914ZM142.598 23.3169C143.657 24.4271 144.187 25.8529 144.187 27.5943C144.187 29.3357 143.642 30.7941 142.554 31.9696C141.466 33.145 140.229 33.7328 138.843 33.7328C137.457 33.7328 136.307 33.1596 135.393 32.0131V33.5586H132.128V17.407H135.393V23.1537C136.293 22.1524 137.454 21.6517 138.876 21.6517C140.298 21.6517 141.538 22.2068 142.598 23.3169ZM136.144 30.0431C136.674 30.6454 137.316 30.9465 138.07 30.9465C138.825 30.9465 139.485 30.6454 140.051 30.0431C140.617 29.4409 140.9 28.6682 140.9 27.7249C140.9 26.7816 140.624 25.9907 140.073 25.3522C139.521 24.7137 138.861 24.3944 138.092 24.3944C137.323 24.3944 136.674 24.7101 136.144 25.3413C135.614 25.9726 135.35 26.7635 135.35 27.714C135.35 28.6645 135.614 29.4409 136.144 30.0431Z" fill="white"/>
</g>
<defs>
<clipPath id="clip0_97_5358">
<rect width="144.621" height="47.9219" fill="white"/>
</clipPath>
</defs>
</svg>
