<svg width="72" height="72" viewBox="0 0 72 72" fill="none" xmlns="http://www.w3.org/2000/svg">
<path d="M60.4794 36.0513C60.4794 34.4383 60.3365 32.9071 60.0915 31.4167H37.0206V40.6246H50.2302C49.6381 43.6463 47.9027 46.1983 45.3302 47.9338V54.0588H53.211C57.8252 49.7917 60.4794 43.5033 60.4794 36.0513Z" fill="#4285F4"/>
<path d="M37.0206 60C43.6356 60 49.1686 57.795 53.2111 54.0587L45.3302 47.9337C43.1252 49.4037 40.3281 50.3021 37.0206 50.3021C30.6302 50.3021 25.2198 45.9942 23.2802 40.1754H15.1544V46.4842C19.1765 54.4875 27.4452 60 37.0206 60Z" fill="#34A853"/>
<path d="M23.2802 40.1754C22.7698 38.7054 22.5044 37.1333 22.5044 35.5C22.5044 33.8667 22.7902 32.2946 23.2802 30.8246V24.5158H15.1544C13.4802 27.8233 12.5206 31.5392 12.5206 35.5C12.5206 39.4608 13.4802 43.1767 15.1544 46.4842L23.2802 40.1754Z" fill="#FBBC05"/>
<path d="M37.0206 20.6979C40.6344 20.6979 43.8602 21.9433 46.4123 24.3729L53.3948 17.3904C49.1686 13.4296 43.6356 11 37.0206 11C27.4452 11 19.1765 16.5125 15.1544 24.5158L23.2802 30.8246C25.2198 25.0058 30.6302 20.6979 37.0206 20.6979Z" fill="#EA4335"/>
</svg>
