<svg width="40" height="40" viewBox="0 0 40 40" fill="none" xmlns="http://www.w3.org/2000/svg">
<path d="M5.38379 27.1152V28.2809C5.38379 30.9182 11.9263 33.0555 19.9978 33.0555C19.9985 33.0555 19.9985 33.0555 19.9992 33.0555C20 33.0555 20 33.0555 20.0007 33.0555C28.0714 33.0555 34.6147 30.9174 34.6147 28.2809V27.1152C31.8329 29.3768 26.392 30.8811 19.9992 30.8811C13.6064 30.8811 8.16561 29.3768 5.38379 27.1152Z" fill="url(#paint0_linear_11818_36178)"/>
<path d="M20.0002 30.1536C26.465 30.1536 32.1754 28.464 34.6157 26.1211V25.9641V22.9562V9.64265L34.607 9.65501V9.64265L27.8363 19.2158L29.943 22.8668L29.4837 23.5165L27.1539 19.4781L27.1648 19.4628L20.006 6.94434L20.0017 6.95233L12.8575 19.4774L12.8582 19.4781L10.5218 23.5281L10.0604 22.8675L12.1671 19.2165L5.39642 9.64338V22.9562H5.3877V26.1211C7.82506 28.464 13.5355 30.1536 20.0002 30.1536Z" fill="url(#paint1_linear_11818_36178)"/>
<defs>
<linearGradient id="paint0_linear_11818_36178" x1="5.38414" y1="30.0853" x2="34.6143" y2="30.0853" gradientUnits="userSpaceOnUse">
<stop stop-color="#FFA300"/>
<stop offset="0.9854" stop-color="#FFBD00"/>
</linearGradient>
<linearGradient id="paint1_linear_11818_36178" x1="5.38514" y1="18.5489" x2="34.6153" y2="18.5489" gradientUnits="userSpaceOnUse">
<stop stop-color="#FFA300"/>
<stop offset="0.9854" stop-color="#FFBD00"/>
</linearGradient>
</defs>
</svg>
