<svg width="202" height="30" viewBox="0 0 202 30" fill="none" xmlns="http://www.w3.org/2000/svg">
<g clip-path="url(#clip0_97_5357)">
<path d="M18.2221 0L0 9.37057L1.29056 11.8535L3.26848 10.8435V23.5667H6.07403V9.39862L18.2221 3.15625L30.2579 9.37057V23.5667H33.0635V10.8154L35.0835 11.8535L36.3741 9.37057L18.2221 0Z" fill="#C9D4D8"/>
<path d="M18.1944 17.5903C13.4951 17.5903 10.914 14.7287 10.8018 14.6024L8.68359 16.4401C8.82387 16.6084 12.1625 20.3959 18.1944 20.3959C24.2264 20.3959 27.5229 16.5944 27.6632 16.426L25.5169 14.6164C25.4187 14.7287 22.8797 17.5903 18.1944 17.5903Z" fill="#C9D4D8"/>
<path d="M55.9009 8.37394C55.438 7.84088 54.8348 7.43408 54.0773 7.15352C53.3198 6.85894 52.3799 6.71866 51.2577 6.71866C50.1214 6.71866 49.0694 7.01324 48.1155 7.60241C47.1616 8.19158 46.5023 8.97713 46.1235 9.94505H46.0674V1.02338H44.1035V23.1873H46.0674V13.8448C46.0955 13.0592 46.2217 12.3298 46.4602 11.6564C46.6987 10.9831 47.0353 10.408 47.4562 9.917C47.877 9.42602 48.396 9.04727 49.0132 8.76672C49.6305 8.48616 50.3178 8.34588 51.1174 8.34588C51.903 8.34588 52.5623 8.47213 53.0953 8.72463C53.6284 8.97713 54.0492 9.3138 54.3578 9.74866C54.6664 10.1835 54.8909 10.6885 55.0171 11.2917C55.1434 11.8809 55.1995 12.5121 55.1995 13.1995V23.1873H57.1634V12.8909C57.1634 11.937 57.0652 11.0813 56.8828 10.3098C56.6864 9.53825 56.3638 8.89297 55.9009 8.37394Z" fill="white"/>
<path d="M71.8795 17.6746C71.641 18.4882 71.2903 19.2176 70.8274 19.8629C70.3645 20.5082 69.7753 21.0132 69.0739 21.42C68.3725 21.8128 67.5449 22.0092 66.619 22.0092C65.6932 22.0092 64.8656 21.8128 64.1642 21.42C63.4628 21.0272 62.8736 20.5082 62.4107 19.8629C61.9478 19.2176 61.5971 18.4882 61.3586 17.6746C61.1201 16.861 61.0079 16.0193 61.0079 15.1776C61.0079 14.336 61.1201 13.4943 61.3586 12.6807C61.5971 11.8671 61.9478 11.1376 62.4107 10.4923C62.8736 9.84706 63.4628 9.32803 64.1642 8.93525C64.8656 8.54247 65.6932 8.34609 66.619 8.34609C67.5589 8.34609 68.3725 8.54247 69.0739 8.93525C69.7753 9.32803 70.3645 9.84706 70.8274 10.4923C71.2903 11.1376 71.641 11.8671 71.8795 12.6807C72.1179 13.4943 72.2442 14.336 72.2442 15.1776C72.2442 16.0333 72.1179 16.861 71.8795 17.6746ZM72.2442 9.21581C71.5989 8.45831 70.8134 7.84109 69.8595 7.3922C68.9196 6.94331 67.8254 6.70483 66.605 6.70483C65.3846 6.70483 64.3045 6.92928 63.3506 7.3922C62.4107 7.84109 61.6111 8.45831 60.9658 9.21581C60.3206 9.97331 59.8296 10.8711 59.507 11.8951C59.1703 12.9191 59.002 14.0133 59.002 15.1636C59.002 16.3139 59.1703 17.408 59.507 18.4321C59.8436 19.4561 60.3206 20.3539 60.9658 21.1114C61.6111 21.8829 62.3967 22.4861 63.3506 22.921C64.2904 23.3698 65.3846 23.5943 66.605 23.5943C67.8254 23.5943 68.9196 23.3698 69.8595 22.921C70.7993 22.4721 71.5989 21.8689 72.2442 21.1114C72.8895 20.3398 73.3804 19.4561 73.7031 18.4321C74.0397 17.408 74.1941 16.3139 74.1941 15.1636C74.1941 13.9993 74.0257 12.9051 73.7031 11.8951C73.3664 10.8851 72.8754 9.98734 72.2442 9.21581Z" fill="white"/>
<path d="M86.9716 15.5849C86.9716 16.3986 86.8734 17.1841 86.691 17.9556C86.5087 18.7272 86.2141 19.4145 85.8213 20.0177C85.4285 20.6209 84.9235 21.0979 84.3203 21.4626C83.7172 21.8273 82.9877 21.9956 82.146 21.9956C80.589 21.9956 79.4948 21.6309 78.8635 20.8734C78.2323 20.13 77.8956 19.0358 77.8535 17.5769V7.16827H75.8896V17.5629C75.8896 18.5168 75.9878 19.3584 76.1983 20.1159C76.4087 20.8594 76.7313 21.4906 77.1802 22.0097C77.6291 22.5287 78.2042 22.9215 78.9196 23.202C79.6351 23.4826 80.5048 23.6229 81.5148 23.6229C82.7212 23.6229 83.8154 23.3423 84.7973 22.7672C85.7792 22.2061 86.5367 21.3784 87.0558 20.2983H87.1119V23.188H88.9215V7.16827H86.9576V15.5849H86.9716Z" fill="white"/>
<path d="M102.024 15.7107C101.603 15.36 101.112 15.0794 100.565 14.855C100.018 14.6446 99.4571 14.4903 98.896 14.4061L96.2868 13.8169C95.9502 13.7328 95.5854 13.6205 95.1927 13.4943C94.7999 13.354 94.4352 13.1857 94.0985 12.9753C93.7618 12.7648 93.4953 12.5123 93.2709 12.2178C93.0464 11.9232 92.9482 11.5444 92.9482 11.1096C92.9482 10.5905 93.0604 10.1557 93.2849 9.80498C93.5093 9.45428 93.8179 9.17373 94.1827 8.94928C94.5474 8.73886 94.9682 8.57053 95.4171 8.48636C95.866 8.38817 96.3008 8.34609 96.7357 8.34609C97.2968 8.34609 97.8299 8.41622 98.3209 8.54247C98.8259 8.68275 99.2607 8.89317 99.6395 9.17373C100.018 9.46831 100.327 9.83303 100.551 10.2819C100.776 10.7308 100.902 11.2498 100.93 11.853H102.894C102.852 10.9833 102.669 10.2258 102.361 9.59456C102.052 8.94928 101.631 8.41622 101.098 7.98136C100.565 7.5465 99.9621 7.22386 99.2607 7.01345C98.5593 6.80303 97.8159 6.70483 97.0022 6.70483C96.3009 6.70483 95.5854 6.789 94.87 6.95733C94.1546 7.12567 93.5093 7.37817 92.9202 7.72886C92.345 8.07956 91.8681 8.54247 91.5033 9.11761C91.1386 9.69275 90.9563 10.3941 90.9563 11.1937C90.9563 11.8811 91.0685 12.4422 91.2929 12.9191C91.5174 13.3821 91.84 13.7748 92.2468 14.0975C92.6536 14.4201 93.1165 14.6866 93.6636 14.8971C94.1967 15.1215 94.7858 15.3039 95.4311 15.4722L97.9561 16.0333C98.391 16.1315 98.8259 16.2578 99.2467 16.4121C99.6675 16.5523 100.046 16.7347 100.383 16.9591C100.72 17.1696 100.986 17.4501 101.183 17.7587C101.379 18.0814 101.477 18.4742 101.477 18.9511C101.477 19.5122 101.337 19.9751 101.056 20.3679C100.776 20.7467 100.425 21.0693 99.9902 21.3218C99.5553 21.5743 99.0784 21.7426 98.5734 21.8408C98.0684 21.939 97.5774 21.9951 97.1004 21.9951C95.7959 21.9951 94.7017 21.6585 93.8179 20.9851C92.9342 20.3118 92.4572 19.3158 92.3731 17.9972H90.4092C90.5775 19.9611 91.2508 21.3919 92.4152 22.2757C93.5935 23.1594 95.1225 23.6083 97.0022 23.6083C97.7457 23.6083 98.5032 23.5242 99.2747 23.3558C100.046 23.1875 100.734 22.921 101.337 22.5422C101.954 22.1635 102.459 21.6585 102.852 21.0553C103.245 20.438 103.441 19.6946 103.441 18.8389C103.441 18.1375 103.301 17.5203 103.034 17.0153C102.796 16.4962 102.445 16.0614 102.024 15.7107Z" fill="white"/>
<path d="M106.429 14.0694C106.513 13.34 106.681 12.6386 106.948 11.9512C107.2 11.2639 107.551 10.6466 107.986 10.1136C108.421 9.58053 108.954 9.1597 109.571 8.83706C110.188 8.51442 110.904 8.36011 111.717 8.36011C112.503 8.36011 113.204 8.51442 113.835 8.83706C114.453 9.1597 114.986 9.58053 115.421 10.1136C115.855 10.6466 116.192 11.2498 116.431 11.9232C116.669 12.6105 116.795 13.326 116.823 14.0694H106.429V14.0694ZM118.465 12.4001C118.212 11.32 117.805 10.3521 117.244 9.51039C116.669 8.66873 115.926 7.99539 115.014 7.47636C114.102 6.95733 113.008 6.70483 111.717 6.70483C110.455 6.70483 109.361 6.94331 108.435 7.43428C107.509 7.92525 106.751 8.5565 106.176 9.35609C105.601 10.1557 105.166 11.0675 104.886 12.0775C104.605 13.0875 104.465 14.1255 104.465 15.1776C104.465 16.3139 104.605 17.394 104.886 18.418C105.166 19.4421 105.601 20.3398 106.176 21.1254C106.751 21.8969 107.509 22.5142 108.435 22.949C109.361 23.3979 110.455 23.6224 111.717 23.6224C113.751 23.6224 115.322 23.1174 116.431 22.1354C117.539 21.1394 118.296 19.7367 118.717 17.913H116.753C116.445 19.1475 115.883 20.1575 115.07 20.8869C114.256 21.6304 113.148 22.0092 111.717 22.0092C110.777 22.0092 109.992 21.8128 109.318 21.42C108.659 21.0272 108.112 20.5362 107.677 19.933C107.242 19.3298 106.92 18.6565 106.723 17.899C106.527 17.1415 106.429 16.4121 106.429 15.7107H118.787C118.829 14.5885 118.717 13.4943 118.465 12.4001Z" fill="white"/>
<path d="M132.746 8.37394C132.283 7.84088 131.679 7.43408 130.922 7.15352C130.164 6.85894 129.225 6.71866 128.102 6.71866C126.966 6.71866 125.914 7.01324 124.96 7.60241C124.006 8.19158 123.347 8.97713 122.968 9.94505H122.912V1.02338H120.948V23.1873H122.912V13.8448C122.94 13.0592 123.066 12.3298 123.305 11.6564C123.543 10.9831 123.88 10.408 124.301 9.917C124.722 9.42602 125.241 9.04727 125.858 8.76672C126.475 8.48616 127.163 8.34588 127.962 8.34588C128.748 8.34588 129.407 8.47213 129.94 8.72463C130.473 8.97713 130.894 9.3138 131.203 9.74866C131.511 10.1835 131.736 10.6885 131.848 11.2917C131.974 11.8809 132.03 12.5121 132.03 13.1995V23.1873H133.994V12.8909C133.994 11.937 133.896 11.0813 133.714 10.3098C133.517 9.53825 133.194 8.89297 132.746 8.37394Z" fill="white"/>
<path d="M147.011 16.9732C147.011 17.7587 146.857 18.4601 146.562 19.0914C146.254 19.7086 145.861 20.2417 145.342 20.6765C144.837 21.1114 144.234 21.448 143.56 21.6725C142.873 21.8969 142.157 22.0092 141.414 22.0092C140.951 22.0092 140.516 21.939 140.081 21.7847C139.647 21.6444 139.268 21.434 138.931 21.1535C138.594 20.8729 138.342 20.5362 138.132 20.1575C137.935 19.7787 137.837 19.3439 137.837 18.8389C137.837 18.0533 138.075 17.4501 138.538 17.0293C139.001 16.6085 139.604 16.2718 140.32 16.0473C141.049 15.8229 141.849 15.6546 142.733 15.5283C143.616 15.4161 144.472 15.2898 145.3 15.1496C145.566 15.1075 145.875 15.0373 146.226 14.9251C146.576 14.8269 146.815 14.6586 146.941 14.4341H147.011V16.9732V16.9732ZM148.975 20.3679V11.853C148.975 10.7729 148.807 9.90317 148.442 9.22984C148.091 8.5565 147.628 8.03747 147.067 7.65872C146.506 7.27997 145.875 7.02747 145.173 6.90122C144.472 6.77497 143.771 6.70483 143.055 6.70483C142.129 6.70483 141.274 6.80303 140.502 7.01345C139.731 7.22386 139.057 7.5465 138.496 7.98136C137.935 8.41622 137.472 8.97734 137.15 9.6647C136.813 10.3521 136.617 11.1516 136.56 12.0915H138.524C138.566 10.7869 138.987 9.83303 139.773 9.24386C140.558 8.6547 141.582 8.36011 142.817 8.36011C143.392 8.36011 143.939 8.4022 144.444 8.50039C144.949 8.59859 145.398 8.76692 145.777 9.00539C146.155 9.25789 146.464 9.59456 146.674 10.0154C146.899 10.4362 146.997 10.9833 146.997 11.6426C146.997 12.0775 146.941 12.4282 146.829 12.6947C146.717 12.9612 146.548 13.1716 146.352 13.326C146.141 13.4803 145.889 13.5925 145.58 13.6486C145.272 13.7187 144.907 13.7608 144.486 13.8029C143.434 13.9291 142.382 14.0554 141.358 14.1957C140.334 14.336 139.408 14.5604 138.594 14.8971C137.781 15.2337 137.122 15.7107 136.617 16.3419C136.112 16.9732 135.873 17.8429 135.873 18.9651C135.873 19.7787 136.013 20.4661 136.294 21.0553C136.574 21.6444 136.953 22.1354 137.444 22.5142C137.935 22.8929 138.496 23.1735 139.156 23.3558C139.815 23.5382 140.516 23.6224 141.26 23.6224C142.045 23.6224 142.733 23.5522 143.294 23.3979C143.869 23.2576 144.374 23.0472 144.823 22.7807C145.272 22.5142 145.678 22.1775 146.029 21.7707C146.394 21.3639 146.745 20.901 147.109 20.3819H147.179C147.179 20.7887 147.207 21.1675 147.25 21.5182C147.306 21.8548 147.404 22.1494 147.572 22.4019C147.741 22.6404 147.965 22.8368 148.274 22.9771C148.568 23.1174 148.975 23.1735 149.466 23.1735C149.733 23.1735 149.957 23.1594 150.139 23.1454C150.322 23.1314 150.518 23.0893 150.743 23.0472V21.406C150.56 21.4901 150.35 21.5322 150.125 21.5322C149.354 21.5462 148.975 21.1535 148.975 20.3679Z" fill="white"/>
<path d="M164.757 17.6464C164.561 18.4601 164.252 19.2035 163.817 19.8348C163.396 20.4801 162.849 20.9991 162.19 21.4059C161.531 21.8127 160.731 22.0091 159.791 22.0091C158.753 22.0091 157.883 21.8127 157.168 21.4059C156.453 20.9991 155.877 20.4801 155.429 19.8348C154.98 19.1895 154.657 18.4601 154.461 17.6464C154.264 16.8328 154.166 16.0052 154.166 15.1775C154.166 14.2657 154.25 13.396 154.433 12.5684C154.615 11.7407 154.91 11.0113 155.344 10.3941C155.779 9.77685 156.354 9.27185 157.084 8.90713C157.813 8.52838 158.711 8.34601 159.791 8.34601C160.731 8.34601 161.517 8.5424 162.19 8.94921C162.849 9.35601 163.396 9.87504 163.817 10.5203C164.238 11.1656 164.547 11.895 164.757 12.7087C164.953 13.5223 165.052 14.3499 165.052 15.1775C165.052 16.0052 164.953 16.8328 164.757 17.6464ZM165.234 9.22977C164.631 8.45824 163.887 7.84101 162.975 7.3781C162.078 6.92921 161.012 6.69073 159.791 6.69073C158.487 6.69073 157.322 6.99935 156.298 7.60254C155.274 8.21976 154.531 9.07546 154.068 10.1977H154.012V7.16768H152.202V29.0791H154.166V20.1434H154.222C154.433 20.7185 154.727 21.2235 155.106 21.6584C155.485 22.0932 155.934 22.458 156.425 22.7526C156.915 23.0471 157.463 23.2576 158.038 23.3978C158.627 23.5381 159.202 23.6223 159.777 23.6223C160.998 23.6223 162.064 23.3978 162.961 22.9489C163.873 22.5001 164.617 21.8969 165.22 21.1253C165.823 20.3538 166.258 19.442 166.553 18.418C166.847 17.3939 166.987 16.3138 166.987 15.1775C166.987 14.0413 166.847 12.9612 166.553 11.9371C166.286 10.9131 165.837 10.0153 165.234 9.22977Z" fill="white"/>
<path d="M181.437 17.6464C181.24 18.4601 180.932 19.2035 180.511 19.8348C180.09 20.4801 179.543 20.9991 178.884 21.4059C178.224 21.8127 177.425 22.0091 176.485 22.0091C175.447 22.0091 174.563 21.8127 173.862 21.4059C173.146 20.9991 172.557 20.4801 172.122 19.8348C171.673 19.1895 171.351 18.4601 171.154 17.6464C170.958 16.8328 170.86 16.0052 170.86 15.1775C170.86 14.2657 170.944 13.396 171.126 12.5684C171.295 11.7407 171.603 11.0113 172.038 10.3941C172.473 9.77685 173.048 9.27185 173.778 8.90713C174.507 8.52838 175.405 8.34601 176.485 8.34601C177.425 8.34601 178.21 8.5424 178.884 8.94921C179.543 9.35601 180.09 9.87504 180.511 10.5203C180.932 11.1656 181.24 11.895 181.437 12.7087C181.633 13.5223 181.731 14.3499 181.731 15.1775C181.731 16.0052 181.633 16.8328 181.437 17.6464ZM181.914 9.22977C181.31 8.45824 180.567 7.84101 179.655 7.3781C178.757 6.92921 177.691 6.69073 176.471 6.69073C175.166 6.69073 174.002 6.99935 172.978 7.60254C171.954 8.21976 171.21 9.07546 170.748 10.1977H170.691V7.16768H168.882V29.0791H170.846V20.1434H170.902C171.112 20.7185 171.407 21.2235 171.786 21.6584C172.164 22.0932 172.613 22.458 173.104 22.7526C173.595 23.0471 174.142 23.2576 174.717 23.3978C175.293 23.5381 175.882 23.6223 176.457 23.6223C177.677 23.6223 178.743 23.3978 179.641 22.9489C180.539 22.5001 181.296 21.8969 181.9 21.1253C182.503 20.3538 182.952 19.442 183.232 18.418C183.527 17.3939 183.667 16.3138 183.667 15.1775C183.667 14.0413 183.513 12.9612 183.232 11.9371C182.966 10.9131 182.517 10.0153 181.914 9.22977Z" fill="white"/>
<path d="M195.703 7.25171L190.751 20.9007L185.462 7.25171H183.372L189.783 23.2013L189.095 24.9969C188.927 25.3756 188.773 25.7123 188.632 26.0209C188.478 26.3295 188.31 26.596 188.099 26.8065C187.889 27.0309 187.651 27.1992 187.37 27.3114C187.089 27.4377 186.725 27.4938 186.29 27.4938C186.065 27.4938 185.841 27.4798 185.617 27.4517C185.406 27.4237 185.168 27.3816 184.943 27.3395V28.9808C185.112 29.0369 185.308 29.079 185.518 29.093C185.743 29.107 186.051 29.121 186.444 29.1491C187.061 29.1491 187.58 29.093 187.987 28.9808C188.394 28.8685 188.745 28.6721 189.039 28.4196C189.334 28.1671 189.614 27.8024 189.867 27.3676C190.119 26.9187 190.386 26.3576 190.667 25.6842L197.638 7.25171H195.703V7.25171Z" fill="white"/>
<path d="M199.587 20.3542C199.7 20.3402 199.798 20.3262 199.882 20.2981C199.966 20.2701 200.036 20.214 200.092 20.1438C200.148 20.0737 200.177 19.9615 200.177 19.8352C200.177 19.723 200.148 19.6388 200.12 19.5687C200.078 19.4986 200.022 19.4565 199.952 19.4144C199.882 19.3723 199.812 19.3442 199.714 19.3302C199.629 19.3162 199.545 19.3162 199.447 19.3162H198.76V20.3823H199.265C199.363 20.3683 199.475 20.3542 199.587 20.3542ZM198.367 22.0516V18.9795H199.545C199.896 18.9795 200.148 19.0497 200.303 19.204C200.457 19.3442 200.541 19.5547 200.541 19.8352C200.541 19.9755 200.527 20.0877 200.485 20.1859C200.443 20.2841 200.387 20.3683 200.317 20.4384C200.247 20.5086 200.162 20.5647 200.064 20.6067C199.966 20.6488 199.868 20.6769 199.77 20.6909L200.682 22.0516H200.233L199.363 20.6909H198.732V22.0516H198.367V22.0516ZM198.437 18.4184C198.157 18.5447 197.932 18.699 197.722 18.9094C197.525 19.1058 197.371 19.3583 197.259 19.6248C197.147 19.9054 197.09 20.1999 197.09 20.5226C197.09 20.8452 197.147 21.1398 197.259 21.4204C197.371 21.7009 197.525 21.9394 197.722 22.1358C197.918 22.3322 198.157 22.5005 198.437 22.6267C198.704 22.739 199.012 22.8091 199.335 22.8091C199.657 22.8091 199.952 22.753 200.219 22.6267C200.485 22.5145 200.738 22.3462 200.934 22.1358C201.13 21.9254 201.299 21.6869 201.411 21.4204C201.523 21.1398 201.579 20.8452 201.579 20.5226C201.579 20.1999 201.523 19.9054 201.411 19.6248C201.299 19.3442 201.144 19.1058 200.934 18.9094C200.738 18.699 200.499 18.5447 200.219 18.4184C199.938 18.3062 199.643 18.236 199.335 18.236C199.012 18.236 198.718 18.2922 198.437 18.4184ZM200.387 18.0677C200.71 18.208 200.99 18.3904 201.229 18.6288C201.467 18.8673 201.649 19.1479 201.79 19.4705C201.93 19.7931 202 20.1438 202 20.5086C202 20.8873 201.93 21.238 201.79 21.5606C201.649 21.8833 201.467 22.1638 201.229 22.4023C200.99 22.6408 200.71 22.8231 200.387 22.9634C200.064 23.1037 199.714 23.1598 199.335 23.1598C198.956 23.1598 198.605 23.0897 198.283 22.9634C197.96 22.8231 197.68 22.6408 197.441 22.4023C197.203 22.1638 197.02 21.8833 196.88 21.5606C196.74 21.238 196.684 20.8873 196.684 20.5086C196.684 20.1298 196.754 19.7931 196.88 19.4705C197.02 19.1479 197.203 18.8673 197.441 18.6288C197.68 18.3904 197.96 18.194 198.283 18.0677C198.605 17.9274 198.956 17.8573 199.335 17.8573C199.714 17.8573 200.064 17.9274 200.387 18.0677Z" fill="white"/>
</g>
<defs>
<clipPath id="clip0_97_5357">
<rect width="202" height="29.1491" fill="white"/>
</clipPath>
</defs>
</svg>
