<svg width="40" height="41" viewBox="0 0 40 41" fill="none" xmlns="http://www.w3.org/2000/svg">
<g clip-path="url(#clip0_2111_483)">
<path fill-rule="evenodd" clip-rule="evenodd" d="M28.863 6.58661L25.0125 13.8051C24.8904 14.0344 24.9337 14.3151 25.1196 14.4977L25.5596 14.931C25.7447 15.1128 26.0272 15.1561 26.2585 15.0362C27.6349 14.3243 31.9956 12.0689 33.5943 11.2419C33.9164 11.0753 34.0145 10.6671 33.8048 10.3742C32.6964 8.82908 31.316 7.46915 29.7467 6.3781C29.4485 6.17107 29.0328 6.26847 28.863 6.58661Z" fill="#F69438"/>
<path fill-rule="evenodd" clip-rule="evenodd" d="M22.9583 12.6435C23.7823 11.3591 26.3935 7.29084 27.3717 5.76611C27.5751 5.44983 27.4474 5.02985 27.1018 4.87282C25.3643 4.08286 23.5256 3.59844 21.6111 3.42956C21.2316 3.39586 20.9073 3.69918 20.923 4.07397L21.2532 12.1698C21.2641 12.4383 21.4514 12.6687 21.7153 12.7383L22.3053 12.8939C22.556 12.9598 22.8199 12.8591 22.9583 12.6435Z" fill="#F69438"/>
<path fill-rule="evenodd" clip-rule="evenodd" d="M36.8026 18.4169C36.6313 16.5092 36.1342 14.6767 35.3192 12.9487C35.1662 12.6243 34.7583 12.5046 34.4508 12.6957L27.5169 17.0114C27.2546 17.1748 27.1303 17.487 27.2102 17.7825L27.349 18.2962C27.4169 18.5473 27.6423 18.7258 27.9062 18.7362L36.179 19.0632C36.5421 19.0776 36.8347 18.7732 36.8026 18.4169Z" fill="#F69438"/>
<path fill-rule="evenodd" clip-rule="evenodd" d="M6.58301 11.2619L13.8523 15.0213C14.0998 15.1495 14.4032 15.1043 14.6009 14.9099L14.9999 14.5173C15.1973 14.3229 15.2436 14.0244 15.1133 13.7807L11.2949 6.62216C11.1154 6.28514 10.6743 6.18107 10.3589 6.40143C8.81504 7.48026 7.45478 8.82019 6.35872 10.3405C6.13481 10.6508 6.24079 11.0849 6.58301 11.2619Z" fill="#F69438"/>
<path fill-rule="evenodd" clip-rule="evenodd" d="M18.8865 12.1523L19.2153 4.09347C19.231 3.7083 18.8981 3.39647 18.5081 3.43128C16.6067 3.60127 14.7811 4.08162 13.0566 4.8638C12.7006 5.02527 12.5703 5.45932 12.7797 5.7856L17.1579 12.6078C17.3095 12.8441 17.5991 12.956 17.8733 12.8834L18.4066 12.743C18.6809 12.6708 18.875 12.4312 18.8865 12.1523Z" fill="#F69438"/>
<path fill-rule="evenodd" clip-rule="evenodd" d="M4.82274 12.9414C4.00471 14.6717 3.5065 16.5086 3.33558 18.4244C3.30424 18.777 3.59308 19.0777 3.95209 19.0637L12.238 18.7359C12.4985 18.7255 12.7216 18.5492 12.7888 18.3011L12.9508 17.7015C13.0176 17.4545 12.9134 17.193 12.694 17.0564L5.68144 12.6914C5.37767 12.5025 4.97462 12.6207 4.82274 12.9414Z" fill="#F69438"/>
<path fill-rule="evenodd" clip-rule="evenodd" d="M29.7735 33.4077C31.3226 32.3262 32.6869 30.983 33.7849 29.4575C34.0062 29.1505 33.9017 28.7212 33.5632 28.5461L26.283 24.7807C26.0382 24.6544 25.7386 24.6989 25.543 24.8914L25.1366 25.2918C24.9411 25.4844 24.8955 25.7795 25.0239 26.0203L28.848 33.1891C29.0256 33.5225 29.4619 33.6254 29.7735 33.4077Z" fill="#2D56A1"/>
<path fill-rule="evenodd" clip-rule="evenodd" d="M11.3329 33.1114L15.1331 25.9874C15.251 25.7663 15.2092 25.4952 15.0297 25.3181L14.6368 24.9315C14.4173 24.7152 14.0807 24.6648 13.8057 24.807L6.65501 28.5054C6.27511 28.702 6.15569 29.1857 6.4061 29.5294C7.47789 31.0008 8.7986 32.3011 10.2932 33.3566C10.6422 33.6032 11.1333 33.4855 11.3329 33.1114Z" fill="#2D56A1"/>
<path fill-rule="evenodd" clip-rule="evenodd" d="M21.2521 27.6665L20.9289 35.5891C20.9106 36.0398 21.3002 36.4075 21.7563 36.3631C23.5599 36.1876 25.2956 35.7346 26.9384 35.0076C27.3728 34.8154 27.5291 34.2851 27.275 33.8892L22.9882 27.2095C22.8325 26.9666 22.5347 26.8521 22.2534 26.9262L21.7447 27.0603C21.4633 27.1343 21.2637 27.3802 21.2521 27.6665Z" fill="#2D56A1"/>
<path fill-rule="evenodd" clip-rule="evenodd" d="M17.1527 27.2068L12.7879 34.0083C12.574 34.3413 12.7069 34.7849 13.0704 34.9494C14.7837 35.7253 16.6004 36.2015 18.4924 36.373C18.891 36.4093 19.2306 36.0908 19.2149 35.6975L18.8872 27.6638C18.8753 27.379 18.6771 27.1346 18.3969 27.0609L17.883 26.9257C17.6031 26.8517 17.3075 26.9657 17.1527 27.2068Z" fill="#2D56A1"/>
<path fill-rule="evenodd" clip-rule="evenodd" d="M35.3605 26.7699C36.1375 25.0963 36.6178 23.3268 36.7936 21.4857C36.8328 21.0787 36.4962 20.7306 36.0812 20.7469L27.9371 21.0676C27.6553 21.0784 27.4139 21.2687 27.3411 21.5372L27.206 22.0387C27.1288 22.3246 27.2493 22.626 27.5027 22.7838L34.3679 27.0591C34.719 27.2773 35.1878 27.1421 35.3605 26.7699Z" fill="#2D56A1"/>
<path fill-rule="evenodd" clip-rule="evenodd" d="M3.34557 21.4883C3.52172 23.33 4.00126 25.0984 4.77749 26.768C4.95103 27.1413 5.42087 27.2772 5.77316 27.0576L12.6353 22.7849C12.8895 22.6267 13.0104 22.3238 12.9328 22.0371L12.8066 21.5701C12.729 21.2823 12.4704 21.0779 12.1681 21.0661L4.0606 20.7472C3.6445 20.7305 3.30676 21.0798 3.34557 21.4883Z" fill="#2D56A1"/>
</g>
<defs>
<clipPath id="clip0_2111_483">
<rect width="33.8889" height="33.3333" fill="white" transform="translate(3.33325 3.427)"/>
</clipPath>
</defs>
</svg>
