<svg width="201" height="32" viewBox="0 0 201 32" fill="none" xmlns="http://www.w3.org/2000/svg">
<g clip-path="url(#clip0_2964_17141)">
<path d="M111.881 21.8365C111.218 22.2161 110.455 22.4075 109.594 22.4075C108.344 22.4075 107.301 21.9864 106.465 21.1412C105.629 20.2959 105.211 19.2496 105.211 17.9992C105.211 16.7297 105.623 15.6707 106.449 14.8254C107.275 13.9801 108.312 13.559 109.562 13.559C110.353 13.559 111.058 13.7345 111.68 14.0853C112.302 14.4362 112.762 14.9115 113.065 15.508L115.894 13.9259C115.345 12.8318 114.51 11.9609 113.38 11.3166C112.251 10.6723 110.978 10.3501 109.562 10.3501C108.136 10.3501 106.835 10.6818 105.664 11.3453C104.49 12.0088 103.572 12.9274 102.908 14.1013C102.245 15.2751 101.913 16.5734 101.913 17.9992C101.913 20.1683 102.647 21.9801 104.117 23.4346C105.588 24.8892 107.412 25.6196 109.591 25.6196C111.116 25.6196 112.484 25.256 113.693 24.5287C114.905 23.8015 115.789 22.8254 116.347 21.6037L113.371 20.2544C113.042 20.9306 112.545 21.457 111.881 21.8365Z" fill="black"/>
<path d="M53.9162 14.2449L50.1906 13.0743C48.7328 12.6149 47.9322 11.709 47.9322 10.5224C47.9322 8.97858 49.2209 7.9419 51.1379 7.9419C53.256 7.9419 54.9338 9.09023 55.7504 11.0966L58.6531 9.80155C57.5335 6.7553 54.6595 4.86694 51.1379 4.86694C47.1985 4.86694 44.4458 7.25929 44.4458 10.6883C44.4458 13.3582 46.0725 15.288 49.1507 16.2673L53.0391 17.5177C54.5255 18.0025 55.2145 18.7872 55.2145 19.9865C55.2145 21.5145 53.8939 22.5416 51.9258 22.5416C49.6068 22.5416 47.6356 21.1604 46.6371 18.8414L43.7057 20.1141C44.819 23.4602 47.9609 25.6197 51.7376 25.6197C55.8365 25.6197 58.7009 23.2146 58.7009 19.7728C58.7041 17.0807 57.1379 15.272 53.9162 14.2449Z" fill="black"/>
<path d="M74.4171 17.4858C74.4171 13.2752 71.4857 10.3311 67.2911 10.3311C63.1508 10.3311 60.0279 13.6038 60.0279 17.9483C60.0279 22.3917 63.1954 25.6197 67.5622 25.6197C70.4203 25.6197 72.8541 24.2481 73.7951 22.1205L71.0487 20.7712C70.3278 21.9834 69.1029 22.65 67.5909 22.65C65.4027 22.65 63.7887 21.1795 63.5686 18.9882L63.559 18.902H74.248C74.3597 18.5416 74.4171 18.0536 74.4171 17.4858ZM63.6324 16.3438L63.6516 16.2481C64.0598 14.2832 65.4219 13.1126 67.2911 13.1126C69.2018 13.1126 70.6021 14.3757 70.7712 16.2577L70.7776 16.3438H63.6324Z" fill="black"/>
<path d="M96.4713 12.7074L96.3182 13.0455V10.6595H93.1315V25.2943H96.5351V17.1316C96.5351 14.9881 98.0853 13.4889 100.305 13.4889H101.505V10.4937H100.714C99.2336 10.4968 97.2974 10.8796 96.4713 12.7074Z" fill="black"/>
<path d="M125.294 10.3343C123.575 10.3343 122.191 10.9595 121.39 12.0951L121.246 12.3024V5.19556H117.843V25.2944H121.246V16.7011C121.246 14.7809 122.51 13.4412 124.318 13.4412C126.156 13.4412 127.39 14.7522 127.39 16.7011V25.2944H130.793V15.8558C130.787 12.6022 128.529 10.3343 125.294 10.3343Z" fill="black"/>
<path d="M142.073 13.3838L148.978 5.19238H144.538L136.806 14.3311V5.19238H133.266V25.2913H136.806V19.6613L136.825 19.639L139.616 16.3152L139.674 16.4109L145.09 25.2913H149.253L142.037 13.4284L142.073 13.3838Z" fill="black"/>
<path d="M152.455 5.19238C151.498 5.19238 150.723 5.97069 150.723 6.92444C150.723 7.87819 151.502 8.65649 152.455 8.65649C153.409 8.65649 154.187 7.87819 154.187 6.92444C154.187 5.97069 153.409 5.19238 152.455 5.19238Z" fill="black"/>
<path d="M154.156 10.6594H150.752V25.2942H154.156V10.6594Z" fill="black"/>
<path d="M164.379 10.3342C162.51 10.3342 161.007 11.103 160.261 12.4427L160.111 12.7106V10.6628H156.924V25.2975H160.328V16.7042C160.328 14.7521 161.562 13.4443 163.4 13.4443C165.237 13.4443 166.471 14.7553 166.471 16.7042V25.2975H169.875V15.8558C169.875 12.6022 167.613 10.3342 164.379 10.3342Z" fill="black"/>
<path d="M183.412 12.516L183.272 12.3438C182.178 11.0105 180.669 10.3342 178.793 10.3342C174.726 10.3342 171.776 13.3422 171.776 17.4889C171.776 21.6644 174.762 24.6979 178.876 24.6979C180.615 24.6979 182.073 24.1046 183.087 22.9849L183.227 22.8318V24.6436C183.227 26.7904 181.754 28.1779 179.476 28.1779C177.658 28.1779 176.242 27.3039 175.754 25.8908L172.589 27.0838C173.559 29.6357 176.251 31.2816 179.476 31.2816C183.623 31.2816 186.631 28.4905 186.631 24.6436V10.666H183.419V12.516H183.412ZM179.31 21.5623C176.994 21.5623 175.313 19.8589 175.313 17.5113C175.313 15.1859 177.029 13.4347 179.31 13.4347C181.578 13.4347 183.224 15.1508 183.224 17.5113C183.224 19.8589 181.578 21.5623 179.31 21.5623Z" fill="black"/>
<path d="M196.746 16.9658L194.379 16.2577C193.489 15.9993 192.583 15.607 192.583 14.6309C192.583 13.6899 193.371 13.0838 194.593 13.0838C196.104 13.0838 197.403 13.9355 197.926 15.2561L200.5 14.0472C199.581 11.7537 197.336 10.3342 194.618 10.3342C191.396 10.3342 189.23 12.1269 189.23 14.7967C189.23 16.835 190.561 18.3342 192.978 19.0168L195.4 19.6963C196.159 19.9132 197.17 20.3183 197.17 21.3231C197.17 22.331 196.305 22.9786 194.969 22.9786C193.336 22.9786 191.884 21.9929 191.071 20.3406L188.541 21.5527C189.431 24.0631 191.884 25.6197 194.969 25.6197C198.27 25.6197 200.49 23.8366 200.49 21.1859C200.497 19.1604 199.163 17.6644 196.746 16.9658Z" fill="black"/>
<path d="M87.4505 12.634C87.0614 11.9705 86.4266 11.4251 85.5494 10.9944C84.6722 10.5638 83.7504 10.3501 82.7839 10.3501C80.8126 10.3501 79.1475 11.0869 77.7886 12.5606C76.4266 14.0343 75.7472 15.8333 75.7472 17.9577C75.7472 20.1045 76.4266 21.9131 77.7886 23.3868C79.1507 24.8605 80.8158 25.5973 82.7839 25.5973C83.7599 25.5973 84.6818 25.3836 85.5558 24.9593C86.4298 24.5351 87.0614 23.9897 87.4505 23.3294V25.3038H90.787V10.6595H87.4505V12.634ZM87.4505 20.2448C87.0901 20.8796 86.5414 21.3995 85.8046 21.811C85.0678 22.2193 84.2894 22.4266 83.4697 22.4266C82.2129 22.4266 81.1571 21.9992 80.3086 21.1475C79.4601 20.2927 79.0359 19.2337 79.0359 17.9641C79.0359 16.6978 79.4601 15.642 80.3086 14.7967C81.1571 13.9546 82.2097 13.5303 83.4697 13.5303C84.299 13.5303 85.0805 13.7377 85.811 14.1523C86.5414 14.567 87.0901 15.0997 87.4505 15.7536V20.2448Z" fill="black"/>
<path d="M0.5 23.3135V24.6308C0.5 27.6133 7.90032 30.0312 17.0295 30.0312C17.0295 30.0312 17.0295 30.0312 17.0327 30.0312C17.0359 30.0312 17.0327 30.0312 17.0359 30.0312C26.1651 30.0312 33.5654 27.6133 33.5654 24.6308V23.3135C30.4203 25.8717 24.264 27.5718 17.0359 27.5718C9.80781 27.5718 3.64514 25.8717 0.5 23.3135Z" fill="url(#paint0_linear_2964_17141)"/>
<path d="M17.0295 26.752C24.3405 26.752 30.7998 24.8413 33.559 22.1906V22.012V18.6084V3.54944L33.5494 3.56219V3.54944L25.8908 14.3788L28.2735 18.5096L27.7536 19.2432L25.1188 14.6754L25.1316 14.6595L17.0359 0.5L17.0295 0.509569L8.94976 14.6754L6.30862 19.256L5.78549 18.5096L8.16826 14.3788L0.509569 3.54944V18.6084H0.5V22.1874C3.25917 24.8413 9.7185 26.752 17.0295 26.752Z" fill="url(#paint1_linear_2964_17141)"/>
</g>
<defs>
<linearGradient id="paint0_linear_2964_17141" x1="0.499298" y1="26.674" x2="33.5613" y2="26.674" gradientUnits="userSpaceOnUse">
<stop stop-color="#FFA300"/>
<stop offset="0.9854" stop-color="#FFBD00"/>
</linearGradient>
<linearGradient id="paint1_linear_2964_17141" x1="0.499298" y1="13.6255" x2="33.5613" y2="13.6255" gradientUnits="userSpaceOnUse">
<stop stop-color="#FFA300"/>
<stop offset="0.9854" stop-color="#FFBD00"/>
</linearGradient>
<clipPath id="clip0_2964_17141">
<rect width="200" height="31" fill="white" transform="translate(0.5 0.5)"/>
</clipPath>
</defs>
</svg>
