<svg width="190" height="50" viewBox="0 0 190 50" fill="none" xmlns="http://www.w3.org/2000/svg">
<g clip-path="url(#clip0_2964_17140)">
<path d="M24.5624 25.49L53.0926 25.2327V24.9877C53.0926 24.2895 53.0681 23.6035 53.0069 22.9175L25.5914 22.6235C25.4689 22.6235 25.3586 22.5132 25.3586 22.3907C25.3586 22.2682 25.4689 22.158 25.5914 22.158L52.8966 21.9007C52.7986 21.1167 52.6639 20.345 52.4924 19.5855L26.6081 19.2915C26.4856 19.2915 26.3754 19.1812 26.3754 19.0587C26.3754 18.9362 26.4856 18.826 26.6081 18.826L52.2351 18.5687C52.0146 17.7725 51.7696 17.013 51.4879 16.2535L27.6494 15.9595C27.5269 15.9595 27.4166 15.8492 27.4166 15.7267C27.4166 15.6042 27.5269 15.494 27.6494 15.494L51.0836 15.2367C47.3351 6.58825 38.6866 0.5 28.6049 0.5C16.6121 0.5 6.62839 9.11175 4.52139 20.5042L39.6789 20.0142L39.2134 21.521L4.43564 20.9697C4.27526 21.9096 4.17705 22.859 4.14164 23.8117L38.6499 23.3217L38.1844 24.8285L4.10489 24.2772V25C4.10489 25.7105 4.12939 26.421 4.19064 27.1192L37.6086 26.6292L37.1431 28.136L4.23964 27.5847C4.33764 28.5402 4.49689 29.4835 4.70514 30.4022L36.5919 29.9245L36.1264 31.4312L4.82764 30.9045C5.06039 31.8722 5.35439 32.8032 5.70964 33.722L35.5506 33.2442L35.0851 34.751L5.89339 34.2242C6.28539 35.192 6.73864 36.1352 7.25314 37.0417L34.5339 36.5517L34.0684 38.0585L7.54714 37.5317C8.14739 38.524 8.79664 39.4672 9.51939 40.3615L33.3579 39.8592L32.8924 41.366L9.91139 40.8392C12.2084 43.5622 15.0726 45.7504 18.3037 47.2506C21.5348 48.7508 25.0547 49.5269 28.6171 49.5245C39.3849 49.5245 48.5234 42.5787 51.8064 32.9257L22.5044 32.6317C22.3819 32.6317 22.2716 32.5215 22.2716 32.399C22.2716 32.2765 22.3819 32.1662 22.5044 32.1662L52.1249 31.909C52.3454 31.1495 52.5291 30.3777 52.6884 29.5937L23.5456 29.2997C23.4231 29.2997 23.3129 29.1895 23.3129 29.067C23.3129 28.9445 23.4231 28.8342 23.5456 28.8342L52.8599 28.577C52.9701 27.8175 53.0436 27.058 53.0804 26.274L24.5746 25.98C24.4521 25.98 24.3419 25.8697 24.3419 25.7472C24.3419 25.6247 24.4521 25.5145 24.5746 25.5145M109.198 15.7635H101.872L91.7659 32.8645H98.6381L100.206 29.7775H104.469L104.653 32.8645H110.582L109.173 15.7635H109.198ZM101.982 25.7717L104.249 20.9207L104.359 25.7717H101.982Z" fill="#FF2B00"/>
<path d="M91.1419 21.3988C90.8846 22.195 90.3701 22.391 89.2921 22.4033H87.8466L88.5326 20.1738H89.8801C90.8111 20.1738 91.3624 20.6638 91.1419 21.3988ZM96.8871 20.7985C97.2791 19.01 96.5686 15.7638 90.7254 15.7638H83.4121L77.9854 32.8648H84.5024L86.6339 25.9803L88.8021 32.8648H95.4539L92.2689 25.8088C95.2824 24.8778 96.2991 23.322 96.8626 20.7985M82.4566 15.7638H66.6419L64.9881 21.019H70.0229L66.2744 32.877H72.7424L76.4909 21.019H80.8029L82.4566 15.7638ZM143.609 20.6638L145.164 15.7638H132.78L127.353 32.8648H139.762L141.232 28.222H135.07L135.597 26.5683H141.734L143.119 22.2195H136.981L137.471 20.6638H143.621H143.609ZM119.844 32.8648H125.944L131.371 15.7515H124.903L122.637 23.3343L120.726 15.7515H114.564L109.149 32.8648H115.617L117.92 25.1718L119.868 32.8648H119.844ZM148.068 16.6335V16.021H148.472C148.68 16.021 148.901 16.07 148.901 16.315C148.901 16.6213 148.68 16.6335 148.423 16.6335H148.068ZM148.068 16.8908H148.411L148.937 17.7483H149.268L148.705 16.8785C148.999 16.8418 149.219 16.6948 149.219 16.3395C149.219 15.9475 148.986 15.776 148.521 15.776H147.774V17.7483H148.068V16.8908ZM148.423 18.4588C149.354 18.4588 150.15 17.736 150.15 16.7438C150.15 15.7515 149.354 15.041 148.423 15.041C147.492 15.041 146.683 15.7638 146.683 16.7438C146.683 17.7238 147.48 18.4588 148.423 18.4588ZM147.026 16.7438C147.026 15.9353 147.639 15.3228 148.423 15.3228C149.207 15.3228 149.807 15.9353 149.807 16.7438C149.807 17.5523 149.195 18.177 148.423 18.177C147.651 18.177 147.026 17.5768 147.026 16.7438Z" fill="#FF2B00"/>
<path d="M64.24 47.3793L65.8325 40.1395H67.376L65.7835 47.3793H64.24ZM67.6087 46.3748C67.6087 46.3135 67.6087 46.142 67.6455 46.0195L68.2335 43.349H67.3637L67.6332 42.1485H68.503L68.8215 40.7153H70.2057L69.8872 42.1485H70.953L70.6712 43.349H69.6055L69.091 45.652V45.8358C69.091 46.1175 69.2502 46.289 69.6055 46.289C69.7402 46.289 69.924 46.2278 69.9852 46.1788L70.022 47.2813C69.826 47.416 69.5075 47.514 69.1645 47.514C68.2335 47.514 67.5965 47.1588 67.5965 46.3748M72.0922 43.0918L71.6022 42.5773C71.982 42.4058 72.4842 42.0628 72.668 41.6708H72.5455C72.1902 41.6708 71.8717 41.438 71.8717 40.9603C71.8717 40.4458 72.3495 40.0293 72.8395 40.0293C73.2805 40.0293 73.6847 40.3355 73.6847 40.9235C73.6847 41.7565 72.9865 42.6508 72.0922 43.0918ZM72.7782 46.5708L73.55 45.603C73.8685 45.9705 74.628 46.436 75.3875 46.436C75.853 46.436 76.147 46.1788 76.147 45.897C76.147 45.1865 73.4765 45.3703 73.4765 43.79C73.4765 42.8835 74.236 42.026 75.6325 42.026C76.5267 42.026 77.3597 42.369 77.8497 42.8713L77.1392 43.79C76.882 43.4715 76.2327 43.104 75.5957 43.104C75.1057 43.104 74.8362 43.3245 74.8362 43.594C74.8362 44.231 77.5067 44.084 77.5067 45.6888C77.5067 46.681 76.6737 47.5263 75.2405 47.5263C74.285 47.5263 73.354 47.2078 72.7782 46.583M85.7142 47.3793L86.388 44.329H82.9702L82.2965 47.3793H80.753L82.3455 40.1395H83.889L83.2765 42.9815H86.682L87.3067 40.1395H88.8625L87.27 47.3793H85.7265H85.7142ZM92.0597 46.142L92.1945 45.505C91.9862 45.211 91.533 45.015 91.0062 45.015C90.3937 45.015 90.014 45.3825 90.014 45.897C90.014 46.3503 90.3815 46.5953 90.9572 46.5953C91.435 46.5953 91.7902 46.4238 92.0475 46.1543L92.0597 46.142ZM91.778 47.3793L91.8882 46.8403C91.4962 47.2323 90.994 47.5018 90.3202 47.5018C89.426 47.5018 88.593 46.9995 88.593 45.9828C88.593 44.7945 89.4995 44.0718 90.5285 44.0718C91.288 44.0718 91.8515 44.2923 92.3292 44.7823L92.464 44.182C92.464 44.182 92.4885 44.0105 92.4885 43.9248C92.4885 43.447 91.974 43.1285 91.2635 43.1285C90.7245 43.1285 90.2345 43.3123 89.8057 43.6185L89.4872 42.6263C90.0997 42.1975 90.8102 41.9893 91.5697 41.9893C92.807 41.9893 93.9095 42.4548 93.9095 43.6553C93.9095 43.7778 93.8727 44.0718 93.8482 44.2188L93.15 47.367H91.7657L91.778 47.3793ZM94.326 47.3793L95.4897 42.1363H96.874L96.7147 42.8223C97.168 42.3323 97.7315 42.0138 98.5767 42.0138L98.2705 43.3858C98.1847 43.3613 97.9887 43.3245 97.7805 43.3245C97.266 43.3245 96.7882 43.6063 96.4697 43.9615L95.7102 47.4038H94.326V47.3793ZM99.7527 45.0518C99.7527 45.799 100.255 46.2768 100.916 46.2768C101.406 46.2768 101.847 46.0073 102.117 45.6398L102.509 43.8268C102.276 43.4715 101.835 43.2143 101.284 43.2143C100.377 43.2143 99.7405 44.0718 99.7405 45.0395M102.729 42.8223L103.317 40.1273H104.702L103.097 47.367H101.713L101.872 46.7178C101.431 47.2323 100.929 47.5018 100.304 47.5018C99.1157 47.5018 98.3072 46.7178 98.3072 45.3335C98.3072 43.7533 99.2995 42.0015 101.076 42.0015C101.786 42.0015 102.399 42.3078 102.742 42.8345M108.769 47.3793L110.067 41.4993H107.948L108.242 40.1395H114.024L113.73 41.4993H111.611L110.324 47.3793H108.781H108.769ZM116.596 44.4638C116.596 43.7043 116.143 43.2388 115.384 43.2388C114.465 43.2388 113.816 44.1208 113.816 45.064C113.816 45.8235 114.281 46.289 115.041 46.289C115.959 46.289 116.584 45.407 116.584 44.4638M112.382 45.1253C112.382 43.496 113.644 42.0138 115.408 42.0138C117.074 42.0138 118.017 43.0183 118.017 44.4025C118.017 46.0318 116.756 47.514 114.979 47.514C113.313 47.514 112.382 46.5095 112.382 45.1253ZM120.908 46.1543L121.864 45.015C122.366 45.6888 123.309 46.142 124.302 46.142C125.086 46.142 125.392 45.701 125.392 45.3335C125.392 44.3168 121.864 44.5005 121.864 42.3935C121.864 41.2053 122.917 40.0415 124.694 40.0415C125.845 40.0415 126.935 40.458 127.585 41.2053L126.617 42.3078C126.078 41.6708 125.196 41.3768 124.461 41.3768C123.91 41.3768 123.493 41.6953 123.493 42.0873C123.493 43.0305 127.033 42.9203 127.033 45.0028C127.033 46.3258 125.968 47.4895 124.179 47.4895C122.758 47.4895 121.509 46.9383 120.896 46.1298M127.817 46.3748C127.817 46.3135 127.817 46.142 127.854 46.0195L128.442 43.349H127.572L127.842 42.1485H128.712L129.03 40.7153H130.414L130.096 42.1485H131.162L130.892 43.349H129.826L129.312 45.652V45.8358C129.312 46.1175 129.471 46.289 129.826 46.289C129.961 46.289 130.145 46.2278 130.206 46.1788L130.243 47.2813C130.047 47.416 129.728 47.514 129.385 47.514C128.454 47.514 127.817 47.1588 127.817 46.3748ZM135.229 44.4638C135.229 43.7043 134.775 43.2388 134.016 43.2388C133.085 43.2388 132.448 44.1208 132.448 45.064C132.448 45.8235 132.913 46.289 133.673 46.289C134.592 46.289 135.216 45.407 135.216 44.4638M131.015 45.1253C131.015 43.496 132.276 42.0138 134.04 42.0138C135.706 42.0138 136.65 43.0183 136.65 44.4025C136.65 46.0318 135.388 47.514 133.612 47.514C131.946 47.514 131.015 46.5095 131.015 45.1253ZM141.476 44.4638C141.476 43.7165 140.986 43.2388 140.312 43.2388C139.835 43.2388 139.406 43.5083 139.124 43.8758L138.708 45.6888C138.94 46.044 139.381 46.3013 139.933 46.3013C140.839 46.3013 141.476 45.4438 141.476 44.476M138.487 46.6933L137.887 49.3883H136.503L138.107 42.1485H139.492L139.332 42.7978C139.773 42.2833 140.288 42.0138 140.913 42.0138C142.101 42.0138 142.897 42.7978 142.897 44.182C142.897 45.75 141.929 47.514 140.141 47.514C139.43 47.514 138.818 47.2078 138.475 46.681M150.235 41.683L148.422 44.7945H150.676L150.235 41.683ZM150.982 47.3793L150.798 46.1543H147.687L146.976 47.3793H145.139L149.524 40.1395H151.46L152.648 47.3793H150.982ZM157.56 47.3793L158.871 41.4993H156.752L157.046 40.1395H162.816L162.522 41.4993H160.402L159.104 47.3793H157.548H157.56ZM161.321 47.3793L162.485 42.1363H163.869L163.71 42.8223C164.163 42.3323 164.727 42.0138 165.572 42.0138L165.266 43.3858C165.18 43.3613 164.984 43.3245 164.763 43.3245C164.249 43.3245 163.771 43.6063 163.453 43.9615L162.693 47.4038H161.309H161.321V47.3793ZM168.647 46.142L168.781 45.505C168.573 45.1988 168.12 45.015 167.593 45.015C166.981 45.015 166.589 45.3825 166.589 45.897C166.589 46.3503 166.956 46.5953 167.532 46.5953C168.01 46.5953 168.365 46.4238 168.622 46.1543M168.353 47.3915L168.463 46.8525C168.071 47.2445 167.569 47.514 166.895 47.514C166.001 47.514 165.168 47.0118 165.168 45.995C165.168 44.8068 166.074 44.084 167.115 44.084C167.875 44.084 168.438 44.3045 168.916 44.7945L169.051 44.1943C169.051 44.1943 169.075 44.0228 169.075 43.937C169.075 43.4593 168.561 43.1408 167.85 43.1408C167.311 43.1408 166.821 43.3245 166.393 43.6308L166.074 42.6385C166.687 42.2098 167.397 42.0015 168.157 42.0015C169.394 42.0015 170.496 42.467 170.496 43.6675C170.496 43.79 170.46 44.084 170.435 44.231L169.737 47.3793H168.353V47.3915ZM174.453 47.3793L175.164 44.1943C175.188 44.0963 175.2 43.986 175.2 43.888C175.2 43.4103 174.808 43.2265 174.306 43.2265C173.841 43.2265 173.375 43.545 173.081 43.839L172.309 47.3793H170.925L172.089 42.1363H173.473L173.314 42.81C173.73 42.418 174.294 42.0015 175.053 42.0015C176.058 42.0015 176.695 42.516 176.695 43.3368C176.695 43.4348 176.658 43.6553 176.634 43.7778L175.837 47.3793H174.453ZM181.448 44.2555V44.1453C181.448 43.6063 181.056 43.1285 180.235 43.1285C179.488 43.1285 178.924 43.6675 178.826 44.2433H181.448V44.2555ZM177.307 45.162C177.307 43.4593 178.594 42.0138 180.333 42.0138C181.681 42.0138 182.685 42.8835 182.685 44.3535C182.685 44.672 182.624 45.064 182.575 45.2233H178.679V45.358C178.679 45.799 179.145 46.3993 180.125 46.3993C180.59 46.3993 181.129 46.2645 181.448 46.0195L181.864 46.9873C181.35 47.3303 180.652 47.5263 180.002 47.5263C178.361 47.5263 177.295 46.632 177.295 45.1743L177.307 45.162ZM182.538 46.6933C182.538 46.1788 182.979 45.7378 183.506 45.7378C183.947 45.7378 184.314 46.1053 184.314 46.5463C184.314 47.0608 183.873 47.5018 183.347 47.5018C182.906 47.5018 182.538 47.1343 182.538 46.6933ZM184.768 41.291H184.437L184.314 41.8055H184.694C184.915 41.8055 185.025 41.6585 185.025 41.5115C185.025 41.389 184.964 41.291 184.755 41.291M184.768 42.6018L184.51 42.0138H184.265L184.131 42.6018H183.898L184.229 41.095H184.817C185.111 41.095 185.27 41.291 185.27 41.487C185.27 41.7688 185.025 42.0015 184.78 42.0015L185.062 42.6018H184.78H184.768ZM184.559 40.7398C183.947 40.7398 183.469 41.2298 183.469 41.83C183.469 42.4303 183.947 42.9203 184.559 42.9203C185.172 42.9203 185.662 42.4303 185.662 41.83C185.662 41.2298 185.172 40.7398 184.559 40.7398ZM184.559 43.153C184.222 43.1384 183.903 42.994 183.669 42.7497C183.435 42.5055 183.304 42.1804 183.304 41.8423C183.304 41.5042 183.435 41.1791 183.669 40.9349C183.903 40.6906 184.222 40.5462 184.559 40.5315C185.282 40.5315 185.87 41.1195 185.87 41.8423C185.87 42.565 185.282 43.153 184.547 43.153H184.559Z" fill="#A0A6AB"/>
</g>
<defs>
<clipPath id="clip0_2964_17140">
<rect width="187.425" height="49" fill="white" transform="translate(1.28751 0.5)"/>
</clipPath>
</defs>
</svg>
